<?xml version="1.0" encoding="UTF-8" standalone="no"?>
<!DOCTYPE svg PUBLIC "-//W3C//DTD SVG 1.1//EN"
 "http://www.w3.org/Graphics/SVG/1.1/DTD/svg11.dtd">
<!-- Generated by graphviz version 2.38.0 (20140413.2041)
 -->
<!-- Title: sample Pages: 1 -->
<svg width="834pt" height="743pt"
 viewBox="0.00 0.00 833.66 743.00" xmlns="http://www.w3.org/2000/svg" xmlns:xlink="http://www.w3.org/1999/xlink">
<g id="graph0" class="graph" transform="scale(1 1) rotate(0) translate(4 739)">
<title>sample</title>
<polygon fill="white" stroke="none" points="-4,4 -4,-739 829.655,-739 829.655,4 -4,4"/>
<text text-anchor="middle" x="412.828" y="-716.6" font-family="Times,serif" font-size="18.00">CRUD View Diagram</text>
<!-- Add View -->
<g id="node1" class="node"><title>Add View</title>
<ellipse fill="none" stroke="black" cx="603" cy="-687" rx="63.4164" ry="18"/>
<ellipse fill="none" stroke="black" cx="603" cy="-687" rx="67.4139" ry="22"/>
<text text-anchor="middle" x="603" y="-682.8" font-family="Times,serif" font-size="14.00">Add View /add</text>
</g>
<!-- List View -->
<g id="node2" class="node"><title>List View</title>
<ellipse fill="none" stroke="black" cx="247" cy="-593" rx="68.7341" ry="18"/>
<ellipse fill="none" stroke="black" cx="247" cy="-593" rx="72.7266" ry="22"/>
<text text-anchor="middle" x="247" y="-588.8" font-family="Times,serif" font-size="14.00">List View /index</text>
</g>
<!-- Add View&#45;&gt;List View -->
<g id="edge1" class="edge"><title>Add View&#45;&gt;List View</title>
<path fill="none" stroke="black" stroke-dasharray="5,2" d="M549.429,-673.401C484.719,-657.289 376.28,-629.316 308.303,-611.239"/>
<polygon fill="black" stroke="black" points="309.141,-607.84 298.577,-608.646 307.338,-614.604 309.141,-607.84"/>
</g>
<!-- POST /add -->
<g id="node9" class="node"><title>POST /add</title>
<ellipse fill="lightgrey" stroke="black" cx="704" cy="-535" rx="49.0258" ry="18"/>
<text text-anchor="middle" x="704" y="-530.8" font-family="Times,serif" font-size="14.00">POST /add</text>
</g>
<!-- Add View&#45;&gt;POST /add -->
<g id="edge5" class="edge"><title>Add View&#45;&gt;POST /add</title>
<path fill="none" stroke="black" d="M621.418,-665.425C626.341,-659.611 631.531,-653.182 636,-647 656.248,-618.991 676.572,-584.834 689.654,-561.87"/>
<polygon fill="black" stroke="black" points="692.759,-563.489 694.63,-553.061 686.664,-560.047 692.759,-563.489"/>
<text text-anchor="middle" x="700.614" y="-635.8" font-family="Times,serif" font-size="14.00">Click submit button</text>
</g>
<!-- GET /index -->
<g id="node10" class="node"><title>GET /index</title>
<ellipse fill="lightgrey" stroke="black" cx="387" cy="-271" rx="51.4139" ry="18"/>
<text text-anchor="middle" x="387" y="-266.8" font-family="Times,serif" font-size="14.00">GET /index</text>
</g>
<!-- Add View&#45;&gt;GET /index -->
<g id="edge4" class="edge"><title>Add View&#45;&gt;GET /index</title>
<path fill="none" stroke="black" d="M606.551,-664.963C611.246,-632.509 617.36,-568.585 603,-517 574.407,-414.282 471.287,-330.281 418.546,-292.918"/>
<polygon fill="black" stroke="black" points="420.432,-289.966 410.228,-287.116 416.427,-295.708 420.432,-289.966"/>
<text text-anchor="middle" x="646.769" y="-472.8" font-family="Times,serif" font-size="14.00">Click back button</text>
</g>
<!-- List View&#45;&gt;Add View -->
<g id="edge2" class="edge"><title>List View&#45;&gt;Add View</title>
<path fill="none" stroke="black" stroke-dasharray="5,2" d="M302.887,-607.176C368.451,-623.524 476.529,-651.415 543.577,-669.261"/>
<polygon fill="black" stroke="black" points="543.002,-672.73 553.566,-671.927 544.807,-665.967 543.002,-672.73"/>
</g>
<!-- Show Confirm -->
<g id="node5" class="node"><title>Show Confirm</title>
<ellipse fill="none" stroke="black" cx="388" cy="-477" rx="64.3125" ry="18"/>
<ellipse fill="none" stroke="black" cx="388" cy="-477" rx="68.3219" ry="22"/>
<text text-anchor="middle" x="388" y="-472.8" font-family="Times,serif" font-size="14.00">Show Confirm </text>
</g>
<!-- List View&#45;&gt;Show Confirm -->
<g id="edge8" class="edge"><title>List View&#45;&gt;Show Confirm</title>
<path fill="none" stroke="black" d="M246.526,-570.97C247.288,-554.318 251.026,-531.519 264.469,-517 277.74,-502.666 296.227,-493.569 314.862,-487.806"/>
<polygon fill="black" stroke="black" points="315.905,-491.148 324.593,-485.085 314.02,-484.407 315.905,-491.148"/>
<text text-anchor="middle" x="318.266" y="-530.8" font-family="Times,serif" font-size="14.00">Click delete button</text>
</g>
<!-- GET /add -->
<g id="node6" class="node"><title>GET /add</title>
<ellipse fill="lightgrey" stroke="black" cx="519" cy="-477" rx="44.6565" ry="18"/>
<text text-anchor="middle" x="519" y="-472.8" font-family="Times,serif" font-size="14.00">GET /add</text>
</g>
<!-- List View&#45;&gt;GET /add -->
<g id="edge6" class="edge"><title>List View&#45;&gt;GET /add</title>
<path fill="none" stroke="black" d="M315.599,-585.347C369.648,-579.073 439.787,-568.334 464,-553 480.603,-542.485 478.064,-532.855 489.676,-517 493.054,-512.387 496.69,-507.495 500.212,-502.792"/>
<polygon fill="black" stroke="black" points="503.136,-504.728 506.35,-494.632 497.542,-500.52 503.136,-504.728"/>
<text text-anchor="middle" x="536.662" y="-530.8" font-family="Times,serif" font-size="14.00">Click add button</text>
</g>
<!-- GET /edit -->
<g id="node13" class="node"><title>GET /edit</title>
<ellipse fill="lightgrey" stroke="black" cx="132" cy="-477" rx="45.141" ry="18"/>
<text text-anchor="middle" x="132" y="-472.8" font-family="Times,serif" font-size="14.00">GET /edit</text>
</g>
<!-- List View&#45;&gt;GET /edit -->
<g id="edge7" class="edge"><title>List View&#45;&gt;GET /edit</title>
<path fill="none" stroke="black" d="M181.896,-583.091C146.441,-576.76 107.644,-566.897 96.8965,-553 87.1081,-540.343 91.1639,-531.938 96.8965,-517 99.071,-511.334 102.491,-505.975 106.362,-501.148"/>
<polygon fill="black" stroke="black" points="109.09,-503.348 113.16,-493.565 103.878,-498.675 109.09,-503.348"/>
<text text-anchor="middle" x="144.052" y="-530.8" font-family="Times,serif" font-size="14.00">Click edit button</text>
</g>
<!-- Edit View -->
<g id="node3" class="node"><title>Edit View</title>
<ellipse fill="none" stroke="black" cx="184" cy="-383" rx="63.4164" ry="18"/>
<ellipse fill="none" stroke="black" cx="184" cy="-383" rx="67.4139" ry="22"/>
<text text-anchor="middle" x="184" y="-378.8" font-family="Times,serif" font-size="14.00">Edit View /edit</text>
</g>
<!-- Edit View&#45;&gt;List View -->
<g id="edge3" class="edge"><title>Edit View&#45;&gt;List View</title>
<path fill="none" stroke="black" stroke-dasharray="5,2" d="M185.541,-405.14C188.551,-438.004 196.97,-502.788 219,-553 220.494,-556.406 222.319,-559.81 224.312,-563.109"/>
<polygon fill="black" stroke="black" points="221.441,-565.112 229.875,-571.524 227.281,-561.252 221.441,-565.112"/>
</g>
<!-- Edit View&#45;&gt;GET /index -->
<g id="edge9" class="edge"><title>Edit View&#45;&gt;GET /index</title>
<path fill="none" stroke="black" d="M220.69,-364.32C230.858,-358.399 241.442,-351.19 250,-343 263.797,-329.795 258.214,-318.499 273.462,-307 290.087,-294.463 311.254,-286.372 330.797,-281.168"/>
<polygon fill="black" stroke="black" points="331.66,-284.561 340.533,-278.771 329.986,-277.764 331.66,-284.561"/>
<text text-anchor="middle" x="323.769" y="-320.8" font-family="Times,serif" font-size="14.00">Click back button</text>
</g>
<!-- POST /edit -->
<g id="node12" class="node"><title>POST /edit</title>
<ellipse fill="lightgrey" stroke="black" cx="212" cy="-271" rx="49.5103" ry="18"/>
<text text-anchor="middle" x="212" y="-266.8" font-family="Times,serif" font-size="14.00">POST /edit</text>
</g>
<!-- Edit View&#45;&gt;POST /edit -->
<g id="edge10" class="edge"><title>Edit View&#45;&gt;POST /edit</title>
<path fill="none" stroke="black" d="M154.628,-363.153C148.226,-357.508 142.314,-350.729 138.772,-343 132.108,-328.454 130.24,-320.535 138.772,-307 144.467,-297.967 153.207,-291.215 162.69,-286.185"/>
<polygon fill="black" stroke="black" points="164.352,-289.272 171.935,-281.872 161.393,-282.928 164.352,-289.272"/>
<text text-anchor="middle" x="194.614" y="-320.8" font-family="Times,serif" font-size="14.00">Click submit button</text>
</g>
<!-- Server Error -->
<g id="node4" class="node"><title>Server Error</title>
<ellipse fill="none" stroke="black" cx="61" cy="-22" rx="56.0509" ry="18"/>
<ellipse fill="none" stroke="black" cx="61" cy="-22" rx="60.0355" ry="22"/>
<text text-anchor="middle" x="61" y="-17.8" font-family="Times,serif" font-size="14.00">Server Error </text>
</g>
<!-- Show Confirm&#45;&gt;List View -->
<g id="edge12" class="edge"><title>Show Confirm&#45;&gt;List View</title>
<path fill="none" stroke="black" d="M388.625,-499.023C387.979,-515.672 384.389,-538.468 371,-553 358.485,-566.584 341.298,-575.468 323.706,-581.269"/>
<polygon fill="black" stroke="black" points="322.502,-577.976 313.917,-584.185 324.501,-584.684 322.502,-577.976"/>
<text text-anchor="middle" x="423.35" y="-530.8" font-family="Times,serif" font-size="14.00">Click Cancel</text>
</g>
<!-- POST /delete -->
<g id="node8" class="node"><title>POST /delete</title>
<ellipse fill="lightgrey" stroke="black" cx="565" cy="-325" rx="57.2113" ry="18"/>
<text text-anchor="middle" x="565" y="-320.8" font-family="Times,serif" font-size="14.00">POST /delete</text>
</g>
<!-- Show Confirm&#45;&gt;POST /delete -->
<g id="edge11" class="edge"><title>Show Confirm&#45;&gt;POST /delete</title>
<path fill="none" stroke="black" d="M411.504,-456.081C444.325,-428.267 503.727,-377.926 538.219,-348.696"/>
<polygon fill="black" stroke="black" points="540.641,-351.231 546.007,-342.095 536.116,-345.891 540.641,-351.231"/>
<text text-anchor="middle" x="478.026" y="-425.8" font-family="Times,serif" font-size="14.00">Click OK</text>
</g>
<!-- GET /add&#45;&gt;Add View -->
<g id="edge13" class="edge"><title>GET /add&#45;&gt;Add View</title>
<path fill="none" stroke="black" d="M550.494,-490.004C562.599,-496.223 575.339,-505.065 583,-517 597.198,-539.119 601.321,-612.125 602.516,-654.6"/>
<polygon fill="black" stroke="black" points="599.019,-654.78 602.761,-664.692 606.017,-654.61 599.019,-654.78"/>
</g>
<!-- Save -->
<g id="node7" class="node"><title>Save</title>
<ellipse fill="lightgrey" stroke="black" cx="61" cy="-112" rx="27.0958" ry="18"/>
<text text-anchor="middle" x="61" y="-107.8" font-family="Times,serif" font-size="14.00">Save</text>
</g>
<!-- Save&#45;&gt;List View -->
<g id="edge14" class="edge"><title>Save&#45;&gt;List View</title>
<path fill="none" stroke="black" d="M43.3563,-126.023C25.3407,-140.963 0,-167.262 0,-197 0,-478 0,-478 0,-478 0,-552.427 93.5972,-578.422 165.559,-587.408"/>
<polygon fill="black" stroke="black" points="165.221,-590.893 175.557,-588.567 166.027,-583.939 165.221,-590.893"/>
<text text-anchor="middle" x="22.1621" y="-320.8" font-family="Times,serif" font-size="14.00">Success</text>
</g>
<!-- Save&#45;&gt;Server Error -->
<g id="edge15" class="edge"><title>Save&#45;&gt;Server Error</title>
<path fill="none" stroke="black" d="M61,-93.614C61,-82.3893 61,-67.463 61,-54.2257"/>
<polygon fill="black" stroke="black" points="64.5001,-54.0747 61,-44.0747 57.5001,-54.0747 64.5001,-54.0747"/>
<text text-anchor="middle" x="102.002" y="-64.8" font-family="Times,serif" font-size="14.00">Database error</text>
</g>
<!-- Validate -->
<g id="node11" class="node"><title>Validate</title>
<ellipse fill="lightgrey" stroke="black" cx="212" cy="-198" rx="39.1627" ry="18"/>
<text text-anchor="middle" x="212" y="-193.8" font-family="Times,serif" font-size="14.00">Validate</text>
</g>
<!-- POST /delete&#45;&gt;Validate -->
<g id="edge16" class="edge"><title>POST /delete&#45;&gt;Validate</title>
<path fill="none" stroke="black" d="M543.482,-308.178C520.628,-292.082 482.915,-267.502 447,-253 384.618,-227.811 307.948,-212.967 259.512,-205.406"/>
<polygon fill="black" stroke="black" points="259.736,-201.9 249.323,-203.858 258.684,-208.82 259.736,-201.9"/>
</g>
<!-- POST /add&#45;&gt;Validate -->
<g id="edge17" class="edge"><title>POST /add&#45;&gt;Validate</title>
<path fill="none" stroke="black" d="M710.432,-517.149C717.541,-496.979 728,-462.03 728,-431 728,-431 728,-431 728,-270 728,-223.164 390.054,-205.635 261.148,-200.652"/>
<polygon fill="black" stroke="black" points="260.909,-197.14 250.784,-200.261 260.645,-204.135 260.909,-197.14"/>
</g>
<!-- GET /index&#45;&gt;List View -->
<g id="edge18" class="edge"><title>GET /index&#45;&gt;List View</title>
<path fill="none" stroke="black" d="M385.722,-289.271C384.138,-304.053 380.64,-325.635 373,-343 334.339,-430.876 274.937,-425.783 245,-517 240.436,-530.906 240.264,-547.052 241.507,-560.795"/>
<polygon fill="black" stroke="black" points="238.035,-561.237 242.685,-570.757 244.987,-560.416 238.035,-561.237"/>
</g>
<!-- Validate&#45;&gt;Add View -->
<g id="edge20" class="edge"><title>Validate&#45;&gt;Add View</title>
<path fill="none" stroke="black" d="M251.002,-199.717C380.194,-202.602 786,-215.966 786,-270 786,-594 786,-594 786,-594 786,-620.237 780.416,-630.521 760,-647 737.227,-665.382 706.981,-675.261 679.118,-680.514"/>
<polygon fill="black" stroke="black" points="678.247,-677.112 668.979,-682.247 679.426,-684.012 678.247,-677.112"/>
<text text-anchor="middle" x="805.828" y="-425.8" font-family="Times,serif" font-size="14.00">Invalid</text>
</g>
<!-- Validate&#45;&gt;List View -->
<g id="edge22" class="edge"><title>Validate&#45;&gt;List View</title>
<path fill="none" stroke="black" d="M172.996,-200.685C127.666,-204.982 59,-219.779 59,-270 59,-478 59,-478 59,-478 59,-513.581 60.3984,-529.371 87,-553 108.418,-572.024 137.58,-582.131 165.143,-587.387"/>
<polygon fill="black" stroke="black" points="164.761,-590.872 175.208,-589.111 165.943,-583.972 164.761,-590.872"/>
<text text-anchor="middle" x="78.8276" y="-378.8" font-family="Times,serif" font-size="14.00">Invalid</text>
</g>
<!-- Validate&#45;&gt;Edit View -->
<g id="edge21" class="edge"><title>Validate&#45;&gt;Edit View</title>
<path fill="none" stroke="black" d="M178.659,-207.563C155.883,-215.34 127.381,-229.316 113.345,-253 92.6051,-287.995 106.29,-309.945 130,-343 133.716,-348.18 138.335,-352.938 143.296,-357.214"/>
<polygon fill="black" stroke="black" points="141.277,-360.08 151.294,-363.531 145.616,-354.586 141.277,-360.08"/>
<text text-anchor="middle" x="133.828" y="-266.8" font-family="Times,serif" font-size="14.00">Invalid</text>
</g>
<!-- Validate&#45;&gt;Save -->
<g id="edge19" class="edge"><title>Validate&#45;&gt;Save</title>
<path fill="none" stroke="black" d="M188.074,-183.69C161.625,-168.977 119.001,-145.266 90.5037,-129.413"/>
<polygon fill="black" stroke="black" points="91.865,-126.165 81.4246,-124.362 88.462,-132.282 91.865,-126.165"/>
<text text-anchor="middle" x="160.776" y="-150.8" font-family="Times,serif" font-size="14.00">Valid</text>
</g>
<!-- POST /edit&#45;&gt;Validate -->
<g id="edge23" class="edge"><title>POST /edit&#45;&gt;Validate</title>
<path fill="none" stroke="black" d="M212,-252.813C212,-244.789 212,-235.047 212,-226.069"/>
<polygon fill="black" stroke="black" points="215.5,-226.029 212,-216.029 208.5,-226.029 215.5,-226.029"/>
</g>
<!-- GET /edit&#45;&gt;Edit View -->
<g id="edge24" class="edge"><title>GET /edit&#45;&gt;Edit View</title>
<path fill="none" stroke="black" d="M141.538,-459.126C148.676,-446.496 158.627,-428.89 167.102,-413.896"/>
<polygon fill="black" stroke="black" points="170.276,-415.394 172.15,-404.966 164.182,-411.95 170.276,-415.394"/>
</g>
</g>
</svg>
