<?xml version="1.0" encoding="UTF-8" standalone="no"?>
<!DOCTYPE svg PUBLIC "-//W3C//DTD SVG 1.1//EN"
 "http://www.w3.org/Graphics/SVG/1.1/DTD/svg11.dtd">
<!-- Generated by graphviz version 2.38.0 (20140413.2041)
 -->
<!-- Title: sample Pages: 1 -->
<svg width="755pt" height="576pt"
 viewBox="0.00 0.00 755.27 576.00" xmlns="http://www.w3.org/2000/svg" xmlns:xlink="http://www.w3.org/1999/xlink">
<g id="graph0" class="graph" transform="scale(1 1) rotate(0) translate(4 572)">
<title>sample</title>
<polygon fill="white" stroke="none" points="-4,4 -4,-572 751.267,-572 751.267,4 -4,4"/>
<text text-anchor="middle" x="373.634" y="-549.6" font-family="Times,serif" font-size="18.00">CRUD View Diagram</text>
<!-- List View -->
<g id="node1" class="node"><title>List View</title>
<ellipse fill="none" stroke="black" cx="378.267" cy="-520" rx="68.7341" ry="18"/>
<ellipse fill="none" stroke="black" cx="378.267" cy="-520" rx="72.7266" ry="22"/>
<text text-anchor="middle" x="378.267" y="-515.8" font-family="Times,serif" font-size="14.00">List View /index</text>
</g>
<!-- Show Confirm -->
<g id="node3" class="node"><title>Show Confirm</title>
<ellipse fill="none" stroke="black" cx="214.267" cy="-426" rx="64.3125" ry="18"/>
<ellipse fill="none" stroke="black" cx="214.267" cy="-426" rx="68.3219" ry="22"/>
<text text-anchor="middle" x="214.267" y="-421.8" font-family="Times,serif" font-size="14.00">Show Confirm </text>
</g>
<!-- List View&#45;&gt;Show Confirm -->
<g id="edge7" class="edge"><title>List View&#45;&gt;Show Confirm</title>
<path fill="none" stroke="black" d="M306.187,-516.339C247.798,-512.488 172.154,-503.064 152.736,-480 143.336,-468.835 151.599,-458.034 164.777,-449.128"/>
<polygon fill="black" stroke="black" points="166.764,-452.016 173.504,-443.841 163.137,-446.029 166.764,-452.016"/>
<text text-anchor="middle" x="206.533" y="-468.8" font-family="Times,serif" font-size="14.00">Click delete button</text>
</g>
<!-- Edit View -->
<g id="node4" class="node"><title>Edit View</title>
<ellipse fill="none" stroke="black" cx="537.267" cy="-116" rx="63.4164" ry="18"/>
<ellipse fill="none" stroke="black" cx="537.267" cy="-116" rx="67.4139" ry="22"/>
<text text-anchor="middle" x="537.267" y="-111.8" font-family="Times,serif" font-size="14.00">Edit View /edit</text>
</g>
<!-- List View&#45;&gt;Edit View -->
<g id="edge2" class="edge"><title>List View&#45;&gt;Edit View</title>
<path fill="none" stroke="black" stroke-dasharray="5,2" d="M438.201,-507.207C480.033,-495.31 528.267,-471.968 528.267,-427 528.267,-427 528.267,-427 528.267,-205 528.267,-186.201 528.267,-165.143 529.267,-148.341"/>
<polygon fill="black" stroke="black" points="532.787,-148.224 530.078,-137.981 525.808,-147.677 532.787,-148.224"/>
</g>
<!-- Add View -->
<g id="node5" class="node"><title>Add View</title>
<ellipse fill="none" stroke="black" cx="375.267" cy="-116" rx="63.4164" ry="18"/>
<ellipse fill="none" stroke="black" cx="375.267" cy="-116" rx="67.4139" ry="22"/>
<text text-anchor="middle" x="375.267" y="-111.8" font-family="Times,serif" font-size="14.00">Add View /add</text>
</g>
<!-- List View&#45;&gt;Add View -->
<g id="edge1" class="edge"><title>List View&#45;&gt;Add View</title>
<path fill="none" stroke="black" stroke-dasharray="5,2" d="M371.496,-497.64C367.685,-468.55 366.267,-414.842 366.267,-369 366.267,-369 366.267,-369 366.267,-205 366.267,-186.201 366.267,-165.143 367.267,-148.341"/>
<polygon fill="black" stroke="black" points="370.787,-148.224 368.078,-137.981 363.808,-147.677 370.787,-148.224"/>
</g>
<!-- GET /edit -->
<g id="node6" class="node"><title>GET /edit</title>
<ellipse fill="lightgrey" stroke="black" cx="606.267" cy="-260" rx="45.141" ry="18"/>
<text text-anchor="middle" x="606.267" y="-255.8" font-family="Times,serif" font-size="14.00">GET /edit</text>
</g>
<!-- List View&#45;&gt;GET /edit -->
<g id="edge6" class="edge"><title>List View&#45;&gt;GET /edit</title>
<path fill="none" stroke="black" d="M446.676,-512.106C491.37,-506.189 544.305,-496.027 560.267,-480 611.791,-428.267 612.456,-334.465 609.168,-288.242"/>
<polygon fill="black" stroke="black" points="612.64,-287.764 608.325,-278.088 605.664,-288.344 612.64,-287.764"/>
<text text-anchor="middle" x="647.319" y="-421.8" font-family="Times,serif" font-size="14.00">Click edit button</text>
</g>
<!-- GET /add -->
<g id="node8" class="node"><title>GET /add</title>
<ellipse fill="lightgrey" stroke="black" cx="456.267" cy="-368" rx="44.6565" ry="18"/>
<text text-anchor="middle" x="456.267" y="-363.8" font-family="Times,serif" font-size="14.00">GET /add</text>
</g>
<!-- List View&#45;&gt;GET /add -->
<g id="edge5" class="edge"><title>List View&#45;&gt;GET /add</title>
<path fill="none" stroke="black" d="M389.113,-498.143C403.103,-471.239 427.444,-424.43 442.66,-395.167"/>
<polygon fill="black" stroke="black" points="445.935,-396.457 447.443,-385.97 439.724,-393.227 445.935,-396.457"/>
<text text-anchor="middle" x="452.929" y="-468.8" font-family="Times,serif" font-size="14.00">Click add button</text>
</g>
<!-- Server Error -->
<g id="node2" class="node"><title>Server Error</title>
<ellipse fill="none" stroke="black" cx="60.2673" cy="-22" rx="56.0509" ry="18"/>
<ellipse fill="none" stroke="black" cx="60.2673" cy="-22" rx="60.0355" ry="22"/>
<text text-anchor="middle" x="60.2673" y="-17.8" font-family="Times,serif" font-size="14.00">Server Error </text>
</g>
<!-- Show Confirm&#45;&gt;List View -->
<g id="edge9" class="edge"><title>Show Confirm&#45;&gt;List View</title>
<path fill="none" stroke="black" d="M236.546,-446.808C249.387,-457.56 266.188,-470.547 282.567,-480 294.946,-487.145 308.888,-493.619 322.222,-499.149"/>
<polygon fill="black" stroke="black" points="321.208,-502.514 331.792,-503.005 323.824,-496.021 321.208,-502.514"/>
<text text-anchor="middle" x="319.617" y="-468.8" font-family="Times,serif" font-size="14.00">Click Cancel</text>
</g>
<!-- POST /delete -->
<g id="node11" class="node"><title>POST /delete</title>
<ellipse fill="lightgrey" stroke="black" cx="210.267" cy="-314" rx="57.2113" ry="18"/>
<text text-anchor="middle" x="210.267" y="-309.8" font-family="Times,serif" font-size="14.00">POST /delete</text>
</g>
<!-- Show Confirm&#45;&gt;POST /delete -->
<g id="edge8" class="edge"><title>Show Confirm&#45;&gt;POST /delete</title>
<path fill="none" stroke="black" d="M213.496,-403.791C212.859,-386.278 211.951,-361.304 211.26,-342.3"/>
<polygon fill="black" stroke="black" points="214.753,-342.039 210.892,-332.172 207.758,-342.293 214.753,-342.039"/>
<text text-anchor="middle" x="240.293" y="-363.8" font-family="Times,serif" font-size="14.00">Click OK</text>
</g>
<!-- Edit View&#45;&gt;List View -->
<g id="edge3" class="edge"><title>Edit View&#45;&gt;List View</title>
<path fill="none" stroke="black" stroke-dasharray="5,2" d="M544.457,-137.981C546.267,-155.81 546.267,-182.083 546.267,-205 546.267,-427 546.267,-427 546.267,-427 546.267,-472.014 497.935,-495.357 453.057,-507.243"/>
<polygon fill="black" stroke="black" points="452.115,-503.871 443.254,-509.679 453.803,-510.664 452.115,-503.871"/>
</g>
<!-- GET /index -->
<g id="node12" class="node"><title>GET /index</title>
<ellipse fill="lightgrey" stroke="black" cx="632.267" cy="-22" rx="51.4139" ry="18"/>
<text text-anchor="middle" x="632.267" y="-17.8" font-family="Times,serif" font-size="14.00">GET /index</text>
</g>
<!-- Edit View&#45;&gt;GET /index -->
<g id="edge10" class="edge"><title>Edit View&#45;&gt;GET /index</title>
<path fill="none" stroke="black" d="M579.343,-98.7564C590.49,-92.8999 601.771,-85.365 610.267,-76 616.882,-68.709 621.668,-59.1502 625.051,-50.1606"/>
<polygon fill="black" stroke="black" points="628.461,-50.9976 628.298,-40.4041 621.82,-48.7872 628.461,-50.9976"/>
<text text-anchor="middle" x="668.036" y="-64.8" font-family="Times,serif" font-size="14.00">Click back button</text>
</g>
<!-- POST /edit -->
<g id="node13" class="node"><title>POST /edit</title>
<ellipse fill="lightgrey" stroke="black" cx="415.267" cy="-22" rx="49.5103" ry="18"/>
<text text-anchor="middle" x="415.267" y="-17.8" font-family="Times,serif" font-size="14.00">POST /edit</text>
</g>
<!-- Edit View&#45;&gt;POST /edit -->
<g id="edge11" class="edge"><title>Edit View&#45;&gt;POST /edit</title>
<path fill="none" stroke="black" d="M515.891,-95.0633C504.471,-84.7675 489.974,-72.2501 476.267,-62 467.571,-55.4968 457.797,-48.9414 448.664,-43.1096"/>
<polygon fill="black" stroke="black" points="450.488,-40.1225 440.159,-37.7654 446.764,-46.0495 450.488,-40.1225"/>
<text text-anchor="middle" x="549.881" y="-64.8" font-family="Times,serif" font-size="14.00">Click submit button</text>
</g>
<!-- Add View&#45;&gt;List View -->
<g id="edge4" class="edge"><title>Add View&#45;&gt;List View</title>
<path fill="none" stroke="black" stroke-dasharray="5,2" d="M382.457,-137.981C384.267,-155.81 384.267,-182.083 384.267,-205 384.267,-369 384.267,-369 384.267,-369 384.267,-410.008 385.402,-457.309 384.182,-487.653"/>
<polygon fill="black" stroke="black" points="380.687,-487.467 383.647,-497.64 387.677,-487.842 380.687,-487.467"/>
</g>
<!-- POST /add -->
<g id="node9" class="node"><title>POST /add</title>
<ellipse fill="lightgrey" stroke="black" cx="214.267" cy="-22" rx="49.0258" ry="18"/>
<text text-anchor="middle" x="214.267" y="-17.8" font-family="Times,serif" font-size="14.00">POST /add</text>
</g>
<!-- Add View&#45;&gt;POST /add -->
<g id="edge13" class="edge"><title>Add View&#45;&gt;POST /add</title>
<path fill="none" stroke="black" d="M313.017,-107.431C288.782,-101.927 262.08,-92.4204 242.04,-76 233.691,-69.1588 227.544,-59.1398 223.187,-49.6496"/>
<polygon fill="black" stroke="black" points="226.307,-48.0333 219.277,-40.1067 219.83,-50.6871 226.307,-48.0333"/>
<text text-anchor="middle" x="297.881" y="-64.8" font-family="Times,serif" font-size="14.00">Click submit button</text>
</g>
<!-- Add View&#45;&gt;GET /index -->
<g id="edge12" class="edge"><title>Add View&#45;&gt;GET /index</title>
<path fill="none" stroke="black" d="M367.938,-93.901C365.634,-83.1572 365.336,-70.5867 372.729,-62 376.026,-58.1714 499.393,-40.9199 574.832,-30.6881"/>
<polygon fill="black" stroke="black" points="575.701,-34.1025 585.141,-29.293 574.762,-27.1657 575.701,-34.1025"/>
<text text-anchor="middle" x="423.036" y="-64.8" font-family="Times,serif" font-size="14.00">Click back button</text>
</g>
<!-- GET /edit&#45;&gt;Edit View -->
<g id="edge14" class="edge"><title>GET /edit&#45;&gt;Edit View</title>
<path fill="none" stroke="black" d="M599.351,-241.954C590.811,-221.299 575.536,-185.586 560.267,-156 558.669,-152.903 556.934,-149.708 555.158,-146.543"/>
<polygon fill="black" stroke="black" points="558.149,-144.723 550.123,-137.806 552.084,-148.218 558.149,-144.723"/>
</g>
<!-- Save -->
<g id="node7" class="node"><title>Save</title>
<ellipse fill="lightgrey" stroke="black" cx="60.2673" cy="-116" rx="27.0958" ry="18"/>
<text text-anchor="middle" x="60.2673" y="-111.8" font-family="Times,serif" font-size="14.00">Save</text>
</g>
<!-- Save&#45;&gt;List View -->
<g id="edge15" class="edge"><title>Save&#45;&gt;List View</title>
<path fill="none" stroke="black" d="M55.9143,-134.072C51.8046,-151.709 46.2673,-180.093 46.2673,-205 46.2673,-427 46.2673,-427 46.2673,-427 46.2673,-479.062 199.8,-502.861 298.05,-512.761"/>
<polygon fill="black" stroke="black" points="297.971,-516.27 308.264,-513.761 298.653,-509.303 297.971,-516.27"/>
<text text-anchor="middle" x="68.4294" y="-309.8" font-family="Times,serif" font-size="14.00">Success</text>
</g>
<!-- Save&#45;&gt;Server Error -->
<g id="edge16" class="edge"><title>Save&#45;&gt;Server Error</title>
<path fill="none" stroke="black" d="M60.2673,-97.6955C60.2673,-85.4651 60.2673,-68.7287 60.2673,-54.1979"/>
<polygon fill="black" stroke="black" points="63.7674,-54.103 60.2673,-44.1031 56.7674,-54.1031 63.7674,-54.103"/>
<text text-anchor="middle" x="101.269" y="-64.8" font-family="Times,serif" font-size="14.00">Database error</text>
</g>
<!-- GET /add&#45;&gt;Add View -->
<g id="edge17" class="edge"><title>GET /add&#45;&gt;Add View</title>
<path fill="none" stroke="black" d="M459.095,-349.883C464.45,-311.87 472.378,-218.821 434.267,-156 430.716,-150.146 425.912,-144.991 420.57,-140.51"/>
<polygon fill="black" stroke="black" points="422.543,-137.615 412.441,-134.422 418.347,-143.218 422.543,-137.615"/>
</g>
<!-- Validate -->
<g id="node10" class="node"><title>Validate</title>
<ellipse fill="lightgrey" stroke="black" cx="208.267" cy="-206" rx="39.1627" ry="18"/>
<text text-anchor="middle" x="208.267" y="-201.8" font-family="Times,serif" font-size="14.00">Validate</text>
</g>
<!-- POST /add&#45;&gt;Validate -->
<g id="edge18" class="edge"><title>POST /add&#45;&gt;Validate</title>
<path fill="none" stroke="black" d="M203.452,-39.7843C199.774,-46.4286 196.125,-54.3075 194.267,-62 183.001,-108.659 185.19,-122.866 194.267,-170 194.824,-172.892 195.618,-175.849 196.548,-178.758"/>
<polygon fill="black" stroke="black" points="193.33,-180.146 200.089,-188.304 199.893,-177.711 193.33,-180.146"/>
</g>
<!-- Validate&#45;&gt;List View -->
<g id="edge22" class="edge"><title>Validate&#45;&gt;List View</title>
<path fill="none" stroke="black" d="M192.638,-222.756C177.252,-239.39 154.603,-267.155 144.267,-296 143.444,-298.296 112.36,-449.599 145.267,-480 167.008,-500.085 238.299,-509.919 296.356,-514.677"/>
<polygon fill="black" stroke="black" points="296.415,-518.192 306.656,-515.48 296.959,-511.213 296.415,-518.192"/>
<text text-anchor="middle" x="155.095" y="-363.8" font-family="Times,serif" font-size="14.00">Invalid</text>
</g>
<!-- Validate&#45;&gt;Edit View -->
<g id="edge21" class="edge"><title>Validate&#45;&gt;Edit View</title>
<path fill="none" stroke="black" d="M241.351,-196.36C268.271,-189.314 307.24,-179.078 341.267,-170 386.758,-157.864 438.133,-143.965 476.87,-133.445"/>
<polygon fill="black" stroke="black" points="478.206,-136.709 486.938,-130.71 476.37,-129.954 478.206,-136.709"/>
<text text-anchor="middle" x="410.095" y="-158.8" font-family="Times,serif" font-size="14.00">Invalid</text>
</g>
<!-- Validate&#45;&gt;Add View -->
<g id="edge20" class="edge"><title>Validate&#45;&gt;Add View</title>
<path fill="none" stroke="black" d="M232.909,-192.015C258.921,-178.308 300.439,-156.431 331.941,-139.831"/>
<polygon fill="black" stroke="black" points="333.737,-142.84 340.953,-135.082 330.474,-136.647 333.737,-142.84"/>
<text text-anchor="middle" x="317.095" y="-158.8" font-family="Times,serif" font-size="14.00">Invalid</text>
</g>
<!-- Validate&#45;&gt;Save -->
<g id="edge19" class="edge"><title>Validate&#45;&gt;Save</title>
<path fill="none" stroke="black" d="M178.27,-194.356C162.438,-188.193 142.976,-179.733 126.716,-170 111.24,-160.737 95.3944,-148.238 83.0602,-137.704"/>
<polygon fill="black" stroke="black" points="85.3404,-135.048 75.5011,-131.119 80.7425,-140.327 85.3404,-135.048"/>
<text text-anchor="middle" x="142.043" y="-158.8" font-family="Times,serif" font-size="14.00">Valid</text>
</g>
<!-- POST /delete&#45;&gt;Validate -->
<g id="edge23" class="edge"><title>POST /delete&#45;&gt;Validate</title>
<path fill="none" stroke="black" d="M209.946,-295.969C209.633,-279.378 209.152,-253.883 208.785,-234.431"/>
<polygon fill="black" stroke="black" points="212.283,-234.273 208.594,-224.341 205.284,-234.405 212.283,-234.273"/>
</g>
<!-- GET /index&#45;&gt;List View -->
<g id="edge24" class="edge"><title>GET /index&#45;&gt;List View</title>
<path fill="none" stroke="black" d="M672.203,-33.3795C689.29,-39.444 708.446,-48.6117 722.267,-62 740.974,-80.1208 747.267,-88.9554 747.267,-115 747.267,-427 747.267,-427 747.267,-427 747.267,-485.764 568.855,-507.288 460.146,-514.948"/>
<polygon fill="black" stroke="black" points="459.592,-511.478 449.852,-515.647 460.066,-518.462 459.592,-511.478"/>
</g>
<!-- POST /edit&#45;&gt;Validate -->
<g id="edge25" class="edge"><title>POST /edit&#45;&gt;Validate</title>
<path fill="none" stroke="black" d="M370.062,-29.5923C317.594,-37.6696 236.972,-51.5653 227.267,-62 198.305,-93.1404 199.405,-145.885 203.429,-177.873"/>
<polygon fill="black" stroke="black" points="199.978,-178.465 204.866,-187.864 206.906,-177.468 199.978,-178.465"/>
</g>
</g>
</svg>
