<?xml version="1.0" encoding="UTF-8" standalone="no"?>
<!DOCTYPE svg PUBLIC "-//W3C//DTD SVG 1.1//EN"
 "http://www.w3.org/Graphics/SVG/1.1/DTD/svg11.dtd">
<!-- Generated by graphviz version 2.38.0 (20140413.2041)
 -->
<!-- Title: sample Pages: 1 -->
<svg width="1177pt" height="724pt"
 viewBox="0.00 0.00 1176.58 723.78" xmlns="http://www.w3.org/2000/svg" xmlns:xlink="http://www.w3.org/1999/xlink">
<g id="graph0" class="graph" transform="scale(1 1) rotate(0) translate(4 719.783)">
<title>sample</title>
<polygon fill="white" stroke="none" points="-4,4 -4,-719.783 1172.58,-719.783 1172.58,4 -4,4"/>
<text text-anchor="middle" x="584.288" y="-697.383" font-family="Times,serif" font-size="18.00">画面遷移図例</text>
<!-- サーバエラー画面 -->
<g id="node1" class="node"><title>サーバエラー画面</title>
<ellipse fill="none" stroke="black" cx="96.1926" cy="-556.978" rx="92.3775" ry="21.6196"/>
<ellipse fill="none" stroke="black" cx="96.1926" cy="-556.978" rx="96.3856" ry="25.5878"/>
<text text-anchor="middle" x="96.1926" y="-557.188" font-family="Times,serif" font-size="14.00">サーバエラー画面 </text>
</g>
<!-- 確認ダイアログを表示 -->
<g id="node2" class="node"><title>確認ダイアログを表示</title>
<ellipse fill="none" stroke="black" cx="531.193" cy="-448.392" rx="111.393" ry="21.6196"/>
<ellipse fill="none" stroke="black" cx="531.193" cy="-448.392" rx="115.4" ry="25.5878"/>
<text text-anchor="middle" x="531.193" y="-448.602" font-family="Times,serif" font-size="14.00">確認ダイアログを表示 </text>
</g>
<!-- 一覧画面 -->
<g id="node5" class="node"><title>一覧画面</title>
<ellipse fill="none" stroke="black" cx="795.193" cy="-556.978" rx="78.2548" ry="21.6196"/>
<ellipse fill="none" stroke="black" cx="795.193" cy="-556.978" rx="82.2611" ry="25.5878"/>
<text text-anchor="middle" x="795.193" y="-557.188" font-family="Times,serif" font-size="14.00">一覧画面 /index</text>
</g>
<!-- 確認ダイアログを表示&#45;&gt;一覧画面 -->
<g id="edge5" class="edge"><title>確認ダイアログを表示&#45;&gt;一覧画面</title>
<path fill="none" stroke="black" d="M549.443,-473.965C561.603,-489.679 576.898,-508.044 585.613,-513.185 621.287,-534.229 665.658,-545.059 704.375,-550.581"/>
<polygon fill="black" stroke="black" points="704.236,-554.093 714.61,-551.937 705.156,-547.154 704.236,-554.093"/>
<text text-anchor="middle" x="655.983" y="-501.985" font-family="Times,serif" font-size="14.00">キャンセルをクリック</text>
</g>
<!-- POST /delete -->
<g id="node10" class="node"><title>POST /delete</title>
<ellipse fill="lightgrey" stroke="black" cx="526.193" cy="-332.598" rx="57.2113" ry="18"/>
<text text-anchor="middle" x="526.193" y="-328.398" font-family="Times,serif" font-size="14.00">POST /delete</text>
</g>
<!-- 確認ダイアログを表示&#45;&gt;POST /delete -->
<g id="edge4" class="edge"><title>確認ダイアログを表示&#45;&gt;POST /delete</title>
<path fill="none" stroke="black" d="M530.095,-422.419C529.297,-404.262 528.218,-379.692 527.396,-360.996"/>
<polygon fill="black" stroke="black" points="530.882,-360.596 526.947,-350.76 523.889,-360.904 530.882,-360.596"/>
<text text-anchor="middle" x="579.193" y="-385.898" font-family="Times,serif" font-size="14.00">ＯＫをクリック</text>
</g>
<!-- 編集画面 -->
<g id="node3" class="node"><title>編集画面</title>
<ellipse fill="none" stroke="black" cx="676.193" cy="-118.793" rx="70.9637" ry="21.6196"/>
<ellipse fill="none" stroke="black" cx="676.193" cy="-118.793" rx="74.9627" ry="25.5878"/>
<text text-anchor="middle" x="676.193" y="-119.003" font-family="Times,serif" font-size="14.00">編集画面 /edit</text>
</g>
<!-- 編集画面&#45;&gt;一覧画面 -->
<g id="edge1" class="edge"><title>編集画面&#45;&gt;一覧画面</title>
<path fill="none" stroke="black" stroke-dasharray="5,2" d="M738.442,-133.242C780.28,-142.82 829.046,-155.248 836.193,-162.586 854.847,-181.74 850.193,-194.355 850.193,-221.092 850.193,-449.392 850.193,-449.392 850.193,-449.392 850.193,-476.539 835.928,-503.68 821.927,-523.78"/>
<polygon fill="black" stroke="black" points="819.041,-521.798 815.986,-531.943 824.701,-525.917 819.041,-521.798"/>
</g>
<!-- POST /edit -->
<g id="node7" class="node"><title>POST /edit</title>
<ellipse fill="lightgrey" stroke="black" cx="489.193" cy="-18" rx="49.5103" ry="18"/>
<text text-anchor="middle" x="489.193" y="-13.8" font-family="Times,serif" font-size="14.00">POST /edit</text>
</g>
<!-- 編集画面&#45;&gt;POST /edit -->
<g id="edge7" class="edge"><title>編集画面&#45;&gt;POST /edit</title>
<path fill="none" stroke="black" d="M606.704,-108.807C579.442,-102.666 549.124,-92.3427 525.613,-75 515.146,-67.2794 506.86,-55.5761 500.853,-44.8613"/>
<polygon fill="black" stroke="black" points="503.876,-43.0884 496.163,-35.8246 497.663,-46.3128 503.876,-43.0884"/>
<text text-anchor="middle" x="595.983" y="-63.8" font-family="Times,serif" font-size="14.00">登録ボタンをクリック</text>
</g>
<!-- GET /index -->
<g id="node8" class="node"><title>GET /index</title>
<ellipse fill="lightgrey" stroke="black" cx="1013.19" cy="-18" rx="51.4139" ry="18"/>
<text text-anchor="middle" x="1013.19" y="-13.8" font-family="Times,serif" font-size="14.00">GET /index</text>
</g>
<!-- 編集画面&#45;&gt;GET /index -->
<g id="edge6" class="edge"><title>編集画面&#45;&gt;GET /index</title>
<path fill="none" stroke="black" d="M672.705,-92.7517C672.338,-79.4347 674.535,-63.8273 684.613,-54 694.101,-44.7468 861.153,-30.6116 953.314,-23.4666"/>
<polygon fill="black" stroke="black" points="953.649,-26.9512 963.351,-22.6931 953.111,-19.9719 953.649,-26.9512"/>
<text text-anchor="middle" x="754.983" y="-63.8" font-family="Times,serif" font-size="14.00">戻るボタンをクリック</text>
</g>
<!-- 新規作成画面 -->
<g id="node4" class="node"><title>新規作成画面</title>
<ellipse fill="none" stroke="black" cx="897.193" cy="-118.793" rx="90.4494" ry="21.6196"/>
<ellipse fill="none" stroke="black" cx="897.193" cy="-118.793" rx="94.4592" ry="25.5878"/>
<text text-anchor="middle" x="897.193" y="-119.003" font-family="Times,serif" font-size="14.00">新規作成画面 /add</text>
</g>
<!-- 新規作成画面&#45;&gt;一覧画面 -->
<g id="edge2" class="edge"><title>新規作成画面&#45;&gt;一覧画面</title>
<path fill="none" stroke="black" stroke-dasharray="5,2" d="M904.454,-144.771C906.193,-165.274 906.193,-195.064 906.193,-221.092 906.193,-449.392 906.193,-449.392 906.193,-449.392 906.193,-481.313 894.87,-489.753 873.193,-513.185 867.344,-519.506 860.358,-525.248 852.987,-530.326"/>
<polygon fill="black" stroke="black" points="850.719,-527.623 844.203,-535.978 854.506,-533.51 850.719,-527.623"/>
</g>
<!-- 新規作成画面&#45;&gt;GET /index -->
<g id="edge8" class="edge"><title>新規作成画面&#45;&gt;GET /index</title>
<path fill="none" stroke="black" d="M957.349,-98.74C969.72,-92.6759 981.815,-84.8875 991.193,-75 998.848,-66.9286 1003.94,-55.881 1007.28,-45.7304"/>
<polygon fill="black" stroke="black" points="1010.67,-46.5996 1010.06,-36.0222 1003.94,-44.6706 1010.67,-46.5996"/>
<text text-anchor="middle" x="1073.98" y="-63.8" font-family="Times,serif" font-size="14.00">戻るボタンをクリック</text>
</g>
<!-- POST /add -->
<g id="node11" class="node"><title>POST /add</title>
<ellipse fill="lightgrey" stroke="black" cx="728.193" cy="-18" rx="49.0258" ry="18"/>
<text text-anchor="middle" x="728.193" y="-13.8" font-family="Times,serif" font-size="14.00">POST /add</text>
</g>
<!-- 新規作成画面&#45;&gt;POST /add -->
<g id="edge9" class="edge"><title>新規作成画面&#45;&gt;POST /add</title>
<path fill="none" stroke="black" d="M868.647,-94.1135C861.631,-88.0341 854.236,-81.4 847.613,-75 838.471,-66.1663 838.822,-60.9728 828.193,-54 813.15,-44.1325 795.006,-36.696 778.325,-31.2734"/>
<polygon fill="black" stroke="black" points="779.294,-27.9098 768.707,-28.3102 777.233,-34.5995 779.294,-27.9098"/>
<text text-anchor="middle" x="917.983" y="-63.8" font-family="Times,serif" font-size="14.00">登録ボタンをクリック</text>
</g>
<!-- 一覧画面&#45;&gt;確認ダイアログを表示 -->
<g id="edge12" class="edge"><title>一覧画面&#45;&gt;確認ダイアログを表示</title>
<path fill="none" stroke="black" d="M714.365,-552.317C610.631,-546.775 441.679,-534.566 422.613,-513.185 407.323,-496.038 422.877,-482.22 446.532,-471.887"/>
<polygon fill="black" stroke="black" points="447.977,-475.078 455.947,-468.097 445.363,-468.584 447.977,-475.078"/>
<text text-anchor="middle" x="492.983" y="-501.985" font-family="Times,serif" font-size="14.00">削除ボタンをクリック</text>
</g>
<!-- 一覧画面&#45;&gt;新規作成画面 -->
<g id="edge3" class="edge"><title>一覧画面&#45;&gt;新規作成画面</title>
<path fill="none" stroke="black" stroke-dasharray="5,2" d="M830.706,-533.455C839.355,-527.647 848.109,-520.842 855.193,-513.185 876.87,-489.753 888.193,-481.313 888.193,-449.392 888.193,-449.392 888.193,-449.392 888.193,-221.092 888.193,-199.131 888.193,-174.491 889.237,-155.012"/>
<polygon fill="black" stroke="black" points="892.747,-154.985 889.932,-144.771 885.763,-154.511 892.747,-154.985"/>
</g>
<!-- GET /add -->
<g id="node6" class="node"><title>GET /add</title>
<ellipse fill="lightgrey" stroke="black" cx="966.193" cy="-386.598" rx="44.6565" ry="18"/>
<text text-anchor="middle" x="966.193" y="-382.398" font-family="Times,serif" font-size="14.00">GET /add</text>
</g>
<!-- 一覧画面&#45;&gt;GET /add -->
<g id="edge10" class="edge"><title>一覧画面&#45;&gt;GET /add</title>
<path fill="none" stroke="black" d="M865.773,-543.655C885.391,-537.309 905.359,-527.706 920.193,-513.185 947.264,-486.683 958.513,-442.95 963.112,-414.715"/>
<polygon fill="black" stroke="black" points="966.59,-415.12 964.568,-404.72 959.663,-414.111 966.59,-415.12"/>
<text text-anchor="middle" x="1019.98" y="-501.985" font-family="Times,serif" font-size="14.00">新規作成ボタンをクリック</text>
</g>
<!-- GET /edit -->
<g id="node9" class="node"><title>GET /edit</title>
<ellipse fill="lightgrey" stroke="black" cx="679.193" cy="-278.598" rx="45.141" ry="18"/>
<text text-anchor="middle" x="679.193" y="-274.398" font-family="Times,serif" font-size="14.00">GET /edit</text>
</g>
<!-- 一覧画面&#45;&gt;GET /edit -->
<g id="edge11" class="edge"><title>一覧画面&#45;&gt;GET /edit</title>
<path fill="none" stroke="black" d="M771.174,-532.131C758.074,-519.638 741.286,-504.433 725.193,-492.185 713.247,-483.093 704.446,-486.99 696.613,-474.185 664.673,-421.974 669.106,-346.683 674.504,-306.793"/>
<polygon fill="black" stroke="black" points="677.987,-307.163 675.986,-296.759 671.062,-306.14 677.987,-307.163"/>
<text text-anchor="middle" x="766.983" y="-447.692" font-family="Times,serif" font-size="14.00">編集ボタンをクリック</text>
</g>
<!-- GET /add&#45;&gt;新規作成画面 -->
<g id="edge13" class="edge"><title>GET /add&#45;&gt;新規作成画面</title>
<path fill="none" stroke="black" d="M964.36,-368.352C959.945,-330.273 947.042,-236.532 920.193,-162.586 919.133,-159.668 917.902,-156.704 916.572,-153.768"/>
<polygon fill="black" stroke="black" points="919.612,-152.016 912.07,-144.574 913.325,-155.095 919.612,-152.016"/>
</g>
<!-- バリデーション -->
<g id="node12" class="node"><title>バリデーション</title>
<ellipse fill="lightgrey" stroke="black" cx="491.193" cy="-222.092" rx="80.429" ry="20.5123"/>
<text text-anchor="middle" x="491.193" y="-221.392" font-family="Times,serif" font-size="14.00">バリデーション</text>
</g>
<!-- POST /edit&#45;&gt;バリデーション -->
<g id="edge14" class="edge"><title>POST /edit&#45;&gt;バリデーション</title>
<path fill="none" stroke="black" d="M482.051,-36.1534C480.067,-41.743 478.185,-48.044 477.193,-54 467.724,-110.81 466.959,-126.909 477.193,-183.586 477.685,-186.314 478.364,-189.101 479.159,-191.864"/>
<polygon fill="black" stroke="black" points="475.928,-193.24 482.422,-201.611 482.566,-191.018 475.928,-193.24"/>
</g>
<!-- GET /index&#45;&gt;一覧画面 -->
<g id="edge15" class="edge"><title>GET /index&#45;&gt;一覧画面</title>
<path fill="none" stroke="black" d="M1064.18,-20.5214C1092.25,-23.9602 1125.82,-32.7251 1148.19,-54 1169.72,-74.4772 1168.19,-88.0799 1168.19,-117.793 1168.19,-449.392 1168.19,-449.392 1168.19,-449.392 1168.19,-488.314 1142.79,-495.351 1108.19,-513.185 1070.46,-532.635 963.913,-544.21 885.571,-550.321"/>
<polygon fill="black" stroke="black" points="884.903,-546.862 875.198,-551.112 885.435,-553.842 884.903,-546.862"/>
</g>
<!-- GET /edit&#45;&gt;編集画面 -->
<g id="edge16" class="edge"><title>GET /edit&#45;&gt;編集画面</title>
<path fill="none" stroke="black" d="M678.866,-260.41C678.386,-235.182 677.481,-187.574 676.858,-154.795"/>
<polygon fill="black" stroke="black" points="680.356,-154.652 676.666,-144.72 673.357,-154.785 680.356,-154.652"/>
</g>
<!-- POST /delete&#45;&gt;バリデーション -->
<g id="edge17" class="edge"><title>POST /delete&#45;&gt;バリデーション</title>
<path fill="none" stroke="black" d="M520.724,-314.644C515.362,-298.022 507.08,-272.345 500.649,-252.409"/>
<polygon fill="black" stroke="black" points="503.972,-251.311 497.571,-242.868 497.31,-253.459 503.972,-251.311"/>
</g>
<!-- POST /add&#45;&gt;バリデーション -->
<g id="edge18" class="edge"><title>POST /add&#45;&gt;バリデーション</title>
<path fill="none" stroke="black" d="M681.227,-23.289C619.375,-29.3991 517.022,-41.286 505.193,-54 470.902,-90.8562 476.55,-154.165 483.826,-191.371"/>
<polygon fill="black" stroke="black" points="480.492,-192.52 485.992,-201.575 487.34,-191.066 480.492,-192.52"/>
</g>
<!-- バリデーション&#45;&gt;編集画面 -->
<g id="edge21" class="edge"><title>バリデーション&#45;&gt;編集画面</title>
<path fill="none" stroke="black" d="M501.796,-201.679C509.716,-188.871 521.657,-172.657 536.193,-162.586 555.21,-149.41 578.404,-140.194 600.401,-133.787"/>
<polygon fill="black" stroke="black" points="601.358,-137.154 610.07,-131.124 599.499,-130.405 601.358,-137.154"/>
<text text-anchor="middle" x="599.193" y="-172.386" font-family="Times,serif" font-size="14.00">入力値が不正な場合</text>
</g>
<!-- バリデーション&#45;&gt;新規作成画面 -->
<g id="edge20" class="edge"><title>バリデーション&#45;&gt;新規作成画面</title>
<path fill="none" stroke="black" d="M552.539,-208.858C586.202,-201.915 628.619,-192.792 666.193,-183.586 719.652,-170.488 779.548,-153.891 824.951,-140.91"/>
<polygon fill="black" stroke="black" points="826.056,-144.234 834.703,-138.113 824.126,-137.505 826.056,-144.234"/>
<text text-anchor="middle" x="812.193" y="-172.386" font-family="Times,serif" font-size="14.00">入力値が不正な場合</text>
</g>
<!-- バリデーション&#45;&gt;一覧画面 -->
<g id="edge22" class="edge"><title>バリデーション&#45;&gt;一覧画面</title>
<path fill="none" stroke="black" d="M473.573,-242.45C450.966,-268.736 412.911,-318.239 398.193,-368.598 380.068,-430.609 366.581,-468.45 413.193,-513.185 433.803,-532.965 597.736,-545.429 704.048,-551.515"/>
<polygon fill="black" stroke="black" points="703.968,-555.016 714.15,-552.084 704.362,-548.027 703.968,-555.016"/>
<text text-anchor="middle" x="461.193" y="-385.898" font-family="Times,serif" font-size="14.00">入力値が不正な場合</text>
</g>
<!-- 保存 -->
<g id="node13" class="node"><title>保存</title>
<ellipse fill="lightgrey" stroke="black" cx="234.193" cy="-660.277" rx="31.2258" ry="20.5123"/>
<text text-anchor="middle" x="234.193" y="-659.577" font-family="Times,serif" font-size="14.00">保存</text>
</g>
<!-- バリデーション&#45;&gt;保存 -->
<g id="edge19" class="edge"><title>バリデーション&#45;&gt;保存</title>
<path fill="none" stroke="black" d="M411.285,-224.616C335.842,-230.81 234.193,-253.623 234.193,-331.598 234.193,-557.978 234.193,-557.978 234.193,-557.978 234.193,-581.979 234.193,-609.178 234.193,-629.345"/>
<polygon fill="black" stroke="black" points="230.693,-629.478 234.193,-639.478 237.693,-629.478 230.693,-629.478"/>
<text text-anchor="middle" x="297.193" y="-447.692" font-family="Times,serif" font-size="14.00">入力値が妥当な場合</text>
</g>
<!-- 保存&#45;&gt;サーバエラー画面 -->
<g id="edge24" class="edge"><title>保存&#45;&gt;サーバエラー画面</title>
<path fill="none" stroke="black" d="M203.877,-655.211C167.69,-649.67 110.415,-638.485 97.4126,-621.771 91.0871,-613.64 89.1964,-602.997 89.3532,-592.741"/>
<polygon fill="black" stroke="black" points="92.8469,-592.955 90.1041,-582.722 85.8665,-592.432 92.8469,-592.955"/>
<text text-anchor="middle" x="159.583" y="-610.571" font-family="Times,serif" font-size="14.00">データベースエラー</text>
</g>
<!-- 保存&#45;&gt;一覧画面 -->
<g id="edge23" class="edge"><title>保存&#45;&gt;一覧画面</title>
<path fill="none" stroke="black" d="M263.958,-653.902C347.877,-638.749 588.483,-595.303 715.092,-572.441"/>
<polygon fill="black" stroke="black" points="715.903,-575.852 725.122,-570.63 714.659,-568.963 715.903,-575.852"/>
<text text-anchor="middle" x="563.193" y="-610.571" font-family="Times,serif" font-size="14.00">成功</text>
</g>
</g>
</svg>
