<?xml version="1.0" encoding="UTF-8" standalone="no"?>
<!DOCTYPE svg PUBLIC "-//W3C//DTD SVG 1.1//EN"
 "http://www.w3.org/Graphics/SVG/1.1/DTD/svg11.dtd">
<!-- Generated by graphviz version 2.38.0 (20140413.2041)
 -->
<!-- Title: sample Pages: 1 -->
<svg width="697pt" height="743pt"
 viewBox="0.00 0.00 696.81 743.00" xmlns="http://www.w3.org/2000/svg" xmlns:xlink="http://www.w3.org/1999/xlink">
<g id="graph0" class="graph" transform="scale(1 1) rotate(0) translate(4 739)">
<title>sample</title>
<polygon fill="white" stroke="none" points="-4,4 -4,-739 692.812,-739 692.812,4 -4,4"/>
<text text-anchor="middle" x="344.406" y="-716.6" font-family="Times,serif" font-size="18.00">CRUD View Diagram</text>
<!-- Show Confirm -->
<g id="node1" class="node"><title>Show Confirm</title>
<ellipse fill="none" stroke="black" cx="473.457" cy="-687" rx="64.3125" ry="18"/>
<ellipse fill="none" stroke="black" cx="473.457" cy="-687" rx="68.3219" ry="22"/>
<text text-anchor="middle" x="473.457" y="-682.8" font-family="Times,serif" font-size="14.00">Show Confirm </text>
</g>
<!-- List View -->
<g id="node3" class="node"><title>List View</title>
<ellipse fill="none" stroke="black" cx="343.457" cy="-593" rx="68.7341" ry="18"/>
<ellipse fill="none" stroke="black" cx="343.457" cy="-593" rx="72.7266" ry="22"/>
<text text-anchor="middle" x="343.457" y="-588.8" font-family="Times,serif" font-size="14.00">List View /index</text>
</g>
<!-- Show Confirm&#45;&gt;List View -->
<g id="edge5" class="edge"><title>Show Confirm&#45;&gt;List View</title>
<path fill="none" stroke="black" d="M468.992,-664.798C465.748,-654.025 460.323,-641.459 451.457,-633 440.617,-622.657 426.834,-615.026 412.769,-609.405"/>
<polygon fill="black" stroke="black" points="413.614,-605.987 403.02,-605.827 411.202,-612.558 413.614,-605.987"/>
<text text-anchor="middle" x="498.807" y="-635.8" font-family="Times,serif" font-size="14.00">Click Cancel</text>
</g>
<!-- POST /delete -->
<g id="node10" class="node"><title>POST /delete</title>
<ellipse fill="lightgrey" stroke="black" cx="631.457" cy="-535" rx="57.2113" ry="18"/>
<text text-anchor="middle" x="631.457" y="-530.8" font-family="Times,serif" font-size="14.00">POST /delete</text>
</g>
<!-- Show Confirm&#45;&gt;POST /delete -->
<g id="edge4" class="edge"><title>Show Confirm&#45;&gt;POST /delete</title>
<path fill="none" stroke="black" d="M508.883,-668.076C519.239,-662.06 530.242,-654.86 539.457,-647 569.477,-621.394 597.41,-585.234 614.444,-561.227"/>
<polygon fill="black" stroke="black" points="617.352,-563.176 620.21,-552.974 611.614,-559.167 617.352,-563.176"/>
<text text-anchor="middle" x="581.483" y="-635.8" font-family="Times,serif" font-size="14.00">Click OK</text>
</g>
<!-- Server Error -->
<g id="node2" class="node"><title>Server Error</title>
<ellipse fill="none" stroke="black" cx="559.457" cy="-22" rx="56.0509" ry="18"/>
<ellipse fill="none" stroke="black" cx="559.457" cy="-22" rx="60.0355" ry="22"/>
<text text-anchor="middle" x="559.457" y="-17.8" font-family="Times,serif" font-size="14.00">Server Error </text>
</g>
<!-- List View&#45;&gt;Show Confirm -->
<g id="edge8" class="edge"><title>List View&#45;&gt;Show Confirm</title>
<path fill="none" stroke="black" d="M336.569,-614.965C334.453,-625.542 334.193,-638.001 340.926,-647 354.257,-664.82 375.336,-674.846 396.794,-680.386"/>
<polygon fill="black" stroke="black" points="396.127,-683.823 406.654,-682.628 397.679,-676.998 396.127,-683.823"/>
<text text-anchor="middle" x="394.723" y="-635.8" font-family="Times,serif" font-size="14.00">Click delete button</text>
</g>
<!-- Add View -->
<g id="node5" class="node"><title>Add View</title>
<ellipse fill="none" stroke="black" cx="177.457" cy="-116" rx="63.4164" ry="18"/>
<ellipse fill="none" stroke="black" cx="177.457" cy="-116" rx="67.4139" ry="22"/>
<text text-anchor="middle" x="177.457" y="-111.8" font-family="Times,serif" font-size="14.00">Add View /add</text>
</g>
<!-- List View&#45;&gt;Add View -->
<g id="edge1" class="edge"><title>List View&#45;&gt;Add View</title>
<path fill="none" stroke="black" stroke-dasharray="5,2" d="M283.654,-580.399C232.896,-566.273 168.457,-537.143 168.457,-482 168.457,-482 168.457,-482 168.457,-205 168.457,-186.201 168.457,-165.143 169.456,-148.341"/>
<polygon fill="black" stroke="black" points="172.976,-148.224 170.267,-137.981 165.998,-147.677 172.976,-148.224"/>
</g>
<!-- GET /add -->
<g id="node8" class="node"><title>GET /add</title>
<ellipse fill="lightgrey" stroke="black" cx="246.457" cy="-427" rx="44.6565" ry="18"/>
<text text-anchor="middle" x="246.457" y="-422.8" font-family="Times,serif" font-size="14.00">GET /add</text>
</g>
<!-- List View&#45;&gt;GET /add -->
<g id="edge6" class="edge"><title>List View&#45;&gt;GET /add</title>
<path fill="none" stroke="black" d="M283.309,-580.399C268.767,-574.621 254.905,-565.966 246.133,-553 226.594,-524.121 231.709,-482.253 238.227,-455.077"/>
<polygon fill="black" stroke="black" points="241.694,-455.656 240.843,-445.095 234.922,-453.881 241.694,-455.656"/>
<text text-anchor="middle" x="293.119" y="-530.8" font-family="Times,serif" font-size="14.00">Click add button</text>
</g>
<!-- GET /edit -->
<g id="node11" class="node"><title>GET /edit</title>
<ellipse fill="lightgrey" stroke="black" cx="343.457" cy="-481" rx="45.141" ry="18"/>
<text text-anchor="middle" x="343.457" y="-476.8" font-family="Times,serif" font-size="14.00">GET /edit</text>
</g>
<!-- List View&#45;&gt;GET /edit -->
<g id="edge7" class="edge"><title>List View&#45;&gt;GET /edit</title>
<path fill="none" stroke="black" d="M343.457,-570.791C343.457,-553.278 343.457,-528.304 343.457,-509.3"/>
<polygon fill="black" stroke="black" points="346.957,-509.172 343.457,-499.172 339.957,-509.172 346.957,-509.172"/>
<text text-anchor="middle" x="390.509" y="-530.8" font-family="Times,serif" font-size="14.00">Click edit button</text>
</g>
<!-- Edit View -->
<g id="node4" class="node"><title>Edit View</title>
<ellipse fill="none" stroke="black" cx="343.457" cy="-369" rx="63.4164" ry="18"/>
<ellipse fill="none" stroke="black" cx="343.457" cy="-369" rx="67.4139" ry="22"/>
<text text-anchor="middle" x="343.457" y="-364.8" font-family="Times,serif" font-size="14.00">Edit View /edit</text>
</g>
<!-- Edit View&#45;&gt;List View -->
<g id="edge2" class="edge"><title>Edit View&#45;&gt;List View</title>
<path fill="none" stroke="black" stroke-dasharray="5,2" d="M362.249,-390.437C385.427,-417.174 423.583,-466.58 438.457,-517 442.984,-532.346 447.367,-539.711 438.457,-553 431.93,-562.735 422.49,-570.043 412.064,-575.527"/>
<polygon fill="black" stroke="black" points="410.282,-572.496 402.696,-579.892 413.238,-578.841 410.282,-572.496"/>
</g>
<!-- POST /edit -->
<g id="node6" class="node"><title>POST /edit</title>
<ellipse fill="lightgrey" stroke="black" cx="433.457" cy="-279" rx="49.5103" ry="18"/>
<text text-anchor="middle" x="433.457" y="-274.8" font-family="Times,serif" font-size="14.00">POST /edit</text>
</g>
<!-- Edit View&#45;&gt;POST /edit -->
<g id="edge10" class="edge"><title>Edit View&#45;&gt;POST /edit</title>
<path fill="none" stroke="black" d="M355.257,-347.222C361.783,-336.82 370.529,-324.462 380.229,-315 385.727,-309.638 392.158,-304.609 398.612,-300.128"/>
<polygon fill="black" stroke="black" points="400.916,-302.802 407.341,-294.377 397.065,-296.956 400.916,-302.802"/>
<text text-anchor="middle" x="436.071" y="-317.8" font-family="Times,serif" font-size="14.00">Click submit button</text>
</g>
<!-- GET /index -->
<g id="node13" class="node"><title>GET /index</title>
<ellipse fill="lightgrey" stroke="black" cx="51.4569" cy="-22" rx="51.4139" ry="18"/>
<text text-anchor="middle" x="51.4569" y="-17.8" font-family="Times,serif" font-size="14.00">GET /index</text>
</g>
<!-- Edit View&#45;&gt;GET /index -->
<g id="edge9" class="edge"><title>Edit View&#45;&gt;GET /index</title>
<path fill="none" stroke="black" d="M332.015,-347.249C329.03,-341.435 325.954,-335.049 323.457,-329 304.763,-283.717 297.978,-272.322 289.919,-224 278.071,-152.965 333.61,-116.433 286.457,-62 275.019,-48.796 176.312,-36.0328 110.514,-28.8803"/>
<polygon fill="black" stroke="black" points="110.571,-25.3664 100.255,-27.7813 109.825,-32.3266 110.571,-25.3664"/>
<text text-anchor="middle" x="340.226" y="-201.8" font-family="Times,serif" font-size="14.00">Click back button</text>
</g>
<!-- Add View&#45;&gt;List View -->
<g id="edge3" class="edge"><title>Add View&#45;&gt;List View</title>
<path fill="none" stroke="black" stroke-dasharray="5,2" d="M184.646,-137.981C186.457,-155.81 186.457,-182.083 186.457,-205 186.457,-482 186.457,-482 186.457,-482 186.457,-530.636 236.585,-559.036 280.254,-574.754"/>
<polygon fill="black" stroke="black" points="279.146,-578.073 289.74,-578.012 281.419,-571.453 279.146,-578.073"/>
</g>
<!-- POST /add -->
<g id="node7" class="node"><title>POST /add</title>
<ellipse fill="lightgrey" stroke="black" cx="288.457" cy="-22" rx="49.0258" ry="18"/>
<text text-anchor="middle" x="288.457" y="-17.8" font-family="Times,serif" font-size="14.00">POST /add</text>
</g>
<!-- Add View&#45;&gt;POST /add -->
<g id="edge12" class="edge"><title>Add View&#45;&gt;POST /add</title>
<path fill="none" stroke="black" d="M201.269,-95.2637C218.947,-80.6122 243.074,-60.6149 261.467,-45.3704"/>
<polygon fill="black" stroke="black" points="264.004,-47.8131 269.47,-38.7369 259.537,-42.4236 264.004,-47.8131"/>
<text text-anchor="middle" x="296.071" y="-64.8" font-family="Times,serif" font-size="14.00">Click submit button</text>
</g>
<!-- Add View&#45;&gt;GET /index -->
<g id="edge11" class="edge"><title>Add View&#45;&gt;GET /index</title>
<path fill="none" stroke="black" d="M150.204,-95.6518C141.466,-89.4108 131.764,-82.4416 122.919,-76 108.887,-65.7806 93.4028,-54.3197 80.4459,-44.6768"/>
<polygon fill="black" stroke="black" points="82.4468,-41.803 72.337,-38.6339 78.264,-47.4158 82.4468,-41.803"/>
<text text-anchor="middle" x="173.226" y="-64.8" font-family="Times,serif" font-size="14.00">Click back button</text>
</g>
<!-- Validate -->
<g id="node9" class="node"><title>Validate</title>
<ellipse fill="lightgrey" stroke="black" cx="437.457" cy="-206" rx="39.1627" ry="18"/>
<text text-anchor="middle" x="437.457" y="-201.8" font-family="Times,serif" font-size="14.00">Validate</text>
</g>
<!-- POST /edit&#45;&gt;Validate -->
<g id="edge13" class="edge"><title>POST /edit&#45;&gt;Validate</title>
<path fill="none" stroke="black" d="M434.425,-260.813C434.877,-252.789 435.426,-243.047 435.932,-234.069"/>
<polygon fill="black" stroke="black" points="439.429,-234.21 436.498,-224.029 432.441,-233.816 439.429,-234.21"/>
</g>
<!-- POST /add&#45;&gt;Validate -->
<g id="edge14" class="edge"><title>POST /add&#45;&gt;Validate</title>
<path fill="none" stroke="black" d="M301.864,-39.3767C328.237,-71.5903 386.962,-143.322 417.753,-180.933"/>
<polygon fill="black" stroke="black" points="415.191,-183.328 424.234,-188.849 420.608,-178.894 415.191,-183.328"/>
</g>
<!-- GET /add&#45;&gt;Add View -->
<g id="edge15" class="edge"><title>GET /add&#45;&gt;Add View</title>
<path fill="none" stroke="black" d="M241.901,-409.01C236.866,-388.706 229.457,-353.629 229.457,-323 229.457,-323 229.457,-323 229.457,-205 229.457,-182.786 217.023,-161.255 204.316,-145.051"/>
<polygon fill="black" stroke="black" points="206.789,-142.55 197.71,-137.088 201.401,-147.019 206.789,-142.55"/>
</g>
<!-- Validate&#45;&gt;List View -->
<g id="edge19" class="edge"><title>Validate&#45;&gt;List View</title>
<path fill="none" stroke="black" d="M458.858,-221.27C471.213,-230.864 485.623,-244.712 492.457,-261 517.764,-321.313 497.47,-502.87 455.457,-553 445.476,-564.909 431.646,-573.186 417.104,-578.938"/>
<polygon fill="black" stroke="black" points="415.725,-575.713 407.479,-582.365 418.073,-582.308 415.725,-575.713"/>
<text text-anchor="middle" x="524.285" y="-364.8" font-family="Times,serif" font-size="14.00">Invalid</text>
</g>
<!-- Validate&#45;&gt;Edit View -->
<g id="edge18" class="edge"><title>Validate&#45;&gt;Edit View</title>
<path fill="none" stroke="black" d="M408.489,-218.268C381.147,-229.563 343.13,-247.209 334.802,-261 321.016,-283.828 325.345,-314.564 331.845,-337.237"/>
<polygon fill="black" stroke="black" points="328.587,-338.542 334.928,-347.03 335.264,-336.44 328.587,-338.542"/>
<text text-anchor="middle" x="355.285" y="-274.8" font-family="Times,serif" font-size="14.00">Invalid</text>
</g>
<!-- Validate&#45;&gt;Add View -->
<g id="edge17" class="edge"><title>Validate&#45;&gt;Add View</title>
<path fill="none" stroke="black" d="M406.867,-194.647C364.027,-180.147 285.462,-153.556 232.352,-135.58"/>
<polygon fill="black" stroke="black" points="233.34,-132.219 222.746,-132.329 231.096,-138.85 233.34,-132.219"/>
<text text-anchor="middle" x="351.285" y="-158.8" font-family="Times,serif" font-size="14.00">Invalid</text>
</g>
<!-- Save -->
<g id="node12" class="node"><title>Save</title>
<ellipse fill="lightgrey" stroke="black" cx="559.457" cy="-116" rx="27.0958" ry="18"/>
<text text-anchor="middle" x="559.457" y="-111.8" font-family="Times,serif" font-size="14.00">Save</text>
</g>
<!-- Validate&#45;&gt;Save -->
<g id="edge16" class="edge"><title>Validate&#45;&gt;Save</title>
<path fill="none" stroke="black" d="M457.603,-190.469C478.367,-175.491 510.819,-152.083 533.496,-135.726"/>
<polygon fill="black" stroke="black" points="535.601,-138.523 541.664,-129.834 531.506,-132.846 535.601,-138.523"/>
<text text-anchor="middle" x="517.233" y="-158.8" font-family="Times,serif" font-size="14.00">Valid</text>
</g>
<!-- POST /delete&#45;&gt;Save -->
<g id="edge20" class="edge"><title>POST /delete&#45;&gt;Save</title>
<path fill="none" stroke="black" d="M629.618,-516.765C627.544,-495.809 624.457,-459.353 624.457,-428 624.457,-428 624.457,-428 624.457,-205 624.457,-177.329 603.406,-152.652 585.263,-136.524"/>
<polygon fill="black" stroke="black" points="587.118,-133.509 577.218,-129.735 582.604,-138.859 587.118,-133.509"/>
</g>
<!-- GET /edit&#45;&gt;Edit View -->
<g id="edge21" class="edge"><title>GET /edit&#45;&gt;Edit View</title>
<path fill="none" stroke="black" d="M343.457,-462.812C343.457,-446.422 343.457,-421.349 343.457,-401.393"/>
<polygon fill="black" stroke="black" points="346.957,-401.209 343.457,-391.209 339.957,-401.209 346.957,-401.209"/>
</g>
<!-- Save&#45;&gt;Server Error -->
<g id="edge23" class="edge"><title>Save&#45;&gt;Server Error</title>
<path fill="none" stroke="black" d="M559.457,-97.6955C559.457,-85.4651 559.457,-68.7287 559.457,-54.1979"/>
<polygon fill="black" stroke="black" points="562.957,-54.103 559.457,-44.1031 555.957,-54.1031 562.957,-54.103"/>
<text text-anchor="middle" x="600.459" y="-64.8" font-family="Times,serif" font-size="14.00">Database error</text>
</g>
<!-- Save&#45;&gt;List View -->
<g id="edge22" class="edge"><title>Save&#45;&gt;List View</title>
<path fill="none" stroke="black" d="M559.457,-134.199C559.457,-151.938 559.457,-180.403 559.457,-205 559.457,-482 559.457,-482 559.457,-482 559.457,-545.682 483.983,-572.513 422.262,-583.808"/>
<polygon fill="black" stroke="black" points="421.361,-580.411 412.097,-585.554 422.546,-587.31 421.361,-580.411"/>
<text text-anchor="middle" x="581.619" y="-317.8" font-family="Times,serif" font-size="14.00">Success</text>
</g>
<!-- GET /index&#45;&gt;List View -->
<g id="edge24" class="edge"><title>GET /index&#45;&gt;List View</title>
<path fill="none" stroke="black" d="M41.3765,-39.9841C31.6718,-57.9711 18.4569,-87.5108 18.4569,-115 18.4569,-482 18.4569,-482 18.4569,-482 18.4569,-534.354 171.685,-566.673 267.717,-581.788"/>
<polygon fill="black" stroke="black" points="267.271,-585.26 277.688,-583.328 268.34,-578.342 267.271,-585.26"/>
</g>
</g>
</svg>
