<?xml version="1.0" encoding="UTF-8" standalone="no"?>
<!DOCTYPE svg PUBLIC "-//W3C//DTD SVG 1.1//EN"
 "http://www.w3.org/Graphics/SVG/1.1/DTD/svg11.dtd">
<!-- Generated by graphviz version 2.38.0 (20140413.2041)
 -->
<!-- Title: sample Pages: 1 -->
<svg width="719pt" height="743pt"
 viewBox="0.00 0.00 719.07 743.00" xmlns="http://www.w3.org/2000/svg" xmlns:xlink="http://www.w3.org/1999/xlink">
<g id="graph0" class="graph" transform="scale(1 1) rotate(0) translate(4 739)">
<title>sample</title>
<polygon fill="white" stroke="none" points="-4,4 -4,-739 715.069,-739 715.069,4 -4,4"/>
<text text-anchor="middle" x="355.534" y="-716.6" font-family="Times,serif" font-size="18.00">CRUD View Diagram</text>
<!-- Show Confirm -->
<g id="node1" class="node"><title>Show Confirm</title>
<ellipse fill="none" stroke="black" cx="439.713" cy="-687" rx="64.3125" ry="18"/>
<ellipse fill="none" stroke="black" cx="439.713" cy="-687" rx="68.3219" ry="22"/>
<text text-anchor="middle" x="439.713" y="-682.8" font-family="Times,serif" font-size="14.00">Show Confirm </text>
</g>
<!-- List View -->
<g id="node5" class="node"><title>List View</title>
<ellipse fill="none" stroke="black" cx="343.713" cy="-593" rx="68.7341" ry="18"/>
<ellipse fill="none" stroke="black" cx="343.713" cy="-593" rx="72.7266" ry="22"/>
<text text-anchor="middle" x="343.713" y="-588.8" font-family="Times,serif" font-size="14.00">List View /index</text>
</g>
<!-- Show Confirm&#45;&gt;List View -->
<g id="edge5" class="edge"><title>Show Confirm&#45;&gt;List View</title>
<path fill="none" stroke="black" d="M382.838,-674.511C368.156,-668.727 353.979,-660.04 345.013,-647 340.675,-640.691 339.019,-632.885 338.76,-625.223"/>
<polygon fill="black" stroke="black" points="342.266,-625.142 339.152,-615.015 335.271,-624.874 342.266,-625.142"/>
<text text-anchor="middle" x="382.063" y="-635.8" font-family="Times,serif" font-size="14.00">Click Cancel</text>
</g>
<!-- POST /delete -->
<g id="node13" class="node"><title>POST /delete</title>
<ellipse fill="lightgrey" stroke="black" cx="653.713" cy="-535" rx="57.2113" ry="18"/>
<text text-anchor="middle" x="653.713" y="-530.8" font-family="Times,serif" font-size="14.00">POST /delete</text>
</g>
<!-- Show Confirm&#45;&gt;POST /delete -->
<g id="edge4" class="edge"><title>Show Confirm&#45;&gt;POST /delete</title>
<path fill="none" stroke="black" d="M487.372,-671.23C503.983,-665.014 522.307,-656.898 537.713,-647 575.427,-622.77 611.535,-585.178 633.172,-560.574"/>
<polygon fill="black" stroke="black" points="636.033,-562.616 639.936,-552.766 630.743,-558.032 636.033,-562.616"/>
<text text-anchor="middle" x="582.739" y="-635.8" font-family="Times,serif" font-size="14.00">Click OK</text>
</g>
<!-- Add View -->
<g id="node2" class="node"><title>Add View</title>
<ellipse fill="none" stroke="black" cx="132.713" cy="-116" rx="63.4164" ry="18"/>
<ellipse fill="none" stroke="black" cx="132.713" cy="-116" rx="67.4139" ry="22"/>
<text text-anchor="middle" x="132.713" y="-111.8" font-family="Times,serif" font-size="14.00">Add View /add</text>
</g>
<!-- Add View&#45;&gt;List View -->
<g id="edge1" class="edge"><title>Add View&#45;&gt;List View</title>
<path fill="none" stroke="black" stroke-dasharray="5,2" d="M137.668,-137.954C137.773,-155.766 135.713,-182.03 135.713,-205 135.713,-482 135.713,-482 135.713,-482 135.713,-543.888 206.801,-570.967 265.914,-582.809"/>
<polygon fill="black" stroke="black" points="265.561,-586.305 276.036,-584.716 266.857,-579.425 265.561,-586.305"/>
</g>
<!-- POST /add -->
<g id="node8" class="node"><title>POST /add</title>
<ellipse fill="lightgrey" stroke="black" cx="129.713" cy="-22" rx="49.0258" ry="18"/>
<text text-anchor="middle" x="129.713" y="-17.8" font-family="Times,serif" font-size="14.00">POST /add</text>
</g>
<!-- Add View&#45;&gt;POST /add -->
<g id="edge7" class="edge"><title>Add View&#45;&gt;POST /add</title>
<path fill="none" stroke="black" d="M67.1908,-110.659C43.9021,-105.571 19.9075,-95.505 5.48563,-76 -15.3573,-47.8106 30.5199,-34.4703 72.2926,-28.2495"/>
<polygon fill="black" stroke="black" points="72.7923,-31.7139 82.2236,-26.8867 71.8406,-24.7789 72.7923,-31.7139"/>
<text text-anchor="middle" x="61.3269" y="-64.8" font-family="Times,serif" font-size="14.00">Click submit button</text>
</g>
<!-- GET /index -->
<g id="node10" class="node"><title>GET /index</title>
<ellipse fill="lightgrey" stroke="black" cx="417.713" cy="-22" rx="51.4139" ry="18"/>
<text text-anchor="middle" x="417.713" y="-17.8" font-family="Times,serif" font-size="14.00">GET /index</text>
</g>
<!-- Add View&#45;&gt;GET /index -->
<g id="edge6" class="edge"><title>Add View&#45;&gt;GET /index</title>
<path fill="none" stroke="black" d="M179.138,-100.014C232.186,-82.8894 318.486,-55.0313 371.462,-37.9302"/>
<polygon fill="black" stroke="black" points="372.83,-41.1664 381.272,-34.7636 370.68,-34.5049 372.83,-41.1664"/>
<text text-anchor="middle" x="342.482" y="-64.8" font-family="Times,serif" font-size="14.00">Click back button</text>
</g>
<!-- Server Error -->
<g id="node3" class="node"><title>Server Error</title>
<ellipse fill="none" stroke="black" cx="598.713" cy="-22" rx="56.0509" ry="18"/>
<ellipse fill="none" stroke="black" cx="598.713" cy="-22" rx="60.0355" ry="22"/>
<text text-anchor="middle" x="598.713" y="-17.8" font-family="Times,serif" font-size="14.00">Server Error </text>
</g>
<!-- Edit View -->
<g id="node4" class="node"><title>Edit View</title>
<ellipse fill="none" stroke="black" cx="311.713" cy="-369" rx="63.4164" ry="18"/>
<ellipse fill="none" stroke="black" cx="311.713" cy="-369" rx="67.4139" ry="22"/>
<text text-anchor="middle" x="311.713" y="-364.8" font-family="Times,serif" font-size="14.00">Edit View /edit</text>
</g>
<!-- Edit View&#45;&gt;List View -->
<g id="edge2" class="edge"><title>Edit View&#45;&gt;List View</title>
<path fill="none" stroke="black" stroke-dasharray="5,2" d="M330.506,-390.437C353.683,-417.174 391.839,-466.58 406.713,-517 411.24,-532.346 414.499,-539.022 406.713,-553 403.348,-559.04 398.619,-564.263 393.247,-568.746"/>
<polygon fill="black" stroke="black" points="390.995,-566.057 385,-574.793 395.134,-571.702 390.995,-566.057"/>
</g>
<!-- Edit View&#45;&gt;GET /index -->
<g id="edge8" class="edge"><title>Edit View&#45;&gt;GET /index</title>
<path fill="none" stroke="black" d="M365.606,-355.755C379.555,-349.954 393.067,-341.448 401.713,-329 432.688,-284.404 424.437,-116.358 419.823,-50.0986"/>
<polygon fill="black" stroke="black" points="423.306,-49.7391 419.094,-40.0178 416.325,-50.2443 423.306,-49.7391"/>
<text text-anchor="middle" x="474.482" y="-201.8" font-family="Times,serif" font-size="14.00">Click back button</text>
</g>
<!-- POST /edit -->
<g id="node11" class="node"><title>POST /edit</title>
<ellipse fill="lightgrey" stroke="black" cx="333.713" cy="-279" rx="49.5103" ry="18"/>
<text text-anchor="middle" x="333.713" y="-274.8" font-family="Times,serif" font-size="14.00">POST /edit</text>
</g>
<!-- Edit View&#45;&gt;POST /edit -->
<g id="edge9" class="edge"><title>Edit View&#45;&gt;POST /edit</title>
<path fill="none" stroke="black" d="M295.468,-347.604C289.567,-337.642 285.45,-325.557 290.486,-315 292.928,-309.88 296.526,-305.266 300.621,-301.196"/>
<polygon fill="black" stroke="black" points="303.121,-303.661 308.385,-294.466 298.536,-298.372 303.121,-303.661"/>
<text text-anchor="middle" x="346.327" y="-317.8" font-family="Times,serif" font-size="14.00">Click submit button</text>
</g>
<!-- List View&#45;&gt;Show Confirm -->
<g id="edge12" class="edge"><title>List View&#45;&gt;Show Confirm</title>
<path fill="none" stroke="black" d="M387.52,-610.751C398.44,-616.518 409.393,-623.881 417.713,-633 423.537,-639.383 427.94,-647.525 431.216,-655.501"/>
<polygon fill="black" stroke="black" points="427.97,-656.814 434.674,-665.018 434.549,-654.424 427.97,-656.814"/>
<text text-anchor="middle" x="479.979" y="-635.8" font-family="Times,serif" font-size="14.00">Click delete button</text>
</g>
<!-- List View&#45;&gt;Add View -->
<g id="edge3" class="edge"><title>List View&#45;&gt;Add View</title>
<path fill="none" stroke="black" stroke-dasharray="5,2" d="M273.752,-586.516C207.314,-577.088 117.713,-551.481 117.713,-482 117.713,-482 117.713,-482 117.713,-205 117.713,-185.978 119.126,-164.697 121.608,-147.827"/>
<polygon fill="black" stroke="black" points="125.061,-148.399 123.289,-137.954 118.161,-147.224 125.061,-148.399"/>
</g>
<!-- GET /add -->
<g id="node7" class="node"><title>GET /add</title>
<ellipse fill="lightgrey" stroke="black" cx="195.713" cy="-427" rx="44.6565" ry="18"/>
<text text-anchor="middle" x="195.713" y="-422.8" font-family="Times,serif" font-size="14.00">GET /add</text>
</g>
<!-- List View&#45;&gt;GET /add -->
<g id="edge10" class="edge"><title>List View&#45;&gt;GET /add</title>
<path fill="none" stroke="black" d="M273.561,-586.884C250.178,-581.601 226.109,-571.606 210.389,-553 187.606,-526.036 187.734,-483.323 190.929,-455.477"/>
<polygon fill="black" stroke="black" points="194.441,-455.625 192.317,-445.245 187.504,-454.684 194.441,-455.625"/>
<text text-anchor="middle" x="257.375" y="-530.8" font-family="Times,serif" font-size="14.00">Click add button</text>
</g>
<!-- GET /edit -->
<g id="node12" class="node"><title>GET /edit</title>
<ellipse fill="lightgrey" stroke="black" cx="311.713" cy="-481" rx="45.141" ry="18"/>
<text text-anchor="middle" x="311.713" y="-476.8" font-family="Times,serif" font-size="14.00">GET /edit</text>
</g>
<!-- List View&#45;&gt;GET /edit -->
<g id="edge11" class="edge"><title>List View&#45;&gt;GET /edit</title>
<path fill="none" stroke="black" d="M323.448,-571.71C319.047,-566.093 314.998,-559.688 312.61,-553 307.671,-539.167 307.135,-522.831 307.974,-509.318"/>
<polygon fill="black" stroke="black" points="311.475,-509.46 308.883,-499.187 304.503,-508.834 311.475,-509.46"/>
<text text-anchor="middle" x="359.765" y="-530.8" font-family="Times,serif" font-size="14.00">Click edit button</text>
</g>
<!-- Validate -->
<g id="node6" class="node"><title>Validate</title>
<ellipse fill="lightgrey" stroke="black" cx="274.713" cy="-206" rx="39.1627" ry="18"/>
<text text-anchor="middle" x="274.713" y="-201.8" font-family="Times,serif" font-size="14.00">Validate</text>
</g>
<!-- Validate&#45;&gt;Add View -->
<g id="edge14" class="edge"><title>Validate&#45;&gt;Add View</title>
<path fill="none" stroke="black" d="M246.759,-193.149C232.953,-186.895 216.255,-178.719 202.058,-170 189.174,-162.087 175.799,-152.291 164.273,-143.282"/>
<polygon fill="black" stroke="black" points="166.246,-140.38 156.24,-136.899 161.892,-145.86 166.246,-140.38"/>
<text text-anchor="middle" x="222.541" y="-158.8" font-family="Times,serif" font-size="14.00">Invalid</text>
</g>
<!-- Validate&#45;&gt;Edit View -->
<g id="edge15" class="edge"><title>Validate&#45;&gt;Edit View</title>
<path fill="none" stroke="black" d="M258.773,-222.925C249.92,-232.931 239.767,-246.631 235.058,-261 230.075,-276.204 228.653,-282.338 235.058,-297 243.084,-315.374 258.469,-331.117 273.363,-343.076"/>
<polygon fill="black" stroke="black" points="271.466,-346.031 281.536,-349.323 275.717,-340.47 271.466,-346.031"/>
<text text-anchor="middle" x="255.541" y="-274.8" font-family="Times,serif" font-size="14.00">Invalid</text>
</g>
<!-- Save -->
<g id="node9" class="node"><title>Save</title>
<ellipse fill="lightgrey" stroke="black" cx="598.713" cy="-116" rx="27.0958" ry="18"/>
<text text-anchor="middle" x="598.713" y="-111.8" font-family="Times,serif" font-size="14.00">Save</text>
</g>
<!-- Validate&#45;&gt;Save -->
<g id="edge13" class="edge"><title>Validate&#45;&gt;Save</title>
<path fill="none" stroke="black" d="M307.563,-196.078C369.131,-179.356 501.322,-143.452 564.164,-126.384"/>
<polygon fill="black" stroke="black" points="565.257,-129.714 573.99,-123.715 563.423,-122.958 565.257,-129.714"/>
<text text-anchor="middle" x="461.489" y="-158.8" font-family="Times,serif" font-size="14.00">Valid</text>
</g>
<!-- Delete View -->
<g id="node14" class="node"><title>Delete View</title>
<ellipse fill="none" stroke="black" cx="335.713" cy="-116" rx="53.7332" ry="18"/>
<text text-anchor="middle" x="335.713" y="-111.8" font-family="Times,serif" font-size="14.00">Delete View</text>
</g>
<!-- Validate&#45;&gt;Delete View -->
<g id="edge16" class="edge"><title>Validate&#45;&gt;Delete View</title>
<path fill="none" stroke="black" d="M286.187,-188.448C295.246,-175.379 308.033,-156.932 318.345,-142.056"/>
<polygon fill="black" stroke="black" points="321.263,-143.99 324.084,-133.777 315.51,-140.002 321.263,-143.99"/>
<text text-anchor="middle" x="327.541" y="-158.8" font-family="Times,serif" font-size="14.00">Invalid</text>
</g>
<!-- GET /add&#45;&gt;Add View -->
<g id="edge17" class="edge"><title>GET /add&#45;&gt;Add View</title>
<path fill="none" stroke="black" d="M194.252,-408.929C190.251,-365.786 177.511,-249.183 149.713,-156 148.882,-153.213 147.904,-150.361 146.844,-147.529"/>
<polygon fill="black" stroke="black" points="150.024,-146.057 143.021,-138.107 143.538,-148.689 150.024,-146.057"/>
</g>
<!-- POST /add&#45;&gt;Validate -->
<g id="edge18" class="edge"><title>POST /add&#45;&gt;Validate</title>
<path fill="none" stroke="black" d="M175.227,-28.8615C197.587,-34.0261 223.203,-43.7383 239.713,-62 268.539,-93.8847 274.596,-145.589 275.36,-177.313"/>
<polygon fill="black" stroke="black" points="271.862,-177.663 275.438,-187.636 278.862,-177.61 271.862,-177.663"/>
</g>
<!-- Save&#45;&gt;Server Error -->
<g id="edge20" class="edge"><title>Save&#45;&gt;Server Error</title>
<path fill="none" stroke="black" d="M598.713,-97.6955C598.713,-85.4651 598.713,-68.7287 598.713,-54.1979"/>
<polygon fill="black" stroke="black" points="602.213,-54.103 598.713,-44.1031 595.213,-54.1031 602.213,-54.103"/>
<text text-anchor="middle" x="639.715" y="-64.8" font-family="Times,serif" font-size="14.00">Database error</text>
</g>
<!-- Save&#45;&gt;List View -->
<g id="edge19" class="edge"><title>Save&#45;&gt;List View</title>
<path fill="none" stroke="black" d="M593.52,-133.685C588.521,-151.248 581.713,-179.792 581.713,-205 581.713,-482 581.713,-482 581.713,-482 581.713,-515.31 582.919,-531.223 557.713,-553 537.788,-570.215 476.068,-580.247 424.001,-585.814"/>
<polygon fill="black" stroke="black" points="423.322,-582.366 413.731,-586.869 424.037,-589.329 423.322,-582.366"/>
<text text-anchor="middle" x="603.875" y="-317.8" font-family="Times,serif" font-size="14.00">Success</text>
</g>
<!-- GET /index&#45;&gt;List View -->
<g id="edge21" class="edge"><title>GET /index&#45;&gt;List View</title>
<path fill="none" stroke="black" d="M457.235,-33.7076C494.186,-46.4031 543.713,-71.5277 543.713,-115 543.713,-482 543.713,-482 543.713,-482 543.713,-540.972 476.129,-568.553 419.536,-581.311"/>
<polygon fill="black" stroke="black" points="418.53,-577.947 409.478,-583.453 419.987,-584.793 418.53,-577.947"/>
</g>
<!-- POST /edit&#45;&gt;Validate -->
<g id="edge22" class="edge"><title>POST /edit&#45;&gt;Validate</title>
<path fill="none" stroke="black" d="M320.029,-261.533C312.583,-252.572 303.227,-241.313 294.953,-231.357"/>
<polygon fill="black" stroke="black" points="297.406,-228.832 288.323,-223.378 292.022,-233.306 297.406,-228.832"/>
</g>
<!-- GET /edit&#45;&gt;Edit View -->
<g id="edge23" class="edge"><title>GET /edit&#45;&gt;Edit View</title>
<path fill="none" stroke="black" d="M311.713,-462.812C311.713,-446.422 311.713,-421.349 311.713,-401.393"/>
<polygon fill="black" stroke="black" points="315.213,-401.209 311.713,-391.209 308.213,-401.209 315.213,-401.209"/>
</g>
<!-- POST /delete&#45;&gt;Save -->
<g id="edge24" class="edge"><title>POST /delete&#45;&gt;Save</title>
<path fill="none" stroke="black" d="M651.874,-516.765C649.8,-495.809 646.713,-459.353 646.713,-428 646.713,-428 646.713,-428 646.713,-205 646.713,-180.548 632.253,-156.428 619.207,-139.641"/>
<polygon fill="black" stroke="black" points="621.64,-137.088 612.597,-131.568 616.224,-141.523 621.64,-137.088"/>
</g>
</g>
</svg>
