<?xml version="1.0" encoding="UTF-8" standalone="no"?>
<!DOCTYPE svg PUBLIC "-//W3C//DTD SVG 1.1//EN"
 "http://www.w3.org/Graphics/SVG/1.1/DTD/svg11.dtd">
<!-- Generated by graphviz version 2.38.0 (20140413.2041)
 -->
<!-- Title: sample Pages: 1 -->
<svg width="1114pt" height="793pt"
 viewBox="0.00 0.00 1113.58 792.96" xmlns="http://www.w3.org/2000/svg" xmlns:xlink="http://www.w3.org/1999/xlink">
<g id="graph0" class="graph" transform="scale(1 1) rotate(0) translate(4 788.955)">
<title>sample</title>
<polygon fill="white" stroke="none" points="-4,4 -4,-788.955 1109.58,-788.955 1109.58,4 -4,4"/>
<!-- 新規作成画面 -->
<g id="node1" class="node"><title>新規作成画面</title>
<ellipse fill="none" stroke="black" cx="471" cy="-759.162" rx="90.4494" ry="21.6196"/>
<ellipse fill="none" stroke="black" cx="471" cy="-759.162" rx="94.4592" ry="25.5878"/>
<text text-anchor="middle" x="471" y="-759.372" font-family="Times,serif" font-size="14.00">新規作成画面 /add</text>
</g>
<!-- 一覧画面 -->
<g id="node2" class="node"><title>一覧画面</title>
<ellipse fill="none" stroke="black" cx="471" cy="-650.576" rx="78.2548" ry="21.6196"/>
<ellipse fill="none" stroke="black" cx="471" cy="-650.576" rx="82.2611" ry="25.5878"/>
<text text-anchor="middle" x="471" y="-650.786" font-family="Times,serif" font-size="14.00">一覧画面 /index</text>
</g>
<!-- 新規作成画面&#45;&gt;一覧画面 -->
<g id="edge1" class="edge"><title>新規作成画面&#45;&gt;一覧画面</title>
<path fill="none" stroke="black" stroke-dasharray="5,2" d="M465.18,-733.172C464.169,-719.274 463.983,-701.758 464.619,-686.521"/>
<polygon fill="black" stroke="black" points="468.12,-686.591 465.191,-676.409 461.132,-686.196 468.12,-686.591"/>
</g>
<!-- GET /index -->
<g id="node11" class="node"><title>GET /index</title>
<ellipse fill="lightgrey" stroke="black" cx="279" cy="-302.611" rx="51.4139" ry="18"/>
<text text-anchor="middle" x="279" y="-298.411" font-family="Times,serif" font-size="14.00">GET /index</text>
</g>
<!-- 新規作成画面&#45;&gt;GET /index -->
<g id="edge4" class="edge"><title>新規作成画面&#45;&gt;GET /index</title>
<path fill="none" stroke="black" d="M377.382,-755.793C240.025,-749.733 0,-728.183 0,-651.576 0,-651.576 0,-651.576 0,-417.404 0,-369.307 143.952,-331.594 225.054,-314.163"/>
<polygon fill="black" stroke="black" points="226.04,-317.532 235.099,-312.039 224.592,-310.684 226.04,-317.532"/>
<text text-anchor="middle" x="69.79" y="-526.29" font-family="Times,serif" font-size="14.00">戻るボタンをクリック</text>
</g>
<!-- POST /add -->
<g id="node12" class="node"><title>POST /add</title>
<ellipse fill="lightgrey" stroke="black" cx="1040" cy="-588.783" rx="49.0258" ry="18"/>
<text text-anchor="middle" x="1040" y="-584.583" font-family="Times,serif" font-size="14.00">POST /add</text>
</g>
<!-- 新規作成画面&#45;&gt;POST /add -->
<g id="edge5" class="edge"><title>新規作成画面&#45;&gt;POST /add</title>
<path fill="none" stroke="black" d="M565.29,-758.127C683.002,-756.622 876.493,-748.897 939,-715.369 980.605,-693.053 1011.24,-645.594 1027.3,-615.832"/>
<polygon fill="black" stroke="black" points="1030.46,-617.329 1031.99,-606.845 1024.26,-614.088 1030.46,-617.329"/>
<text text-anchor="middle" x="1035.79" y="-704.169" font-family="Times,serif" font-size="14.00">登録ボタンをクリック</text>
</g>
<!-- 一覧画面&#45;&gt;新規作成画面 -->
<g id="edge2" class="edge"><title>一覧画面&#45;&gt;新規作成画面</title>
<path fill="none" stroke="black" stroke-dasharray="5,2" d="M476.809,-676.409C477.825,-690.28 478.018,-707.791 477.388,-723.045"/>
<polygon fill="black" stroke="black" points="473.886,-722.992 476.82,-733.172 480.875,-723.384 473.886,-722.992"/>
</g>
<!-- 確認ダイアログを表示 -->
<g id="node4" class="node"><title>確認ダイアログを表示</title>
<ellipse fill="none" stroke="black" cx="770" cy="-526.99" rx="111.393" ry="21.6196"/>
<ellipse fill="none" stroke="black" cx="770" cy="-526.99" rx="115.4" ry="25.5878"/>
<text text-anchor="middle" x="770" y="-527.2" font-family="Times,serif" font-size="14.00">確認ダイアログを表示 </text>
</g>
<!-- 一覧画面&#45;&gt;確認ダイアログを表示 -->
<g id="edge8" class="edge"><title>一覧画面&#45;&gt;確認ダイアログを表示</title>
<path fill="none" stroke="black" d="M552.47,-646.58C623.581,-642.291 719.704,-631.897 748,-606.783 760.255,-595.906 765.933,-578.829 768.472,-563.35"/>
<polygon fill="black" stroke="black" points="772,-563.342 769.771,-552.984 765.054,-562.472 772,-563.342"/>
<text text-anchor="middle" x="837.79" y="-588.083" font-family="Times,serif" font-size="14.00">削除ボタンをクリック</text>
</g>
<!-- GET /add -->
<g id="node9" class="node"><title>GET /add</title>
<ellipse fill="lightgrey" stroke="black" cx="202" cy="-526.99" rx="44.6565" ry="18"/>
<text text-anchor="middle" x="202" y="-522.79" font-family="Times,serif" font-size="14.00">GET /add</text>
</g>
<!-- 一覧画面&#45;&gt;GET /add -->
<g id="edge6" class="edge"><title>一覧画面&#45;&gt;GET /add</title>
<path fill="none" stroke="black" d="M388.559,-650.224C305.114,-648.91 184.256,-640.923 154.42,-606.783 143.891,-594.735 147.908,-585.398 154.42,-570.783 158.06,-562.614 164.115,-555.351 170.707,-549.232"/>
<polygon fill="black" stroke="black" points="173.194,-551.713 178.58,-542.589 168.68,-546.363 173.194,-551.713"/>
<text text-anchor="middle" x="238.79" y="-588.083" font-family="Times,serif" font-size="14.00">新規作成ボタンをクリック</text>
</g>
<!-- GET /edit -->
<g id="node13" class="node"><title>GET /edit</title>
<ellipse fill="lightgrey" stroke="black" cx="455" cy="-526.99" rx="45.141" ry="18"/>
<text text-anchor="middle" x="455" y="-522.79" font-family="Times,serif" font-size="14.00">GET /edit</text>
</g>
<!-- 一覧画面&#45;&gt;GET /edit -->
<g id="edge7" class="edge"><title>一覧画面&#45;&gt;GET /edit</title>
<path fill="none" stroke="black" d="M419.622,-630.302C409.961,-624.271 401.116,-616.553 395.42,-606.783 387.362,-592.96 388.117,-585.019 395.42,-570.783 400.442,-560.994 408.859,-552.938 417.808,-546.561"/>
<polygon fill="black" stroke="black" points="419.967,-549.333 426.458,-540.959 416.162,-543.457 419.967,-549.333"/>
<text text-anchor="middle" x="465.79" y="-588.083" font-family="Times,serif" font-size="14.00">編集ボタンをクリック</text>
</g>
<!-- 編集画面 -->
<g id="node3" class="node"><title>編集画面</title>
<ellipse fill="none" stroke="black" cx="539" cy="-418.404" rx="70.9637" ry="21.6196"/>
<ellipse fill="none" stroke="black" cx="539" cy="-418.404" rx="74.9627" ry="25.5878"/>
<text text-anchor="middle" x="539" y="-418.614" font-family="Times,serif" font-size="14.00">編集画面 /edit</text>
</g>
<!-- 編集画面&#45;&gt;一覧画面 -->
<g id="edge3" class="edge"><title>編集画面&#45;&gt;一覧画面</title>
<path fill="none" stroke="black" stroke-dasharray="5,2" d="M545.326,-444.305C553.477,-482.053 563.464,-554.852 535,-606.783 531.88,-612.475 527.641,-617.547 522.819,-622.03"/>
<polygon fill="black" stroke="black" points="520.339,-619.538 514.84,-628.594 524.786,-624.944 520.339,-619.538"/>
</g>
<!-- POST /edit -->
<g id="node7" class="node"><title>POST /edit</title>
<ellipse fill="lightgrey" stroke="black" cx="708" cy="-302.611" rx="49.5103" ry="18"/>
<text text-anchor="middle" x="708" y="-298.411" font-family="Times,serif" font-size="14.00">POST /edit</text>
</g>
<!-- 編集画面&#45;&gt;POST /edit -->
<g id="edge10" class="edge"><title>編集画面&#45;&gt;POST /edit</title>
<path fill="none" stroke="black" d="M560.09,-393.382C565.123,-387.368 570.374,-380.849 575,-374.611 586.37,-359.279 583.243,-350.187 598.42,-338.611 603.723,-334.566 633.333,-325.211 660.437,-317.19"/>
<polygon fill="black" stroke="black" points="661.649,-320.482 670.259,-314.307 659.678,-313.765 661.649,-320.482"/>
<text text-anchor="middle" x="669.79" y="-355.911" font-family="Times,serif" font-size="14.00">登録ボタンをクリック</text>
</g>
<!-- 編集画面&#45;&gt;GET /index -->
<g id="edge9" class="edge"><title>編集画面&#45;&gt;GET /index</title>
<path fill="none" stroke="black" d="M474.694,-405.119C452.733,-398.667 429.04,-388.992 410.42,-374.611 395.313,-362.943 402.153,-350.219 387,-338.611 371.752,-326.93 352.462,-319.07 334.418,-313.815"/>
<polygon fill="black" stroke="black" points="335.121,-310.38 324.555,-311.156 333.299,-317.138 335.121,-310.38"/>
<text text-anchor="middle" x="480.79" y="-355.911" font-family="Times,serif" font-size="14.00">戻るボタンをクリック</text>
</g>
<!-- 確認ダイアログを表示&#45;&gt;一覧画面 -->
<g id="edge12" class="edge"><title>確認ダイアログを表示&#45;&gt;一覧画面</title>
<path fill="none" stroke="black" d="M669.77,-539.969C646.591,-546.343 623.236,-556.044 604.42,-570.783 590.109,-581.994 598.696,-594.829 585,-606.783 573.438,-616.875 559.265,-624.685 544.893,-630.695"/>
<polygon fill="black" stroke="black" points="543.483,-627.488 535.445,-634.39 546.033,-634.007 543.483,-627.488"/>
<text text-anchor="middle" x="674.79" y="-588.083" font-family="Times,serif" font-size="14.00">キャンセルをクリック</text>
</g>
<!-- POST /delete -->
<g id="node6" class="node"><title>POST /delete</title>
<ellipse fill="lightgrey" stroke="black" cx="824" cy="-356.611" rx="57.2113" ry="18"/>
<text text-anchor="middle" x="824" y="-352.411" font-family="Times,serif" font-size="14.00">POST /delete</text>
</g>
<!-- 確認ダイアログを表示&#45;&gt;POST /delete -->
<g id="edge11" class="edge"><title>確認ダイアログを表示&#45;&gt;POST /delete</title>
<path fill="none" stroke="black" d="M777.968,-501.145C787.975,-469.943 805.078,-416.613 815.381,-384.485"/>
<polygon fill="black" stroke="black" points="818.749,-385.445 818.47,-374.854 812.083,-383.307 818.749,-385.445"/>
<text text-anchor="middle" x="840" y="-471.997" font-family="Times,serif" font-size="14.00">ＯＫをクリック</text>
</g>
<!-- サーバエラー画面 -->
<g id="node5" class="node"><title>サーバエラー画面</title>
<ellipse fill="none" stroke="black" cx="473" cy="-25.7931" rx="92.3775" ry="21.6196"/>
<ellipse fill="none" stroke="black" cx="473" cy="-25.7931" rx="96.3856" ry="25.5878"/>
<text text-anchor="middle" x="473" y="-26.0031" font-family="Times,serif" font-size="14.00">サーバエラー画面 </text>
</g>
<!-- バリデーション -->
<g id="node8" class="node"><title>バリデーション</title>
<ellipse fill="lightgrey" stroke="black" cx="786" cy="-227.105" rx="80.429" ry="20.5123"/>
<text text-anchor="middle" x="786" y="-226.405" font-family="Times,serif" font-size="14.00">バリデーション</text>
</g>
<!-- POST /delete&#45;&gt;バリデーション -->
<g id="edge13" class="edge"><title>POST /delete&#45;&gt;バリデーション</title>
<path fill="none" stroke="black" d="M819.972,-338.55C815.553,-320.342 808.014,-290.722 800,-265.611 799.128,-262.879 798.174,-260.055 797.186,-257.237"/>
<polygon fill="black" stroke="black" points="800.475,-256.039 793.772,-247.834 793.895,-258.428 800.475,-256.039"/>
</g>
<!-- POST /edit&#45;&gt;バリデーション -->
<g id="edge14" class="edge"><title>POST /edit&#45;&gt;バリデーション</title>
<path fill="none" stroke="black" d="M724.925,-285.661C734.681,-276.467 747.186,-264.682 758.337,-254.174"/>
<polygon fill="black" stroke="black" points="760.912,-256.556 765.789,-247.151 756.111,-251.462 760.912,-256.556"/>
</g>
<!-- バリデーション&#45;&gt;新規作成画面 -->
<g id="edge16" class="edge"><title>バリデーション&#45;&gt;新規作成画面</title>
<path fill="none" stroke="black" d="M853.871,-238.206C889.156,-247.722 925,-266.123 925,-301.611 925,-651.576 925,-651.576 925,-651.576 925,-723.135 708.533,-746.69 574.543,-754.416"/>
<polygon fill="black" stroke="black" points="574.034,-750.939 564.244,-754.988 574.423,-757.928 574.034,-750.939"/>
<text text-anchor="middle" x="988" y="-471.997" font-family="Times,serif" font-size="14.00">入力値が不正な場合</text>
</g>
<!-- バリデーション&#45;&gt;一覧画面 -->
<g id="edge18" class="edge"><title>バリデーション&#45;&gt;一覧画面</title>
<path fill="none" stroke="black" d="M783.659,-247.687C780.995,-266.727 775.827,-296.256 767,-320.611 757.718,-346.222 759.469,-357.841 738,-374.611 712.345,-394.65 692.507,-372.383 667,-392.611 582.996,-459.227 632.255,-531.419 556,-606.783 548.698,-614 539.932,-620.234 530.844,-625.539"/>
<polygon fill="black" stroke="black" points="529.162,-622.47 522.069,-630.34 532.522,-628.61 529.162,-622.47"/>
<text text-anchor="middle" x="731" y="-417.704" font-family="Times,serif" font-size="14.00">入力値が不正な場合</text>
</g>
<!-- バリデーション&#45;&gt;編集画面 -->
<g id="edge17" class="edge"><title>バリデーション&#45;&gt;編集画面</title>
<path fill="none" stroke="black" d="M710.078,-233.99C640.935,-241.115 546.187,-255.913 523,-284.611 512.945,-297.056 515.45,-306.504 523,-320.611 529.805,-333.326 543.195,-325.895 550,-338.611 557.132,-351.938 556.156,-368.27 552.701,-382.602"/>
<polygon fill="black" stroke="black" points="549.223,-382.035 549.828,-392.613 555.951,-383.967 549.223,-382.035"/>
<text text-anchor="middle" x="586" y="-301.911" font-family="Times,serif" font-size="14.00">入力値が不正な場合</text>
</g>
<!-- 保存 -->
<g id="node10" class="node"><title>保存</title>
<ellipse fill="lightgrey" stroke="black" cx="473" cy="-129.092" rx="31.2258" ry="20.5123"/>
<text text-anchor="middle" x="473" y="-128.392" font-family="Times,serif" font-size="14.00">保存</text>
</g>
<!-- バリデーション&#45;&gt;保存 -->
<g id="edge15" class="edge"><title>バリデーション&#45;&gt;保存</title>
<path fill="none" stroke="black" d="M736.404,-210.891C673.635,-191.637 566.916,-158.901 510.512,-141.599"/>
<polygon fill="black" stroke="black" points="511.503,-138.242 500.916,-138.656 509.45,-144.934 511.503,-138.242"/>
<text text-anchor="middle" x="721" y="-177.398" font-family="Times,serif" font-size="14.00">入力値が妥当な場合</text>
</g>
<!-- GET /add&#45;&gt;新規作成画面 -->
<g id="edge19" class="edge"><title>GET /add&#45;&gt;新規作成画面</title>
<path fill="none" stroke="black" d="M174.196,-541.129C162.635,-548.17 150.43,-558.049 144,-570.783 136.788,-585.066 135.384,-593.301 144,-606.783 195.687,-687.668 302.886,-725.975 380.486,-743.686"/>
<polygon fill="black" stroke="black" points="379.754,-747.109 390.273,-745.848 381.263,-740.274 379.754,-747.109"/>
</g>
<!-- 保存&#45;&gt;一覧画面 -->
<g id="edge20" class="edge"><title>保存&#45;&gt;一覧画面</title>
<path fill="none" stroke="black" d="M458.793,-147.657C432.13,-181.884 375.443,-260.978 355,-338.611 324.447,-454.637 316.427,-509.033 386,-606.783 391.417,-614.394 398.589,-620.731 406.475,-625.985"/>
<polygon fill="black" stroke="black" points="404.89,-629.116 415.264,-631.27 408.497,-623.117 404.89,-629.116"/>
<text text-anchor="middle" x="369" y="-355.911" font-family="Times,serif" font-size="14.00">成功</text>
</g>
<!-- 保存&#45;&gt;サーバエラー画面 -->
<g id="edge21" class="edge"><title>保存&#45;&gt;サーバエラー画面</title>
<path fill="none" stroke="black" d="M473,-108.561C473,-95.3877 473,-77.6296 473,-62.0282"/>
<polygon fill="black" stroke="black" points="476.5,-61.6547 473,-51.6547 469.5,-61.6547 476.5,-61.6547"/>
<text text-anchor="middle" x="534.39" y="-79.3862" font-family="Times,serif" font-size="14.00">データベースエラー</text>
</g>
<!-- GET /index&#45;&gt;一覧画面 -->
<g id="edge22" class="edge"><title>GET /index&#45;&gt;一覧画面</title>
<path fill="none" stroke="black" d="M277.736,-320.905C275.007,-371.672 274.077,-522.022 350,-606.783 360.896,-618.947 375.47,-627.653 390.723,-633.885"/>
<polygon fill="black" stroke="black" points="389.689,-637.235 400.282,-637.454 392.138,-630.677 389.689,-637.235"/>
</g>
<!-- POST /add&#45;&gt;バリデーション -->
<g id="edge23" class="edge"><title>POST /add&#45;&gt;バリデーション</title>
<path fill="none" stroke="black" d="M1046.43,-570.665C1054.13,-548.586 1066,-508.841 1066,-473.697 1066,-473.697 1066,-473.697 1066,-301.611 1066,-261.144 955.208,-242.502 873.008,-234.24"/>
<polygon fill="black" stroke="black" points="873.172,-230.74 862.882,-233.259 872.498,-237.707 873.172,-230.74"/>
</g>
<!-- GET /edit&#45;&gt;編集画面 -->
<g id="edge24" class="edge"><title>GET /edit&#45;&gt;編集画面</title>
<path fill="none" stroke="black" d="M468.125,-509.336C480.318,-493.864 498.804,-470.407 513.84,-451.329"/>
<polygon fill="black" stroke="black" points="516.603,-453.477 520.044,-443.457 511.105,-449.144 516.603,-453.477"/>
</g>
</g>
</svg>
