<?xml version="1.0" encoding="UTF-8" standalone="no"?>
<!DOCTYPE svg PUBLIC "-//W3C//DTD SVG 1.1//EN"
 "http://www.w3.org/Graphics/SVG/1.1/DTD/svg11.dtd">
<!-- Generated by graphviz version 2.38.0 (20140413.2041)
 -->
<!-- Title: sample Pages: 1 -->
<svg width="1249pt" height="793pt"
 viewBox="0.00 0.00 1249.02 792.96" xmlns="http://www.w3.org/2000/svg" xmlns:xlink="http://www.w3.org/1999/xlink">
<g id="graph0" class="graph" transform="scale(1 1) rotate(0) translate(4 788.955)">
<title>sample</title>
<polygon fill="white" stroke="none" points="-4,4 -4,-788.955 1245.02,-788.955 1245.02,4 -4,4"/>
<!-- 新規作成画面 -->
<g id="node1" class="node"><title>新規作成画面</title>
<ellipse fill="none" stroke="black" cx="818.021" cy="-759.162" rx="90.4494" ry="21.6196"/>
<ellipse fill="none" stroke="black" cx="818.021" cy="-759.162" rx="94.4592" ry="25.5878"/>
<text text-anchor="middle" x="818.021" y="-759.372" font-family="Times,serif" font-size="14.00">新規作成画面 /add</text>
</g>
<!-- 一覧画面 -->
<g id="node3" class="node"><title>一覧画面</title>
<ellipse fill="none" stroke="black" cx="509.021" cy="-650.576" rx="78.2548" ry="21.6196"/>
<ellipse fill="none" stroke="black" cx="509.021" cy="-650.576" rx="82.2611" ry="25.5878"/>
<text text-anchor="middle" x="509.021" y="-650.786" font-family="Times,serif" font-size="14.00">一覧画面 /index</text>
</g>
<!-- 新規作成画面&#45;&gt;一覧画面 -->
<g id="edge1" class="edge"><title>新規作成画面&#45;&gt;一覧画面</title>
<path fill="none" stroke="black" stroke-dasharray="5,2" d="M757.831,-739.23C703.427,-721.086 623.861,-693.681 569.402,-674.353"/>
<polygon fill="black" stroke="black" points="570.469,-671.017 559.875,-670.962 568.122,-677.612 570.469,-671.017"/>
</g>
<!-- GET /index -->
<g id="node10" class="node"><title>GET /index</title>
<ellipse fill="lightgrey" stroke="black" cx="392.021" cy="-302.611" rx="51.4139" ry="18"/>
<text text-anchor="middle" x="392.021" y="-298.411" font-family="Times,serif" font-size="14.00">GET /index</text>
</g>
<!-- 新規作成画面&#45;&gt;GET /index -->
<g id="edge5" class="edge"><title>新規作成画面&#45;&gt;GET /index</title>
<path fill="none" stroke="black" d="M724.9,-754.868C519.572,-746.363 46.0213,-719.395 46.0213,-651.576 46.0213,-651.576 46.0213,-651.576 46.0213,-417.404 46.0213,-357.552 235.213,-323.994 333.798,-310.571"/>
<polygon fill="black" stroke="black" points="334.462,-314.013 343.911,-309.221 333.536,-307.075 334.462,-314.013"/>
<text text-anchor="middle" x="115.811" y="-526.29" font-family="Times,serif" font-size="14.00">戻るボタンをクリック</text>
</g>
<!-- POST /add -->
<g id="node12" class="node"><title>POST /add</title>
<ellipse fill="lightgrey" stroke="black" cx="986.021" cy="-588.783" rx="49.0258" ry="18"/>
<text text-anchor="middle" x="986.021" y="-584.583" font-family="Times,serif" font-size="14.00">POST /add</text>
</g>
<!-- 新規作成画面&#45;&gt;POST /add -->
<g id="edge6" class="edge"><title>新規作成画面&#45;&gt;POST /add</title>
<path fill="none" stroke="black" d="M890.598,-742.618C907.084,-736.342 923.426,-727.58 936.021,-715.369 963.512,-688.718 976.271,-645.026 981.91,-616.84"/>
<polygon fill="black" stroke="black" points="985.378,-617.332 983.738,-606.865 978.492,-616.07 985.378,-617.332"/>
<text text-anchor="middle" x="1022.81" y="-704.169" font-family="Times,serif" font-size="14.00">登録ボタンをクリック</text>
</g>
<!-- サーバエラー画面 -->
<g id="node2" class="node"><title>サーバエラー画面</title>
<ellipse fill="none" stroke="black" cx="179.021" cy="-25.7931" rx="92.3775" ry="21.6196"/>
<ellipse fill="none" stroke="black" cx="179.021" cy="-25.7931" rx="96.3856" ry="25.5878"/>
<text text-anchor="middle" x="179.021" y="-26.0031" font-family="Times,serif" font-size="14.00">サーバエラー画面 </text>
</g>
<!-- 一覧画面&#45;&gt;新規作成画面 -->
<g id="edge2" class="edge"><title>一覧画面&#45;&gt;新規作成画面</title>
<path fill="none" stroke="black" stroke-dasharray="5,2" d="M565.651,-669.322C619.2,-687.142 699.294,-714.707 754.873,-734.404"/>
<polygon fill="black" stroke="black" points="754.014,-737.813 764.608,-737.863 756.357,-731.217 754.014,-737.813"/>
</g>
<!-- 確認ダイアログを表示 -->
<g id="node4" class="node"><title>確認ダイアログを表示</title>
<ellipse fill="none" stroke="black" cx="319.021" cy="-526.99" rx="111.393" ry="21.6196"/>
<ellipse fill="none" stroke="black" cx="319.021" cy="-526.99" rx="115.4" ry="25.5878"/>
<text text-anchor="middle" x="319.021" y="-527.2" font-family="Times,serif" font-size="14.00">確認ダイアログを表示 </text>
</g>
<!-- 一覧画面&#45;&gt;確認ダイアログを表示 -->
<g id="edge9" class="edge"><title>一覧画面&#45;&gt;確認ダイアログを表示</title>
<path fill="none" stroke="black" d="M428.525,-645.328C330.328,-639.307 175.124,-626.749 157.441,-606.783 146.833,-594.805 147.683,-583.462 157.441,-570.783 162.355,-564.399 193.405,-555.502 226.994,-547.474"/>
<polygon fill="black" stroke="black" points="228.058,-550.819 236.992,-545.125 226.457,-544.004 228.058,-550.819"/>
<text text-anchor="middle" x="227.811" y="-588.083" font-family="Times,serif" font-size="14.00">削除ボタンをクリック</text>
</g>
<!-- 編集画面 -->
<g id="node5" class="node"><title>編集画面</title>
<ellipse fill="none" stroke="black" cx="544.021" cy="-418.404" rx="70.9637" ry="21.6196"/>
<ellipse fill="none" stroke="black" cx="544.021" cy="-418.404" rx="74.9627" ry="25.5878"/>
<text text-anchor="middle" x="544.021" y="-418.614" font-family="Times,serif" font-size="14.00">編集画面 /edit</text>
</g>
<!-- 一覧画面&#45;&gt;編集画面 -->
<g id="edge3" class="edge"><title>一覧画面&#45;&gt;編集画面</title>
<path fill="none" stroke="black" stroke-dasharray="5,2" d="M508.432,-624.505C511.788,-583.235 524.11,-500.903 533.755,-454.077"/>
<polygon fill="black" stroke="black" points="537.221,-454.606 535.892,-444.095 530.376,-453.141 537.221,-454.606"/>
</g>
<!-- GET /add -->
<g id="node6" class="node"><title>GET /add</title>
<ellipse fill="lightgrey" stroke="black" cx="872.021" cy="-526.99" rx="44.6565" ry="18"/>
<text text-anchor="middle" x="872.021" y="-522.79" font-family="Times,serif" font-size="14.00">GET /add</text>
</g>
<!-- 一覧画面&#45;&gt;GET /add -->
<g id="edge7" class="edge"><title>一覧画面&#45;&gt;GET /add</title>
<path fill="none" stroke="black" d="M590.542,-647.421C631.481,-642.895 680.089,-631.967 717.021,-606.783 732.792,-596.029 725.295,-582.399 740.441,-570.783 763.663,-552.974 794.582,-542.424 820.613,-536.257"/>
<polygon fill="black" stroke="black" points="821.685,-539.604 830.692,-534.026 820.172,-532.77 821.685,-539.604"/>
<text text-anchor="middle" x="824.811" y="-588.083" font-family="Times,serif" font-size="14.00">新規作成ボタンをクリック</text>
</g>
<!-- GET /edit -->
<g id="node9" class="node"><title>GET /edit</title>
<ellipse fill="lightgrey" stroke="black" cx="591.021" cy="-526.99" rx="45.141" ry="18"/>
<text text-anchor="middle" x="591.021" y="-522.79" font-family="Times,serif" font-size="14.00">GET /edit</text>
</g>
<!-- 一覧画面&#45;&gt;GET /edit -->
<g id="edge8" class="edge"><title>一覧画面&#45;&gt;GET /edit</title>
<path fill="none" stroke="black" d="M520.757,-624.921C528.807,-608.933 540.213,-587.96 552.441,-570.783 557.173,-564.137 562.806,-557.381 568.285,-551.262"/>
<polygon fill="black" stroke="black" points="570.861,-553.631 575.064,-543.905 565.714,-548.887 570.861,-553.631"/>
<text text-anchor="middle" x="622.811" y="-588.083" font-family="Times,serif" font-size="14.00">編集ボタンをクリック</text>
</g>
<!-- 確認ダイアログを表示&#45;&gt;一覧画面 -->
<g id="edge11" class="edge"><title>確認ダイアログを表示&#45;&gt;一覧画面</title>
<path fill="none" stroke="black" d="M312.12,-553.076C309.054,-570.068 308.441,-592.03 320.441,-606.783 333.682,-623.062 378.961,-633.647 421.83,-640.217"/>
<polygon fill="black" stroke="black" points="421.386,-643.689 431.788,-641.68 422.403,-636.763 421.386,-643.689"/>
<text text-anchor="middle" x="390.811" y="-588.083" font-family="Times,serif" font-size="14.00">キャンセルをクリック</text>
</g>
<!-- POST /delete -->
<g id="node13" class="node"><title>POST /delete</title>
<ellipse fill="lightgrey" stroke="black" cx="313.021" cy="-356.611" rx="57.2113" ry="18"/>
<text text-anchor="middle" x="313.021" y="-352.411" font-family="Times,serif" font-size="14.00">POST /delete</text>
</g>
<!-- 確認ダイアログを表示&#45;&gt;POST /delete -->
<g id="edge10" class="edge"><title>確認ダイアログを表示&#45;&gt;POST /delete</title>
<path fill="none" stroke="black" d="M318.136,-501.145C317.029,-470.078 315.14,-417.074 313.994,-384.903"/>
<polygon fill="black" stroke="black" points="317.49,-384.723 313.636,-374.854 310.494,-384.972 317.49,-384.723"/>
<text text-anchor="middle" x="367.021" y="-471.997" font-family="Times,serif" font-size="14.00">ＯＫをクリック</text>
</g>
<!-- 編集画面&#45;&gt;一覧画面 -->
<g id="edge4" class="edge"><title>編集画面&#45;&gt;一覧画面</title>
<path fill="none" stroke="black" stroke-dasharray="5,2" d="M544.613,-444.443C541.27,-485.586 529.006,-567.592 519.371,-614.498"/>
<polygon fill="black" stroke="black" points="515.9,-613.995 517.235,-624.505 522.745,-615.456 515.9,-613.995"/>
</g>
<!-- POST /edit -->
<g id="node8" class="node"><title>POST /edit</title>
<ellipse fill="lightgrey" stroke="black" cx="683.021" cy="-302.611" rx="49.5103" ry="18"/>
<text text-anchor="middle" x="683.021" y="-298.411" font-family="Times,serif" font-size="14.00">POST /edit</text>
</g>
<!-- 編集画面&#45;&gt;POST /edit -->
<g id="edge13" class="edge"><title>編集画面&#45;&gt;POST /edit</title>
<path fill="none" stroke="black" d="M567.633,-393.619C573.219,-387.598 579.006,-381.017 584.021,-374.611 595.788,-359.581 593.014,-351.109 607.441,-338.611 616.402,-330.849 627.375,-324.468 638.152,-319.381"/>
<polygon fill="black" stroke="black" points="639.786,-322.486 647.517,-315.241 636.956,-316.083 639.786,-322.486"/>
<text text-anchor="middle" x="677.811" y="-355.911" font-family="Times,serif" font-size="14.00">登録ボタンをクリック</text>
</g>
<!-- 編集画面&#45;&gt;GET /index -->
<g id="edge12" class="edge"><title>編集画面&#45;&gt;GET /index</title>
<path fill="none" stroke="black" d="M477.714,-406.096C456.951,-399.767 435.337,-389.919 419.441,-374.611 407.417,-363.031 400.583,-345.589 396.744,-330.891"/>
<polygon fill="black" stroke="black" points="400.079,-329.771 394.448,-320.796 393.253,-331.324 400.079,-329.771"/>
<text text-anchor="middle" x="489.811" y="-355.911" font-family="Times,serif" font-size="14.00">戻るボタンをクリック</text>
</g>
<!-- GET /add&#45;&gt;新規作成画面 -->
<g id="edge14" class="edge"><title>GET /add&#45;&gt;新規作成画面</title>
<path fill="none" stroke="black" d="M889.842,-543.681C896.94,-551.1 904.296,-560.567 908.021,-570.783 913.503,-585.815 912.261,-591.355 908.021,-606.783 895.706,-651.595 866.288,-696.558 844.418,-725.696"/>
<polygon fill="black" stroke="black" points="841.479,-723.777 838.185,-733.847 847.04,-728.029 841.479,-723.777"/>
</g>
<!-- 保存 -->
<g id="node7" class="node"><title>保存</title>
<ellipse fill="lightgrey" stroke="black" cx="179.021" cy="-129.092" rx="31.2258" ry="20.5123"/>
<text text-anchor="middle" x="179.021" y="-128.392" font-family="Times,serif" font-size="14.00">保存</text>
</g>
<!-- 保存&#45;&gt;サーバエラー画面 -->
<g id="edge16" class="edge"><title>保存&#45;&gt;サーバエラー画面</title>
<path fill="none" stroke="black" d="M179.021,-108.561C179.021,-95.3877 179.021,-77.6296 179.021,-62.0282"/>
<polygon fill="black" stroke="black" points="182.521,-61.6547 179.021,-51.6547 175.521,-61.6547 182.521,-61.6547"/>
<text text-anchor="middle" x="240.411" y="-79.3862" font-family="Times,serif" font-size="14.00">データベースエラー</text>
</g>
<!-- 保存&#45;&gt;一覧画面 -->
<g id="edge15" class="edge"><title>保存&#45;&gt;一覧画面</title>
<path fill="none" stroke="black" d="M148.25,-132.733C97.0714,-138.994 0.0213102,-159.631 0.0213102,-226.105 0.0213102,-473.697 0.0213102,-473.697 0.0213102,-473.697 0.0213102,-510.429 -0.319654,-525.273 24.0213,-552.783 63.3145,-597.191 88.8265,-591.137 146.021,-606.783 236.34,-631.49 343.142,-641.932 417.418,-646.346"/>
<polygon fill="black" stroke="black" points="417.495,-649.856 427.678,-646.929 417.893,-642.867 417.495,-649.856"/>
<text text-anchor="middle" x="14.0213" y="-355.911" font-family="Times,serif" font-size="14.00">成功</text>
</g>
<!-- バリデーション -->
<g id="node11" class="node"><title>バリデーション</title>
<ellipse fill="lightgrey" stroke="black" cx="683.021" cy="-227.105" rx="80.429" ry="20.5123"/>
<text text-anchor="middle" x="683.021" y="-226.405" font-family="Times,serif" font-size="14.00">バリデーション</text>
</g>
<!-- POST /edit&#45;&gt;バリデーション -->
<g id="edge17" class="edge"><title>POST /edit&#45;&gt;バリデーション</title>
<path fill="none" stroke="black" d="M683.021,-284.562C683.021,-276.637 683.021,-266.975 683.021,-257.901"/>
<polygon fill="black" stroke="black" points="686.521,-257.658 683.021,-247.658 679.521,-257.658 686.521,-257.658"/>
</g>
<!-- GET /edit&#45;&gt;編集画面 -->
<g id="edge18" class="edge"><title>GET /edit&#45;&gt;編集画面</title>
<path fill="none" stroke="black" d="M583.47,-508.865C576.885,-493.932 567.137,-471.825 558.979,-453.324"/>
<polygon fill="black" stroke="black" points="562.12,-451.772 554.882,-444.035 555.715,-454.597 562.12,-451.772"/>
</g>
<!-- GET /index&#45;&gt;一覧画面 -->
<g id="edge19" class="edge"><title>GET /index&#45;&gt;一覧画面</title>
<path fill="none" stroke="black" d="M392.362,-320.765C392.97,-335.288 394.616,-356.561 399.021,-374.611 410.71,-422.497 466.598,-552.903 493.918,-615.352"/>
<polygon fill="black" stroke="black" points="490.826,-617.015 498.047,-624.768 497.237,-614.204 490.826,-617.015"/>
</g>
<!-- バリデーション&#45;&gt;新規作成画面 -->
<g id="edge21" class="edge"><title>バリデーション&#45;&gt;新規作成画面</title>
<path fill="none" stroke="black" d="M759.756,-233.456C883.896,-243.155 1115.02,-265.997 1115.02,-301.611 1115.02,-651.576 1115.02,-651.576 1115.02,-651.576 1115.02,-681.036 1119.09,-695.856 1097.02,-715.369 1071.17,-738.224 989.335,-748.884 920.93,-753.849"/>
<polygon fill="black" stroke="black" points="920.677,-750.358 910.943,-754.541 921.161,-757.341 920.677,-750.358"/>
<text text-anchor="middle" x="1178.02" y="-471.997" font-family="Times,serif" font-size="14.00">入力値が不正な場合</text>
</g>
<!-- バリデーション&#45;&gt;一覧画面 -->
<g id="edge23" class="edge"><title>バリデーション&#45;&gt;一覧画面</title>
<path fill="none" stroke="black" d="M709.63,-246.522C721.643,-256.355 734.747,-269.538 742.021,-284.611 773.513,-349.86 743.326,-555.627 692.021,-606.783 677.827,-620.936 635.102,-631.361 594.504,-638.377"/>
<polygon fill="black" stroke="black" points="593.809,-634.944 584.522,-640.043 594.962,-641.849 593.809,-634.944"/>
<text text-anchor="middle" x="818.021" y="-417.704" font-family="Times,serif" font-size="14.00">入力値が不正な場合</text>
</g>
<!-- バリデーション&#45;&gt;編集画面 -->
<g id="edge22" class="edge"><title>バリデーション&#45;&gt;編集画面</title>
<path fill="none" stroke="black" d="M604.057,-231.274C565.554,-237.302 522.396,-251.679 498.021,-284.611 488.502,-297.471 488.441,-307.796 498.021,-320.611 514.946,-343.251 542.097,-315.971 559.021,-338.611 568.528,-351.328 566.59,-368.348 561.517,-383.315"/>
<polygon fill="black" stroke="black" points="558.195,-382.2 557.819,-392.788 564.716,-384.745 558.195,-382.2"/>
<text text-anchor="middle" x="561.021" y="-301.911" font-family="Times,serif" font-size="14.00">入力値が不正な場合</text>
</g>
<!-- バリデーション&#45;&gt;保存 -->
<g id="edge20" class="edge"><title>バリデーション&#45;&gt;保存</title>
<path fill="none" stroke="black" d="M620.462,-214.187C515.205,-194.135 305.661,-154.217 218.49,-137.611"/>
<polygon fill="black" stroke="black" points="218.96,-134.138 208.481,-135.704 217.65,-141.014 218.96,-134.138"/>
<text text-anchor="middle" x="540.021" y="-177.398" font-family="Times,serif" font-size="14.00">入力値が妥当な場合</text>
</g>
<!-- POST /add&#45;&gt;バリデーション -->
<g id="edge24" class="edge"><title>POST /add&#45;&gt;バリデーション</title>
<path fill="none" stroke="black" d="M976.875,-570.942C965.918,-549.156 949.021,-509.719 949.021,-473.697 949.021,-473.697 949.021,-473.697 949.021,-301.611 949.021,-263.553 846.581,-244.422 768.844,-235.384"/>
<polygon fill="black" stroke="black" points="768.863,-231.864 758.535,-234.227 768.082,-238.821 768.863,-231.864"/>
</g>
<!-- POST /delete&#45;&gt;バリデーション -->
<g id="edge25" class="edge"><title>POST /delete&#45;&gt;バリデーション</title>
<path fill="none" stroke="black" d="M312.664,-338.303C313.328,-322.001 317.058,-298.122 332.021,-284.611 369.552,-250.72 502.839,-237.064 593.925,-231.625"/>
<polygon fill="black" stroke="black" points="594.2,-235.115 603.983,-231.047 593.799,-228.126 594.2,-235.115"/>
</g>
</g>
</svg>
