<?xml version="1.0" encoding="UTF-8" standalone="no"?>
<!DOCTYPE svg PUBLIC "-//W3C//DTD SVG 1.1//EN"
 "http://www.w3.org/Graphics/SVG/1.1/DTD/svg11.dtd">
<!-- Generated by graphviz version 2.38.0 (20140413.2041)
 -->
<!-- Title: sample Pages: 1 -->
<svg width="671pt" height="657pt"
 viewBox="0.00 0.00 671.27 657.00" xmlns="http://www.w3.org/2000/svg" xmlns:xlink="http://www.w3.org/1999/xlink">
<g id="graph0" class="graph" transform="scale(1 1) rotate(0) translate(4 653)">
<title>sample</title>
<polygon fill="white" stroke="none" points="-4,4 -4,-653 667.267,-653 667.267,4 -4,4"/>
<text text-anchor="middle" x="331.634" y="-630.6" font-family="Times,serif" font-size="18.00">CRUD View Diagram</text>
<!-- List View -->
<g id="node1" class="node"><title>List View</title>
<ellipse fill="none" stroke="black" cx="273.267" cy="-601" rx="68.7341" ry="18"/>
<ellipse fill="none" stroke="black" cx="273.267" cy="-601" rx="72.7266" ry="22"/>
<text text-anchor="middle" x="273.267" y="-596.8" font-family="Times,serif" font-size="14.00">List View /index</text>
</g>
<!-- Add View -->
<g id="node2" class="node"><title>Add View</title>
<ellipse fill="none" stroke="black" cx="133.267" cy="-391" rx="63.4164" ry="18"/>
<ellipse fill="none" stroke="black" cx="133.267" cy="-391" rx="67.4139" ry="22"/>
<text text-anchor="middle" x="133.267" y="-386.8" font-family="Times,serif" font-size="14.00">Add View /add</text>
</g>
<!-- List View&#45;&gt;Add View -->
<g id="edge1" class="edge"><title>List View&#45;&gt;Add View</title>
<path fill="none" stroke="black" stroke-dasharray="5,2" d="M203.481,-594.638C178.442,-589.496 152.083,-579.664 134.267,-561 99.2998,-524.368 106.872,-460.49 118.305,-422.636"/>
<polygon fill="black" stroke="black" points="121.777,-423.287 121.601,-412.694 115.132,-421.085 121.777,-423.287"/>
</g>
<!-- Show Confirm -->
<g id="node5" class="node"><title>Show Confirm</title>
<ellipse fill="none" stroke="black" cx="375.267" cy="-507" rx="64.3125" ry="18"/>
<ellipse fill="none" stroke="black" cx="375.267" cy="-507" rx="68.3219" ry="22"/>
<text text-anchor="middle" x="375.267" y="-502.8" font-family="Times,serif" font-size="14.00">Show Confirm </text>
</g>
<!-- List View&#45;&gt;Show Confirm -->
<g id="edge6" class="edge"><title>List View&#45;&gt;Show Confirm</title>
<path fill="none" stroke="black" d="M327.982,-586.388C341.573,-580.602 354.912,-572.445 364.267,-561 369.312,-554.828 372.222,-546.927 373.857,-539.12"/>
<polygon fill="black" stroke="black" points="377.343,-539.47 375.345,-529.066 370.419,-538.446 377.343,-539.47"/>
<text text-anchor="middle" x="424.533" y="-549.8" font-family="Times,serif" font-size="14.00">Click delete button</text>
</g>
<!-- GET /edit -->
<g id="node7" class="node"><title>GET /edit</title>
<ellipse fill="lightgrey" stroke="black" cx="504.267" cy="-449" rx="45.141" ry="18"/>
<text text-anchor="middle" x="504.267" y="-444.8" font-family="Times,serif" font-size="14.00">GET /edit</text>
</g>
<!-- List View&#45;&gt;GET /edit -->
<g id="edge5" class="edge"><title>List View&#45;&gt;GET /edit</title>
<path fill="none" stroke="black" d="M343.641,-595.236C396.477,-590.172 462.911,-580.141 482.267,-561 504.146,-539.364 507.488,-502.653 506.786,-477.412"/>
<polygon fill="black" stroke="black" points="510.279,-477.185 506.28,-467.374 503.288,-477.538 510.279,-477.185"/>
<text text-anchor="middle" x="540.319" y="-549.8" font-family="Times,serif" font-size="14.00">Click edit button</text>
</g>
<!-- GET /add -->
<g id="node9" class="node"><title>GET /add</title>
<ellipse fill="lightgrey" stroke="black" cx="189.267" cy="-507" rx="44.6565" ry="18"/>
<text text-anchor="middle" x="189.267" y="-502.8" font-family="Times,serif" font-size="14.00">GET /add</text>
</g>
<!-- List View&#45;&gt;GET /add -->
<g id="edge4" class="edge"><title>List View&#45;&gt;GET /add</title>
<path fill="none" stroke="black" d="M204.216,-593.805C183.424,-588.324 162.749,-578.481 149.943,-561 142.261,-550.513 149.113,-538.911 159.124,-529.242"/>
<polygon fill="black" stroke="black" points="161.542,-531.779 166.811,-522.587 156.96,-526.487 161.542,-531.779"/>
<text text-anchor="middle" x="196.929" y="-549.8" font-family="Times,serif" font-size="14.00">Click add button</text>
</g>
<!-- Add View&#45;&gt;List View -->
<g id="edge2" class="edge"><title>Add View&#45;&gt;List View</title>
<path fill="none" stroke="black" stroke-dasharray="5,2" d="M132.323,-413.262C126.539,-449.008 114.215,-521.137 152.267,-561 164.508,-573.823 180.782,-582.478 197.433,-588.306"/>
<polygon fill="black" stroke="black" points="196.662,-591.734 207.252,-591.422 198.779,-585.061 196.662,-591.734"/>
</g>
<!-- GET /index -->
<g id="node6" class="node"><title>GET /index</title>
<ellipse fill="lightgrey" stroke="black" cx="474.267" cy="-22" rx="51.4139" ry="18"/>
<text text-anchor="middle" x="474.267" y="-17.8" font-family="Times,serif" font-size="14.00">GET /index</text>
</g>
<!-- Add View&#45;&gt;GET /index -->
<g id="edge7" class="edge"><title>Add View&#45;&gt;GET /index</title>
<path fill="none" stroke="black" d="M188.932,-378.4C238.511,-364.426 303.267,-335.543 303.267,-280 303.267,-280 303.267,-280 303.267,-115 303.267,-88.1488 311.205,-78.6549 332.267,-62 355.664,-43.4987 387.229,-33.7607 414.658,-28.6412"/>
<polygon fill="black" stroke="black" points="415.282,-32.0853 424.553,-26.9563 414.107,-25.1846 415.282,-32.0853"/>
<text text-anchor="middle" x="353.036" y="-201.8" font-family="Times,serif" font-size="14.00">Click back button</text>
</g>
<!-- POST /add -->
<g id="node12" class="node"><title>POST /add</title>
<ellipse fill="lightgrey" stroke="black" cx="93.2673" cy="-279" rx="49.0258" ry="18"/>
<text text-anchor="middle" x="93.2673" y="-274.8" font-family="Times,serif" font-size="14.00">POST /add</text>
</g>
<!-- Add View&#45;&gt;POST /add -->
<g id="edge8" class="edge"><title>Add View&#45;&gt;POST /add</title>
<path fill="none" stroke="black" d="M91.8578,-373.361C82.7606,-367.674 74.2856,-360.323 69.0398,-351 61.1934,-337.056 64.2696,-330.272 69.0398,-315 70.1077,-311.581 71.6397,-308.202 73.4217,-304.97"/>
<polygon fill="black" stroke="black" points="76.4986,-306.655 78.9286,-296.343 70.5981,-302.889 76.4986,-306.655"/>
<text text-anchor="middle" x="124.881" y="-328.8" font-family="Times,serif" font-size="14.00">Click submit button</text>
</g>
<!-- Edit View -->
<g id="node3" class="node"><title>Edit View</title>
<ellipse fill="none" stroke="black" cx="474.267" cy="-116" rx="63.4164" ry="18"/>
<ellipse fill="none" stroke="black" cx="474.267" cy="-116" rx="67.4139" ry="22"/>
<text text-anchor="middle" x="474.267" y="-111.8" font-family="Times,serif" font-size="14.00">Edit View /edit</text>
</g>
<!-- Edit View&#45;&gt;List View -->
<g id="edge3" class="edge"><title>Edit View&#45;&gt;List View</title>
<path fill="none" stroke="black" stroke-dasharray="5,2" d="M533.08,-127.017C575.478,-138.002 625.267,-160.397 625.267,-205 625.267,-508 625.267,-508 625.267,-508 625.267,-535.986 614.96,-546.105 591.267,-561 553.278,-584.882 436.853,-594.152 355.955,-597.742"/>
<polygon fill="black" stroke="black" points="355.622,-594.253 345.779,-598.173 355.918,-601.247 355.622,-594.253"/>
</g>
<!-- Edit View&#45;&gt;GET /index -->
<g id="edge9" class="edge"><title>Edit View&#45;&gt;GET /index</title>
<path fill="none" stroke="black" d="M474.267,-93.6621C474.267,-80.8454 474.267,-64.4022 474.267,-50.6033"/>
<polygon fill="black" stroke="black" points="477.767,-50.2235 474.267,-40.2235 470.767,-50.2236 477.767,-50.2235"/>
<text text-anchor="middle" x="524.036" y="-64.8" font-family="Times,serif" font-size="14.00">Click back button</text>
</g>
<!-- POST /edit -->
<g id="node8" class="node"><title>POST /edit</title>
<ellipse fill="lightgrey" stroke="black" cx="277.267" cy="-22" rx="49.5103" ry="18"/>
<text text-anchor="middle" x="277.267" y="-17.8" font-family="Times,serif" font-size="14.00">POST /edit</text>
</g>
<!-- Edit View&#45;&gt;POST /edit -->
<g id="edge10" class="edge"><title>Edit View&#45;&gt;POST /edit</title>
<path fill="none" stroke="black" d="M424.417,-101.109C403.727,-94.5866 379.761,-86.0278 359.04,-76 340.709,-67.129 321.537,-54.8821 306.368,-44.3956"/>
<polygon fill="black" stroke="black" points="308.128,-41.3548 297.935,-38.4635 304.1,-47.08 308.128,-41.3548"/>
<text text-anchor="middle" x="414.881" y="-64.8" font-family="Times,serif" font-size="14.00">Click submit button</text>
</g>
<!-- Server Error -->
<g id="node4" class="node"><title>Server Error</title>
<ellipse fill="none" stroke="black" cx="60.2673" cy="-22" rx="56.0509" ry="18"/>
<ellipse fill="none" stroke="black" cx="60.2673" cy="-22" rx="60.0355" ry="22"/>
<text text-anchor="middle" x="60.2673" y="-17.8" font-family="Times,serif" font-size="14.00">Server Error </text>
</g>
<!-- Show Confirm&#45;&gt;List View -->
<g id="edge12" class="edge"><title>Show Confirm&#45;&gt;List View</title>
<path fill="none" stroke="black" d="M324.308,-521.753C310.749,-527.587 297.211,-535.733 287.567,-547 282.251,-553.211 278.892,-561.21 276.775,-569.102"/>
<polygon fill="black" stroke="black" points="273.348,-568.391 274.705,-578.899 280.197,-569.838 273.348,-568.391"/>
<text text-anchor="middle" x="324.617" y="-549.8" font-family="Times,serif" font-size="14.00">Click Cancel</text>
</g>
<!-- POST /delete -->
<g id="node11" class="node"><title>POST /delete</title>
<ellipse fill="lightgrey" stroke="black" cx="375.267" cy="-333" rx="57.2113" ry="18"/>
<text text-anchor="middle" x="375.267" y="-328.8" font-family="Times,serif" font-size="14.00">POST /delete</text>
</g>
<!-- Show Confirm&#45;&gt;POST /delete -->
<g id="edge11" class="edge"><title>Show Confirm&#45;&gt;POST /delete</title>
<path fill="none" stroke="black" d="M375.267,-484.909C375.267,-453.827 375.267,-395.698 375.267,-361.367"/>
<polygon fill="black" stroke="black" points="378.767,-361.121 375.267,-351.121 371.767,-361.121 378.767,-361.121"/>
<text text-anchor="middle" x="402.293" y="-444.8" font-family="Times,serif" font-size="14.00">Click OK</text>
</g>
<!-- GET /index&#45;&gt;List View -->
<g id="edge13" class="edge"><title>GET /index&#45;&gt;List View</title>
<path fill="none" stroke="black" d="M524.42,-26.2263C580.412,-32.8668 663.267,-53.1436 663.267,-115 663.267,-508 663.267,-508 663.267,-508 663.267,-540.08 642.88,-546.493 614.267,-561 570.43,-583.226 441.487,-593.002 355.327,-597.144"/>
<polygon fill="black" stroke="black" points="355.129,-593.649 345.302,-597.61 355.454,-600.642 355.129,-593.649"/>
</g>
<!-- GET /edit&#45;&gt;Edit View -->
<g id="edge14" class="edge"><title>GET /edit&#45;&gt;Edit View</title>
<path fill="none" stroke="black" d="M502.784,-430.633C501.007,-408.295 498.267,-368.287 498.267,-334 498.267,-334 498.267,-334 498.267,-205 498.267,-185.46 492.692,-164.312 486.915,-147.646"/>
<polygon fill="black" stroke="black" points="490.071,-146.086 483.341,-137.903 483.499,-148.497 490.071,-146.086"/>
</g>
<!-- Validate -->
<g id="node13" class="node"><title>Validate</title>
<ellipse fill="lightgrey" stroke="black" cx="215.267" cy="-206" rx="39.1627" ry="18"/>
<text text-anchor="middle" x="215.267" y="-201.8" font-family="Times,serif" font-size="14.00">Validate</text>
</g>
<!-- POST /edit&#45;&gt;Validate -->
<g id="edge15" class="edge"><title>POST /edit&#45;&gt;Validate</title>
<path fill="none" stroke="black" d="M271.495,-39.944C260.713,-71.5946 237.435,-139.928 224.466,-177.998"/>
<polygon fill="black" stroke="black" points="221.012,-177.283 221.1,-187.878 227.638,-179.541 221.012,-177.283"/>
</g>
<!-- GET /add&#45;&gt;Add View -->
<g id="edge16" class="edge"><title>GET /add&#45;&gt;Add View</title>
<path fill="none" stroke="black" d="M181.004,-489.179C172.311,-471.483 158.455,-443.274 147.904,-421.797"/>
<polygon fill="black" stroke="black" points="151.016,-420.193 143.465,-412.76 144.733,-423.279 151.016,-420.193"/>
</g>
<!-- Save -->
<g id="node10" class="node"><title>Save</title>
<ellipse fill="lightgrey" stroke="black" cx="60.2673" cy="-116" rx="27.0958" ry="18"/>
<text text-anchor="middle" x="60.2673" y="-111.8" font-family="Times,serif" font-size="14.00">Save</text>
</g>
<!-- Save&#45;&gt;List View -->
<g id="edge17" class="edge"><title>Save&#45;&gt;List View</title>
<path fill="none" stroke="black" d="M43.8325,-130.375C26.3749,-146.193 1.26729,-174.282 1.26729,-205 1.26729,-508 1.26729,-508 1.26729,-508 1.26729,-549.651 117.16,-576.126 197.649,-589.491"/>
<polygon fill="black" stroke="black" points="197.339,-592.986 207.77,-591.134 198.46,-586.076 197.339,-592.986"/>
<text text-anchor="middle" x="23.4294" y="-328.8" font-family="Times,serif" font-size="14.00">Success</text>
</g>
<!-- Save&#45;&gt;Server Error -->
<g id="edge18" class="edge"><title>Save&#45;&gt;Server Error</title>
<path fill="none" stroke="black" d="M60.2673,-97.6955C60.2673,-85.4651 60.2673,-68.7287 60.2673,-54.1979"/>
<polygon fill="black" stroke="black" points="63.7674,-54.103 60.2673,-44.1031 56.7674,-54.1031 63.7674,-54.103"/>
<text text-anchor="middle" x="101.269" y="-64.8" font-family="Times,serif" font-size="14.00">Database error</text>
</g>
<!-- POST /delete&#45;&gt;Validate -->
<g id="edge19" class="edge"><title>POST /delete&#45;&gt;Validate</title>
<path fill="none" stroke="black" d="M359.398,-315.55C340.591,-296.552 307.814,-264.97 276.267,-242 267.902,-235.909 258.39,-230.015 249.408,-224.855"/>
<polygon fill="black" stroke="black" points="251.099,-221.791 240.664,-219.96 247.679,-227.899 251.099,-221.791"/>
</g>
<!-- POST /add&#45;&gt;Validate -->
<g id="edge20" class="edge"><title>POST /add&#45;&gt;Validate</title>
<path fill="none" stroke="black" d="M118.25,-263.461C136.991,-252.554 162.798,-237.536 183.084,-225.73"/>
<polygon fill="black" stroke="black" points="185.089,-228.613 191.971,-220.558 181.568,-222.563 185.089,-228.613"/>
</g>
<!-- Validate&#45;&gt;List View -->
<g id="edge24" class="edge"><title>Validate&#45;&gt;List View</title>
<path fill="none" stroke="black" d="M233.036,-222.298C246.346,-235.536 262.267,-255.974 262.267,-278 262.267,-450 262.267,-450 262.267,-450 262.267,-491.109 266.428,-538.387 269.631,-568.698"/>
<polygon fill="black" stroke="black" points="266.155,-569.111 270.716,-578.674 273.114,-568.354 266.155,-569.111"/>
<text text-anchor="middle" x="282.095" y="-386.8" font-family="Times,serif" font-size="14.00">Invalid</text>
</g>
<!-- Validate&#45;&gt;Add View -->
<g id="edge22" class="edge"><title>Validate&#45;&gt;Add View</title>
<path fill="none" stroke="black" d="M212.516,-224.008C206.908,-257.31 193.556,-329.724 180.267,-351 177.318,-355.721 173.602,-360.146 169.558,-364.198"/>
<polygon fill="black" stroke="black" points="167.05,-361.748 162.018,-371.072 171.766,-366.921 167.05,-361.748"/>
<text text-anchor="middle" x="226.095" y="-274.8" font-family="Times,serif" font-size="14.00">Invalid</text>
</g>
<!-- Validate&#45;&gt;Edit View -->
<g id="edge23" class="edge"><title>Validate&#45;&gt;Edit View</title>
<path fill="none" stroke="black" d="M245.74,-194.647C288.289,-180.19 366.216,-153.712 419.114,-135.739"/>
<polygon fill="black" stroke="black" points="420.344,-139.018 428.686,-132.487 418.092,-132.39 420.344,-139.018"/>
<text text-anchor="middle" x="373.095" y="-158.8" font-family="Times,serif" font-size="14.00">Invalid</text>
</g>
<!-- Validate&#45;&gt;Save -->
<g id="edge21" class="edge"><title>Validate&#45;&gt;Save</title>
<path fill="none" stroke="black" d="M191.388,-191.443C163.956,-175.868 118.943,-150.313 89.4543,-133.571"/>
<polygon fill="black" stroke="black" points="90.8917,-130.362 80.4675,-128.468 87.4356,-136.449 90.8917,-130.362"/>
<text text-anchor="middle" x="167.043" y="-158.8" font-family="Times,serif" font-size="14.00">Valid</text>
</g>
</g>
</svg>
