<?xml version="1.0" encoding="UTF-8" standalone="no"?>
<!DOCTYPE svg PUBLIC "-//W3C//DTD SVG 1.1//EN"
 "http://www.w3.org/Graphics/SVG/1.1/DTD/svg11.dtd">
<!-- Generated by graphviz version 2.38.0 (20140413.2041)
 -->
<!-- Title: erd Pages: 1 -->
<svg width="325pt" height="576pt"
 viewBox="0.00 0.00 324.95 576.00" xmlns="http://www.w3.org/2000/svg" xmlns:xlink="http://www.w3.org/1999/xlink">
<g id="graph0" class="graph" transform="scale(1 1) rotate(0) translate(4 572.001)">
<title>erd</title>
<polygon fill="white" stroke="none" points="-4,4 -4,-572.001 320.95,-572.001 320.95,4 -4,4"/>
<!-- employees -->
<g id="node1" class="node"><title>employees</title>
<path fill="none" stroke="black" d="M24.8584,-124.5C24.8584,-124.5 136.544,-124.5 136.544,-124.5 142.544,-124.5 148.544,-130.5 148.544,-136.5 148.544,-136.5 148.544,-344.5 148.544,-344.5 148.544,-350.5 142.544,-356.5 136.544,-356.5 136.544,-356.5 24.8584,-356.5 24.8584,-356.5 18.8584,-356.5 12.8584,-350.5 12.8584,-344.5 12.8584,-344.5 12.8584,-136.5 12.8584,-136.5 12.8584,-130.5 18.8584,-124.5 24.8584,-124.5"/>
<text text-anchor="middle" x="80.7014" y="-341.3" font-family="ヒラギノ角ゴ StdN" font-size="14.00">[employees]</text>
<polyline fill="none" stroke="black" points="12.8584,-327.5 148.544,-327.5 "/>
<text text-anchor="middle" x="80.7014" y="-312.3" font-family="ヒラギノ角ゴ StdN" font-size="14.00">id</text>
<polyline fill="none" stroke="black" points="12.8584,-298.5 148.544,-298.5 "/>
<text text-anchor="middle" x="80.7014" y="-283.3" font-family="ヒラギノ角ゴ StdN" font-size="14.00">birth_date</text>
<polyline fill="none" stroke="black" points="12.8584,-269.5 148.544,-269.5 "/>
<text text-anchor="middle" x="80.7014" y="-254.3" font-family="ヒラギノ角ゴ StdN" font-size="14.00">first_name</text>
<polyline fill="none" stroke="black" points="12.8584,-240.5 148.544,-240.5 "/>
<text text-anchor="middle" x="80.7014" y="-225.3" font-family="ヒラギノ角ゴ StdN" font-size="14.00">last_name</text>
<polyline fill="none" stroke="black" points="12.8584,-211.5 148.544,-211.5 "/>
<text text-anchor="middle" x="80.7014" y="-196.3" font-family="ヒラギノ角ゴ StdN" font-size="14.00">gender</text>
<polyline fill="none" stroke="black" points="12.8584,-182.5 148.544,-182.5 "/>
<text text-anchor="middle" x="80.7014" y="-167.3" font-family="ヒラギノ角ゴ StdN" font-size="14.00">hire_date</text>
<polyline fill="none" stroke="black" points="12.8584,-153.5 148.544,-153.5 "/>
<text text-anchor="middle" x="80.7014" y="-138.3" font-family="ヒラギノ角ゴ StdN" font-size="14.00">department_id</text>
</g>
<!-- departments -->
<g id="node2" class="node"><title>departments</title>
<path fill="none" stroke="black" d="M24.8514,-0.5C24.8514,-0.5 136.551,-0.5 136.551,-0.5 142.551,-0.5 148.551,-6.5 148.551,-12.5 148.551,-12.5 148.551,-75.5001 148.551,-75.5001 148.551,-81.5001 142.551,-87.5001 136.551,-87.5001 136.551,-87.5001 24.8514,-87.5001 24.8514,-87.5001 18.8514,-87.5001 12.8514,-81.5001 12.8514,-75.5001 12.8514,-75.5001 12.8514,-12.5 12.8514,-12.5 12.8514,-6.5 18.8514,-0.5 24.8514,-0.5"/>
<text text-anchor="middle" x="80.7014" y="-72.3001" font-family="ヒラギノ角ゴ StdN" font-size="14.00">[departments]</text>
<polyline fill="none" stroke="black" points="12.8514,-58.5001 148.551,-58.5001 "/>
<text text-anchor="middle" x="80.7014" y="-43.3001" font-family="ヒラギノ角ゴ StdN" font-size="14.00">id</text>
<polyline fill="none" stroke="black" points="12.8514,-29.5 148.551,-29.5 "/>
<text text-anchor="middle" x="80.7014" y="-14.3" font-family="ヒラギノ角ゴ StdN" font-size="14.00">name</text>
</g>
<!-- employees&#45;&gt;departments -->
<g id="edge3" class="edge"><title>employees:department_id&#45;&gt;departments:id</title>
<path fill="none" stroke="black" d="M80.7014,-124C80.7014,-89.8039 130.731,-117.094 148.701,-88.0001 158.981,-71.3581 169.262,-44.0001 149.701,-44.0001"/>
</g>
<!-- titles -->
<g id="node3" class="node"><title>titles</title>
<path fill="none" stroke="black" d="M192.674,-197C192.674,-197 238.728,-197 238.728,-197 244.728,-197 250.728,-203 250.728,-209 250.728,-209 250.728,-272 250.728,-272 250.728,-278 244.728,-284 238.728,-284 238.728,-284 192.674,-284 192.674,-284 186.674,-284 180.674,-278 180.674,-272 180.674,-272 180.674,-209 180.674,-209 180.674,-203 186.674,-197 192.674,-197"/>
<text text-anchor="middle" x="215.701" y="-268.8" font-family="ヒラギノ角ゴ StdN" font-size="14.00">[titles]</text>
<polyline fill="none" stroke="black" points="180.674,-255 250.728,-255 "/>
<text text-anchor="middle" x="215.701" y="-239.8" font-family="ヒラギノ角ゴ StdN" font-size="14.00">id</text>
<polyline fill="none" stroke="black" points="180.674,-226 250.728,-226 "/>
<text text-anchor="middle" x="215.701" y="-210.8" font-family="ヒラギノ角ゴ StdN" font-size="14.00">name</text>
</g>
<!-- employee_title -->
<g id="node4" class="node"><title>employee_title</title>
<path fill="none" stroke="black" d="M154.048,-408C154.048,-408 277.354,-408 277.354,-408 283.354,-408 289.354,-414 289.354,-420 289.354,-420 289.354,-541.001 289.354,-541.001 289.354,-547.001 283.354,-553.001 277.354,-553.001 277.354,-553.001 154.048,-553.001 154.048,-553.001 148.048,-553.001 142.048,-547.001 142.048,-541.001 142.048,-541.001 142.048,-420 142.048,-420 142.048,-414 148.048,-408 154.048,-408"/>
<text text-anchor="middle" x="215.701" y="-537.801" font-family="ヒラギノ角ゴ StdN" font-size="14.00">[employee_title]</text>
<polyline fill="none" stroke="black" points="142.048,-524.001 289.354,-524.001 "/>
<text text-anchor="middle" x="215.701" y="-508.801" font-family="ヒラギノ角ゴ StdN" font-size="14.00">employee_id</text>
<polyline fill="none" stroke="black" points="142.048,-495.001 289.354,-495.001 "/>
<text text-anchor="middle" x="215.701" y="-479.801" font-family="ヒラギノ角ゴ StdN" font-size="14.00">title_id</text>
<polyline fill="none" stroke="black" points="142.048,-466.001 289.354,-466.001 "/>
<text text-anchor="middle" x="215.701" y="-450.801" font-family="ヒラギノ角ゴ StdN" font-size="14.00">from_date</text>
<polyline fill="none" stroke="black" points="142.048,-437.001 289.354,-437.001 "/>
<text text-anchor="middle" x="215.701" y="-421.801" font-family="ヒラギノ角ゴ StdN" font-size="14.00">to_date</text>
</g>
<!-- employee_title&#45;&gt;employees -->
<g id="edge1" class="edge"><title>employee_title:employee_id&#45;&gt;employees:id</title>
<path fill="none" stroke="black" d="M140.701,-509.501C129.367,-509.501 140.866,-418.804 141.701,-407.5 143.371,-384.903 146.882,-379.586 148.701,-357 150.254,-337.724 169.04,-313.5 149.701,-313.5"/>
</g>
<!-- employee_title&#45;&gt;titles -->
<g id="edge2" class="edge"><title>employee_title:title_id&#45;&gt;titles:id</title>
<path fill="none" stroke="black" d="M290.701,-480.501C344.734,-480.501 305.734,-240.5 251.701,-240.5"/>
</g>
<!-- salaries -->
<g id="node5" class="node"><title>salaries</title>
<path fill="none" stroke="black" d="M18.9094,-393.5C18.9094,-393.5 112.493,-393.5 112.493,-393.5 118.493,-393.5 124.493,-399.5 124.493,-405.5 124.493,-405.5 124.493,-555.501 124.493,-555.501 124.493,-561.501 118.493,-567.501 112.493,-567.501 112.493,-567.501 18.9094,-567.501 18.9094,-567.501 12.9094,-567.501 6.90936,-561.501 6.90936,-555.501 6.90936,-555.501 6.90936,-405.5 6.90936,-405.5 6.90936,-399.5 12.9094,-393.5 18.9094,-393.5"/>
<text text-anchor="middle" x="65.7014" y="-552.301" font-family="ヒラギノ角ゴ StdN" font-size="14.00">[salaries]</text>
<polyline fill="none" stroke="black" points="6.90936,-538.501 124.493,-538.501 "/>
<text text-anchor="middle" x="65.7014" y="-523.301" font-family="ヒラギノ角ゴ StdN" font-size="14.00">id</text>
<polyline fill="none" stroke="black" points="6.90936,-509.501 124.493,-509.501 "/>
<text text-anchor="middle" x="65.7014" y="-494.301" font-family="ヒラギノ角ゴ StdN" font-size="14.00">employee_id</text>
<polyline fill="none" stroke="black" points="6.90936,-480.501 124.493,-480.501 "/>
<text text-anchor="middle" x="65.7014" y="-465.301" font-family="ヒラギノ角ゴ StdN" font-size="14.00">salary</text>
<polyline fill="none" stroke="black" points="6.90936,-451.501 124.493,-451.501 "/>
<text text-anchor="middle" x="65.7014" y="-436.301" font-family="ヒラギノ角ゴ StdN" font-size="14.00">from_date</text>
<polyline fill="none" stroke="black" points="6.90936,-422.501 124.493,-422.501 "/>
<text text-anchor="middle" x="65.7014" y="-407.301" font-family="ヒラギノ角ゴ StdN" font-size="14.00">to_date</text>
</g>
<!-- salaries&#45;&gt;employees -->
<g id="edge4" class="edge"><title>salaries:employee_id&#45;&gt;employees:id</title>
<path fill="none" stroke="black" d="M125.701,-495.501C137.091,-495.501 131.455,-402.171 124.701,-393 93.6959,-350.9 43.9846,-398.895 12.7014,-357 1.13092,-341.505 -7.63715,-313.5 11.7014,-313.5"/>
</g>
</g>
</svg>
