<?xml version="1.0" encoding="UTF-8" standalone="no"?>
<!DOCTYPE svg PUBLIC "-//W3C//DTD SVG 1.1//EN"
 "http://www.w3.org/Graphics/SVG/1.1/DTD/svg11.dtd">
<!-- Generated by graphviz version 2.38.0 (20140413.2041)
 -->
<!-- Title: sample Pages: 1 -->
<svg width="1557pt" height="915pt"
 viewBox="0.00 0.00 1556.92 915.23" xmlns="http://www.w3.org/2000/svg" xmlns:xlink="http://www.w3.org/1999/xlink">
<g id="graph0" class="graph" transform="scale(1 1) rotate(0) translate(4 911.228)">
<title>sample</title>
<polygon fill="white" stroke="none" points="-4,4 -4,-911.228 1552.92,-911.228 1552.92,4 -4,4"/>
<text text-anchor="middle" x="774.461" y="-888.828" font-family="Times,serif" font-size="18.00">スマホアプリの画面遷移図の例</text>
<!-- サイドメニュー -->
<g id="node1" class="node"><title>サイドメニュー</title>
<ellipse fill="none" stroke="black" cx="510.01" cy="-846.435" rx="106.092" ry="21.6196"/>
<ellipse fill="none" stroke="black" cx="510.01" cy="-846.435" rx="110.094" ry="25.5878"/>
<text text-anchor="middle" x="510.01" y="-846.645" font-family="Times,serif" font-size="14.00">サイドメニュー /menu</text>
</g>
<!-- アカウント情報 -->
<g id="node3" class="node"><title>アカウント情報</title>
<ellipse fill="none" stroke="black" cx="370.01" cy="-647.442" rx="116.73" ry="21.6196"/>
<ellipse fill="none" stroke="black" cx="370.01" cy="-647.442" rx="120.733" ry="25.5878"/>
<text text-anchor="middle" x="370.01" y="-647.652" font-family="Times,serif" font-size="14.00">アカウント情報 /account</text>
</g>
<!-- サイドメニュー&#45;&gt;アカウント情報 -->
<g id="edge1" class="edge"><title>サイドメニュー&#45;&gt;アカウント情報</title>
<path fill="none" stroke="black" stroke-dasharray="5,2" d="M444.592,-825.676C423.728,-816.209 402.562,-802.659 389.01,-783.641 368.306,-754.587 365.38,-712.961 366.484,-683.591"/>
<polygon fill="black" stroke="black" points="369.991,-683.548 367.047,-673.37 363.002,-683.162 369.991,-683.548"/>
</g>
<!-- DatabaseFactory.getAccount -->
<g id="node15" class="node"><title>DatabaseFactory.getAccount</title>
<ellipse fill="none" stroke="black" cx="510.01" cy="-757.848" rx="111.855" ry="18"/>
<text text-anchor="middle" x="510.01" y="-753.648" font-family="Times,serif" font-size="14.00">DatabaseFactory.getAccount</text>
</g>
<!-- サイドメニュー&#45;&gt;DatabaseFactory.getAccount -->
<g id="edge7" class="edge"><title>サイドメニュー&#45;&gt;DatabaseFactory.getAccount</title>
<path fill="none" stroke="black" d="M510.01,-820.39C510.01,-809.677 510.01,-797.139 510.01,-786.185"/>
<polygon fill="black" stroke="black" points="513.51,-785.886 510.01,-775.886 506.51,-785.886 513.51,-785.886"/>
</g>
<!-- 記事詳細 -->
<g id="node2" class="node"><title>記事詳細</title>
<ellipse fill="none" stroke="black" cx="469.01" cy="-126.379" rx="101.435" ry="21.6196"/>
<ellipse fill="none" stroke="black" cx="469.01" cy="-126.379" rx="105.443" ry="25.5878"/>
<text text-anchor="middle" x="469.01" y="-126.589" font-family="Times,serif" font-size="14.00">記事詳細 /news/detail</text>
</g>
<!-- 記事一覧 -->
<g id="node4" class="node"><title>記事一覧</title>
<ellipse fill="none" stroke="black" cx="668.01" cy="-537.036" rx="76.4652" ry="21.6196"/>
<ellipse fill="none" stroke="black" cx="668.01" cy="-537.036" rx="80.4643" ry="25.5878"/>
<text text-anchor="middle" x="668.01" y="-537.246" font-family="Times,serif" font-size="14.00">記事一覧 /news</text>
</g>
<!-- 記事詳細&#45;&gt;記事一覧 -->
<g id="edge2" class="edge"><title>記事詳細&#45;&gt;記事一覧</title>
<path fill="none" stroke="black" stroke-dasharray="5,2" d="M424.361,-149.923C395.712,-166.72 364.01,-192.935 364.01,-228.678 364.01,-432.917 364.01,-432.917 364.01,-432.917 364.01,-537.964 484.595,-487.875 587.01,-511.243 592.442,-512.482 598.037,-513.836 603.633,-515.251"/>
<polygon fill="black" stroke="black" points="603.112,-518.731 613.671,-517.852 604.868,-511.955 603.112,-518.731"/>
</g>
<!-- DatabaseFactory.saveFavorite -->
<g id="node16" class="node"><title>DatabaseFactory.saveFavorite</title>
<ellipse fill="none" stroke="black" cx="360.01" cy="-21.7931" rx="116.199" ry="18"/>
<text text-anchor="middle" x="360.01" y="-17.5931" font-family="Times,serif" font-size="14.00">DatabaseFactory.saveFavorite</text>
</g>
<!-- 記事詳細&#45;&gt;DatabaseFactory.saveFavorite -->
<g id="edge8" class="edge"><title>記事詳細&#45;&gt;DatabaseFactory.saveFavorite</title>
<path fill="none" stroke="black" d="M465.322,-100.531C462.292,-87.5987 456.824,-72.2969 447.01,-61.5861 439.898,-53.8243 430.944,-47.524 421.503,-42.4382"/>
<polygon fill="black" stroke="black" points="422.864,-39.207 412.347,-37.9263 419.77,-45.4861 422.864,-39.207"/>
<text text-anchor="middle" x="550.8" y="-71.3862" font-family="Times,serif" font-size="14.00">お気に入りボタンをクリック</text>
</g>
<!-- Webブラウザを起動 -->
<g id="node17" class="node"><title>Webブラウザを起動</title>
<ellipse fill="none" stroke="black" cx="674.01" cy="-21.7931" rx="98.519" ry="21.5881"/>
<text text-anchor="middle" x="674.01" y="-22.0031" font-family="Times,serif" font-size="14.00">Webブラウザを起動</text>
</g>
<!-- 記事詳細&#45;&gt;Webブラウザを起動 -->
<g id="edge9" class="edge"><title>記事詳細&#45;&gt;Webブラウザを起動</title>
<path fill="none" stroke="black" d="M567.968,-117.443C595.558,-111.222 623.976,-100.588 646.01,-82.5862 655.185,-75.0902 661.515,-63.9002 665.803,-53.221"/>
<polygon fill="black" stroke="black" points="669.143,-54.2725 669.189,-43.6778 662.546,-51.9318 669.143,-54.2725"/>
<text text-anchor="middle" x="732.66" y="-71.3862" font-family="Times,serif" font-size="14.00">外部リンクをクリック</text>
</g>
<!-- アカウント情報&#45;&gt;記事一覧 -->
<g id="edge3" class="edge"><title>アカウント情報&#45;&gt;記事一覧</title>
<path fill="none" stroke="black" stroke-dasharray="5,2" d="M480.794,-637.061C538.934,-630.379 602.981,-619.691 627.01,-603.649 638.672,-595.864 647.641,-583.518 654.173,-571.625"/>
<polygon fill="black" stroke="black" points="657.297,-573.203 658.698,-562.701 651.054,-570.037 657.297,-573.203"/>
</g>
<!-- DatabaseFactory.saveUser -->
<g id="node18" class="node"><title>DatabaseFactory.saveUser</title>
<ellipse fill="none" stroke="black" cx="465.01" cy="-537.036" rx="103.653" ry="18"/>
<text text-anchor="middle" x="465.01" y="-532.836" font-family="Times,serif" font-size="14.00">DatabaseFactory.saveUser</text>
</g>
<!-- アカウント情報&#45;&gt;DatabaseFactory.saveUser -->
<g id="edge10" class="edge"><title>アカウント情報&#45;&gt;DatabaseFactory.saveUser</title>
<path fill="none" stroke="black" d="M321.814,-623.517C303.423,-611.619 289.447,-596.35 301.43,-580.829 307.293,-573.236 349.821,-562.239 390.04,-553.295"/>
<polygon fill="black" stroke="black" points="390.902,-556.689 399.92,-551.127 389.402,-549.852 390.902,-556.689"/>
<text text-anchor="middle" x="371.8" y="-591.539" font-family="Times,serif" font-size="14.00">保存ボタンをクリック</text>
</g>
<!-- 記事一覧&#45;&gt;サイドメニュー -->
<g id="edge4" class="edge"><title>記事一覧&#45;&gt;サイドメニュー</title>
<path fill="none" stroke="black" stroke-dasharray="5,2" d="M671.226,-563.068C675.976,-610.805 679.642,-716.106 631.01,-783.641 619.39,-799.779 602.301,-811.989 584.605,-821.108"/>
<polygon fill="black" stroke="black" points="582.799,-818.094 575.322,-825.6 585.848,-824.395 582.799,-818.094"/>
</g>
<!-- 記事一覧&#45;&gt;記事詳細 -->
<g id="edge5" class="edge"><title>記事一覧&#45;&gt;記事詳細</title>
<path fill="none" stroke="black" stroke-dasharray="5,2" d="M605.657,-520.435C593.492,-517.195 580.861,-513.947 569.01,-511.243 466.595,-487.875 346.01,-537.964 346.01,-432.917 346.01,-432.917 346.01,-432.917 346.01,-228.678 346.01,-195.206 373.812,-170.09 403.04,-153.239"/>
<polygon fill="black" stroke="black" points="405.029,-156.14 412.127,-148.274 401.673,-149.997 405.029,-156.14"/>
</g>
<!-- NewsFactory.list -->
<g id="node19" class="node"><title>NewsFactory.list</title>
<ellipse fill="none" stroke="black" cx="565.01" cy="-431.917" rx="69.9197" ry="18"/>
<text text-anchor="middle" x="565.01" y="-427.717" font-family="Times,serif" font-size="14.00">NewsFactory.list</text>
</g>
<!-- 記事一覧&#45;&gt;NewsFactory.list -->
<g id="edge11" class="edge"><title>記事一覧&#45;&gt;NewsFactory.list</title>
<path fill="none" stroke="black" d="M609.591,-519.272C599.11,-516.456 588.262,-513.666 578.01,-511.243 537.887,-501.762 513.182,-525.099 487.01,-493.243 473.243,-476.486 492.202,-461.541 514.87,-450.718"/>
<polygon fill="black" stroke="black" points="516.32,-453.903 524.024,-446.631 513.466,-447.511 516.32,-453.903"/>
<text text-anchor="middle" x="515.01" y="-481.133" font-family="Times,serif" font-size="14.00">自動取得</text>
</g>
<!-- NewsDetailController.show -->
<g id="node20" class="node"><title>NewsDetailController.show</title>
<ellipse fill="none" stroke="black" cx="1090.01" cy="-431.917" rx="108.705" ry="18"/>
<text text-anchor="middle" x="1090.01" y="-427.717" font-family="Times,serif" font-size="14.00">NewsDetailController.show</text>
</g>
<!-- 記事一覧&#45;&gt;NewsDetailController.show -->
<g id="edge12" class="edge"><title>記事一覧&#45;&gt;NewsDetailController.show</title>
<path fill="none" stroke="black" d="M730.732,-520.709C808.677,-501.663 941.21,-469.277 1021.67,-449.615"/>
<polygon fill="black" stroke="black" points="1022.82,-452.938 1031.7,-447.164 1021.16,-446.138 1022.82,-452.938"/>
<text text-anchor="middle" x="979.01" y="-481.133" font-family="Times,serif" font-size="14.00">記事をクリック</text>
</g>
<!-- ログイン -->
<g id="node5" class="node"><title>ログイン</title>
<ellipse fill="none" stroke="black" cx="935.01" cy="-757.848" rx="54.52" ry="21.6196"/>
<ellipse fill="none" stroke="black" cx="935.01" cy="-757.848" rx="58.5031" ry="25.5878"/>
<text text-anchor="middle" x="935.01" y="-758.058" font-family="Times,serif" font-size="14.00">ログイン /</text>
</g>
<!-- ログイン&#45;&gt;記事一覧 -->
<g id="edge6" class="edge"><title>ログイン&#45;&gt;記事一覧</title>
<path fill="none" stroke="black" stroke-dasharray="5,2" d="M907.939,-734.663C859.642,-695.083 758.607,-612.282 704.333,-567.803"/>
<polygon fill="black" stroke="black" points="706.311,-564.899 696.358,-561.268 701.874,-570.313 706.311,-564.899"/>
</g>
<!-- UserFactory.login -->
<g id="node21" class="node"><title>UserFactory.login</title>
<ellipse fill="none" stroke="black" cx="1124.01" cy="-647.442" rx="73.7696" ry="18"/>
<text text-anchor="middle" x="1124.01" y="-643.242" font-family="Times,serif" font-size="14.00">UserFactory.login</text>
</g>
<!-- ログイン&#45;&gt;UserFactory.login -->
<g id="edge13" class="edge"><title>ログイン&#45;&gt;UserFactory.login</title>
<path fill="none" stroke="black" d="M928.745,-732.202C926.838,-718.688 927.249,-702.452 936.39,-691.235 950.567,-673.839 1001.53,-662.917 1046.77,-656.464"/>
<polygon fill="black" stroke="black" points="1047.48,-659.899 1056.92,-655.076 1046.53,-652.963 1047.48,-659.899"/>
<text text-anchor="middle" x="1019.82" y="-701.945" font-family="Times,serif" font-size="14.00">ログインボタンをクリック</text>
</g>
<!-- GET /api/v1/news/:news_id -->
<g id="node6" class="node"><title>GET /api/v1/news/:news_id</title>
<ellipse fill="lightgrey" stroke="black" cx="1407.01" cy="-229.678" rx="108.87" ry="18"/>
<text text-anchor="middle" x="1407.01" y="-225.478" font-family="Times,serif" font-size="14.00">GET /api/v1/news/:news_id</text>
</g>
<!-- ニュース詳細取得 -->
<g id="node7" class="node"><title>ニュース詳細取得</title>
<ellipse fill="lightgrey" stroke="black" cx="1266.01" cy="-126.379" rx="89.2476" ry="20.5123"/>
<text text-anchor="middle" x="1266.01" y="-125.679" font-family="Times,serif" font-size="14.00">ニュース詳細取得</text>
</g>
<!-- GET /api/v1/news/:news_id&#45;&gt;ニュース詳細取得 -->
<g id="edge14" class="edge"><title>GET /api/v1/news/:news_id&#45;&gt;ニュース詳細取得</title>
<path fill="none" stroke="black" d="M1383.73,-211.951C1361.1,-195.694 1326.46,-170.808 1300.61,-152.234"/>
<polygon fill="black" stroke="black" points="1302.37,-149.191 1292.21,-146.199 1298.28,-154.876 1302.37,-149.191"/>
</g>
<!-- NewsFactory.detail -->
<g id="node22" class="node"><title>NewsFactory.detail</title>
<ellipse fill="none" stroke="black" cx="1351.01" cy="-330.798" rx="78.5801" ry="18"/>
<text text-anchor="middle" x="1351.01" y="-326.598" font-family="Times,serif" font-size="14.00">NewsFactory.detail</text>
</g>
<!-- ニュース詳細取得&#45;&gt;NewsFactory.detail -->
<g id="edge15" class="edge"><title>ニュース詳細取得&#45;&gt;NewsFactory.detail</title>
<path fill="none" stroke="black" d="M1248.54,-146.909C1228.48,-171.841 1200.68,-215.854 1219.99,-250.185 1236.52,-279.572 1268.77,-299.37 1297.14,-311.873"/>
<polygon fill="black" stroke="black" points="1296.01,-315.194 1306.58,-315.837 1298.72,-308.739 1296.01,-315.194"/>
<text text-anchor="middle" x="1253.52" y="-228.978" font-family="Times,serif" font-size="14.00">レスポンス</text>
</g>
<!-- ニュース一覧取得 -->
<g id="node8" class="node"><title>ニュース一覧取得</title>
<ellipse fill="lightgrey" stroke="black" cx="518.01" cy="-229.678" rx="89.2476" ry="20.5123"/>
<text text-anchor="middle" x="518.01" y="-228.978" font-family="Times,serif" font-size="14.00">ニュース一覧取得</text>
</g>
<!-- ニュース一覧取得&#45;&gt;NewsFactory.list -->
<g id="edge16" class="edge"><title>ニュース一覧取得&#45;&gt;NewsFactory.list</title>
<path fill="none" stroke="black" d="M528.025,-250.093C535.579,-265.62 545.544,-288.166 551.01,-309.005 559.345,-340.778 562.718,-378.501 564.083,-403.481"/>
<polygon fill="black" stroke="black" points="560.597,-403.851 564.567,-413.674 567.589,-403.519 560.597,-403.851"/>
<text text-anchor="middle" x="594.52" y="-330.098" font-family="Times,serif" font-size="14.00">レスポンス</text>
</g>
<!-- GET /api/v1/news -->
<g id="node9" class="node"><title>GET /api/v1/news</title>
<ellipse fill="lightgrey" stroke="black" cx="467.01" cy="-330.798" rx="74.5916" ry="18"/>
<text text-anchor="middle" x="467.01" y="-326.598" font-family="Times,serif" font-size="14.00">GET /api/v1/news</text>
</g>
<!-- GET /api/v1/news&#45;&gt;ニュース一覧取得 -->
<g id="edge17" class="edge"><title>GET /api/v1/news&#45;&gt;ニュース一覧取得</title>
<path fill="none" stroke="black" d="M475.894,-312.532C483.455,-297.838 494.468,-276.433 503.336,-259.198"/>
<polygon fill="black" stroke="black" points="506.543,-260.614 508.006,-250.121 500.319,-257.411 506.543,-260.614"/>
</g>
<!-- POST /api/v1/users/login -->
<g id="node10" class="node"><title>POST /api/v1/users/login</title>
<ellipse fill="lightgrey" stroke="black" cx="1254.01" cy="-537.036" rx="99.7335" ry="18"/>
<text text-anchor="middle" x="1254.01" y="-532.836" font-family="Times,serif" font-size="14.00">POST /api/v1/users/login</text>
</g>
<!-- 認証 -->
<g id="node14" class="node"><title>認証</title>
<ellipse fill="lightgrey" stroke="black" cx="1305.01" cy="-431.917" rx="31.2258" ry="20.5123"/>
<text text-anchor="middle" x="1305.01" y="-431.217" font-family="Times,serif" font-size="14.00">認証</text>
</g>
<!-- POST /api/v1/users/login&#45;&gt;認証 -->
<g id="edge18" class="edge"><title>POST /api/v1/users/login&#45;&gt;認証</title>
<path fill="none" stroke="black" d="M1262.43,-519.008C1270.24,-503.225 1281.99,-479.452 1291.18,-460.884"/>
<polygon fill="black" stroke="black" points="1294.42,-462.233 1295.71,-451.718 1288.14,-459.13 1294.42,-462.233"/>
</g>
<!-- PUT /api/v1/users/:user_id -->
<g id="node11" class="node"><title>PUT /api/v1/users/:user_id</title>
<ellipse fill="lightgrey" stroke="black" cx="105.01" cy="-330.798" rx="105.02" ry="18"/>
<text text-anchor="middle" x="105.01" y="-326.598" font-family="Times,serif" font-size="14.00">PUT /api/v1/users/:user_id</text>
</g>
<!-- アカウント情報更新 -->
<g id="node13" class="node"><title>アカウント情報更新</title>
<ellipse fill="lightgrey" stroke="black" cx="190.01" cy="-229.678" rx="100.318" ry="20.5123"/>
<text text-anchor="middle" x="190.01" y="-228.978" font-family="Times,serif" font-size="14.00">アカウント情報更新</text>
</g>
<!-- PUT /api/v1/users/:user_id&#45;&gt;アカウント情報更新 -->
<g id="edge19" class="edge"><title>PUT /api/v1/users/:user_id&#45;&gt;アカウント情報更新</title>
<path fill="none" stroke="black" d="M119.816,-312.532C132.768,-297.429 151.797,-275.239 166.776,-257.772"/>
<polygon fill="black" stroke="black" points="169.484,-259.99 173.337,-250.121 164.171,-255.433 169.484,-259.99"/>
</g>
<!-- 証跡保存 -->
<g id="node12" class="node"><title>証跡保存</title>
<ellipse fill="lightgrey" stroke="black" cx="1498.01" cy="-330.798" rx="50.8235" ry="20.5123"/>
<text text-anchor="middle" x="1498.01" y="-330.098" font-family="Times,serif" font-size="14.00">証跡保存</text>
</g>
<!-- 証跡保存&#45;&gt;UserFactory.login -->
<g id="edge20" class="edge"><title>証跡保存&#45;&gt;UserFactory.login</title>
<path fill="none" stroke="black" d="M1491.86,-351.313C1476.99,-395.429 1434.89,-503.594 1363.01,-562.829 1314.75,-602.601 1246.32,-623.991 1195.04,-635.147"/>
<polygon fill="black" stroke="black" points="1194.09,-631.769 1185.02,-637.244 1195.53,-638.62 1194.09,-631.769"/>
<text text-anchor="middle" x="1472.52" y="-481.133" font-family="Times,serif" font-size="14.00">レスポンス</text>
</g>
<!-- AccountFactory.update -->
<g id="node23" class="node"><title>AccountFactory.update</title>
<ellipse fill="none" stroke="black" cx="128.01" cy="-431.917" rx="92.0782" ry="18"/>
<text text-anchor="middle" x="128.01" y="-427.717" font-family="Times,serif" font-size="14.00">AccountFactory.update</text>
</g>
<!-- アカウント情報更新&#45;&gt;AccountFactory.update -->
<g id="edge21" class="edge"><title>アカウント情報更新&#45;&gt;AccountFactory.update</title>
<path fill="none" stroke="black" d="M202.367,-250.456C216.157,-275.237 234.611,-318.578 219.01,-352.591 208.109,-376.357 186.042,-395.638 166.37,-409.124"/>
<polygon fill="black" stroke="black" points="164.276,-406.311 157.837,-414.725 168.117,-412.163 164.276,-406.311"/>
<text text-anchor="middle" x="259.52" y="-330.098" font-family="Times,serif" font-size="14.00">レスポンス</text>
</g>
<!-- 認証&#45;&gt;証跡保存 -->
<g id="edge22" class="edge"><title>認証&#45;&gt;証跡保存</title>
<path fill="none" stroke="black" d="M1321.55,-414.176C1335.7,-400.701 1357.19,-382.164 1379.01,-370.591 1403.6,-357.545 1412.54,-361.22 1439.01,-352.591 1443.08,-351.265 1447.29,-349.856 1451.5,-348.419"/>
<polygon fill="black" stroke="black" points="1452.97,-351.616 1461.28,-345.045 1450.68,-344.999 1452.97,-351.616"/>
</g>
<!-- DatabaseFactory.getAccount&#45;&gt;アカウント情報 -->
<g id="edge30" class="edge"><title>DatabaseFactory.getAccount&#45;&gt;アカウント情報</title>
<path fill="none" stroke="black" d="M488.442,-740.148C467.332,-723.802 434.697,-698.532 409.027,-678.654"/>
<polygon fill="black" stroke="black" points="411.01,-675.763 400.96,-672.408 406.724,-681.298 411.01,-675.763"/>
<text text-anchor="middle" x="537.01" y="-701.945" font-family="Times,serif" font-size="14.00">取得失敗時はアラート表示</text>
</g>
<!-- DatabaseFactory.saveFavorite&#45;&gt;記事詳細 -->
<g id="edge31" class="edge"><title>DatabaseFactory.saveFavorite&#45;&gt;記事詳細</title>
<path fill="none" stroke="black" d="M309.296,-38.1021C283.334,-48.5874 260.037,-63.9501 275.01,-82.5862 286.909,-97.396 324.493,-107.384 363.451,-113.958"/>
<polygon fill="black" stroke="black" points="362.942,-117.421 373.371,-115.557 364.055,-110.51 362.942,-117.421"/>
<text text-anchor="middle" x="359.01" y="-71.3862" font-family="Times,serif" font-size="14.00">保存失敗時はアラート表示</text>
</g>
<!-- DatabaseFactory.saveUser&#45;&gt;アカウント情報 -->
<g id="edge26" class="edge"><title>DatabaseFactory.saveUser&#45;&gt;アカウント情報</title>
<path fill="none" stroke="black" d="M462.026,-555.248C458.835,-569.498 452.584,-589.612 441.01,-603.649 436.765,-608.797 431.73,-613.484 426.329,-617.708"/>
<polygon fill="black" stroke="black" points="424.269,-614.878 418.204,-623.565 428.363,-620.556 424.269,-614.878"/>
<text text-anchor="middle" x="539.01" y="-591.539" font-family="Times,serif" font-size="14.00">保存失敗時はアラート表示</text>
</g>
<!-- DatabaseFactory.saveUser&#45;&gt;AccountFactory.update -->
<g id="edge25" class="edge"><title>DatabaseFactory.saveUser&#45;&gt;AccountFactory.update</title>
<path fill="none" stroke="black" d="M404.219,-522.459C385.882,-518.581 365.669,-514.522 347.01,-511.243 290.862,-501.377 273.352,-513.357 220.01,-493.243 196.665,-484.44 173.191,-468.914 155.797,-455.818"/>
<polygon fill="black" stroke="black" points="157.829,-452.965 147.774,-449.624 153.551,-458.506 157.829,-452.965"/>
<text text-anchor="middle" x="276.01" y="-481.133" font-family="Times,serif" font-size="14.00">成功かつ通信可能</text>
</g>
<!-- NewsFactory.list&#45;&gt;記事一覧 -->
<g id="edge42" class="edge"><title>NewsFactory.list&#45;&gt;記事一覧</title>
<path fill="none" stroke="black" d="M560.496,-450.003C558.112,-462.968 557.203,-480.649 565.691,-493.243 572.653,-503.575 582.632,-511.417 593.658,-517.369"/>
<polygon fill="black" stroke="black" points="592.163,-520.534 602.688,-521.749 595.218,-514.236 592.163,-520.534"/>
<text text-anchor="middle" x="673.67" y="-482.043" font-family="Times,serif" font-size="14.00">{500}サーバエラーのアラート表示</text>
</g>
<!-- NewsFactory.list&#45;&gt;GET /api/v1/news -->
<g id="edge40" class="edge"><title>NewsFactory.list&#45;&gt;GET /api/v1/news</title>
<path fill="none" stroke="black" d="M548.386,-414.103C532.522,-398.058 508.463,-373.724 490.615,-355.673"/>
<polygon fill="black" stroke="black" points="492.909,-353.014 483.389,-348.364 487.931,-357.936 492.909,-353.014"/>
</g>
<!-- DatabaseFactory.saveNews -->
<g id="node26" class="node"><title>DatabaseFactory.saveNews</title>
<ellipse fill="none" stroke="black" cx="772.01" cy="-330.798" rx="107.036" ry="18"/>
<text text-anchor="middle" x="772.01" y="-326.598" font-family="Times,serif" font-size="14.00">DatabaseFactory.saveNews</text>
</g>
<!-- NewsFactory.list&#45;&gt;DatabaseFactory.saveNews -->
<g id="edge41" class="edge"><title>NewsFactory.list&#45;&gt;DatabaseFactory.saveNews</title>
<path fill="none" stroke="black" d="M596.473,-415.765C621.86,-403.547 658.501,-385.933 690.571,-370.591 702.954,-364.666 716.406,-358.251 728.741,-352.375"/>
<polygon fill="black" stroke="black" points="730.397,-355.464 737.921,-348.004 727.388,-349.143 730.397,-355.464"/>
<text text-anchor="middle" x="736.23" y="-382.211" font-family="Times,serif" font-size="14.00">{200}取得成功</text>
</g>
<!-- NewsDetailController.show&#45;&gt;NewsFactory.detail -->
<g id="edge24" class="edge"><title>NewsDetailController.show&#45;&gt;NewsFactory.detail</title>
<path fill="none" stroke="black" d="M1131.37,-415.211C1177.86,-397.555 1253.26,-368.919 1302.5,-350.221"/>
<polygon fill="black" stroke="black" points="1303.87,-353.443 1311.98,-346.62 1301.39,-346.899 1303.87,-353.443"/>
</g>
<!-- Google Analyticsへアクセスログを送信 -->
<g id="node24" class="node"><title>Google Analyticsへアクセスログを送信</title>
<ellipse fill="none" stroke="black" cx="1076.01" cy="-330.798" rx="178.962" ry="21.5881"/>
<text text-anchor="middle" x="1076.01" y="-331.008" font-family="Times,serif" font-size="14.00">Google Analyticsへアクセスログを送信</text>
</g>
<!-- NewsDetailController.show&#45;&gt;Google Analyticsへアクセスログを送信 -->
<g id="edge23" class="edge"><title>NewsDetailController.show&#45;&gt;Google Analyticsへアクセスログを送信</title>
<path fill="none" stroke="black" d="M1087.57,-413.652C1085.59,-399.596 1082.73,-379.403 1080.36,-362.59"/>
<polygon fill="black" stroke="black" points="1083.82,-362.056 1078.95,-352.644 1076.89,-363.036 1083.82,-362.056"/>
</g>
<!-- UserFactory.login&#45;&gt;記事一覧 -->
<g id="edge33" class="edge"><title>UserFactory.login&#45;&gt;記事一覧</title>
<path fill="none" stroke="black" d="M1075.92,-633.735C1024.01,-620.141 938.836,-598.193 865.01,-580.829 825.305,-571.49 780.923,-561.786 744.351,-553.984"/>
<polygon fill="black" stroke="black" points="744.763,-550.493 734.253,-551.835 743.306,-557.34 744.763,-550.493"/>
<text text-anchor="middle" x="1003.23" y="-592.449" font-family="Times,serif" font-size="14.00">{200}認証成功</text>
</g>
<!-- UserFactory.login&#45;&gt;ログイン -->
<g id="edge34" class="edge"><title>UserFactory.login&#45;&gt;ログイン</title>
<path fill="none" stroke="black" d="M1122.73,-665.681C1120.7,-680.546 1115.47,-701.538 1102.01,-714.055 1075.69,-738.528 1037.32,-749.458 1003.99,-754.165"/>
<polygon fill="black" stroke="black" points="1003.32,-750.722 993.832,-755.434 1004.19,-757.668 1003.32,-750.722"/>
<text text-anchor="middle" x="1162.23" y="-702.855" font-family="Times,serif" font-size="14.00">{401}認証失敗</text>
</g>
<!-- UserFactory.login&#45;&gt;POST /api/v1/users/login -->
<g id="edge32" class="edge"><title>UserFactory.login&#45;&gt;POST /api/v1/users/login</title>
<path fill="none" stroke="black" d="M1143.75,-629.978C1165.58,-611.778 1200.92,-582.31 1225.69,-561.652"/>
<polygon fill="black" stroke="black" points="1228.21,-564.106 1233.65,-555.014 1223.73,-558.73 1228.21,-564.106"/>
</g>
<!-- NewsFactory.detail&#45;&gt;記事詳細 -->
<g id="edge29" class="edge"><title>NewsFactory.detail&#45;&gt;記事詳細</title>
<path fill="none" stroke="black" d="M1299.07,-317.2C1287.53,-314.455 1275.37,-311.597 1264.01,-309.005 1144.14,-281.642 1109.19,-292.346 993.691,-250.185 957.017,-236.797 950.949,-226.592 916.01,-209.172 879.534,-190.986 872.202,-181.363 833.01,-170.172 751.346,-146.853 655.89,-136.218 583.223,-131.379"/>
<polygon fill="black" stroke="black" points="583.327,-127.878 573.124,-130.734 582.881,-134.864 583.327,-127.878"/>
<text text-anchor="middle" x="1101.67" y="-229.888" font-family="Times,serif" font-size="14.00">{500}サーバエラーのアラート表示</text>
</g>
<!-- NewsFactory.detail&#45;&gt;GET /api/v1/news/:news_id -->
<g id="edge27" class="edge"><title>NewsFactory.detail&#45;&gt;GET /api/v1/news/:news_id</title>
<path fill="none" stroke="black" d="M1360.76,-312.532C1369.44,-297.182 1382.25,-274.511 1392.19,-256.918"/>
<polygon fill="black" stroke="black" points="1395.5,-258.174 1397.37,-247.746 1389.4,-254.731 1395.5,-258.174"/>
</g>
<!-- DatabaseFactory.saveNewsDetail -->
<g id="node25" class="node"><title>DatabaseFactory.saveNewsDetail</title>
<ellipse fill="none" stroke="black" cx="778.01" cy="-229.678" rx="128.751" ry="18"/>
<text text-anchor="middle" x="778.01" y="-225.478" font-family="Times,serif" font-size="14.00">DatabaseFactory.saveNewsDetail</text>
</g>
<!-- NewsFactory.detail&#45;&gt;DatabaseFactory.saveNewsDetail -->
<g id="edge28" class="edge"><title>NewsFactory.detail&#45;&gt;DatabaseFactory.saveNewsDetail</title>
<path fill="none" stroke="black" d="M1302.55,-316.482C1290.08,-313.535 1276.62,-310.768 1264.01,-309.005 1172.27,-296.18 933.632,-325.26 847.571,-291.005 828.575,-283.444 811.197,-268.38 798.562,-255.198"/>
<polygon fill="black" stroke="black" points="801.038,-252.719 791.695,-247.725 795.884,-257.456 801.038,-252.719"/>
<text text-anchor="middle" x="893.23" y="-279.805" font-family="Times,serif" font-size="14.00">{200}取得成功</text>
</g>
<!-- AccountFactory.update&#45;&gt;アカウント情報 -->
<g id="edge38" class="edge"><title>AccountFactory.update&#45;&gt;アカウント情報</title>
<path fill="none" stroke="black" d="M89.168,-448.403C63.1678,-461.061 30.9854,-481.719 15.5705,-511.243 4.95936,-531.567 2.83662,-543.763 15.5705,-562.829 41.7855,-602.079 157.991,-623.987 250.297,-635.431"/>
<polygon fill="black" stroke="black" points="249.938,-638.913 260.286,-636.641 250.779,-631.964 249.938,-638.913"/>
<text text-anchor="middle" x="61.2297" y="-537.246" font-family="Times,serif" font-size="14.00">{200}保存成功</text>
</g>
<!-- AccountFactory.update&#45;&gt;アカウント情報 -->
<g id="edge39" class="edge"><title>AccountFactory.update&#45;&gt;アカウント情報</title>
<path fill="none" stroke="black" d="M123.736,-450.088C118.109,-477.045 111.629,-529.635 136.691,-562.829 164.833,-600.103 211.054,-620.8 254.965,-632.277"/>
<polygon fill="black" stroke="black" points="254.332,-635.726 264.879,-634.726 256.01,-628.93 254.332,-635.726"/>
<text text-anchor="middle" x="244.67" y="-537.246" font-family="Times,serif" font-size="14.00">{500}サーバエラーのアラート表示</text>
</g>
<!-- AccountFactory.update&#45;&gt;PUT /api/v1/users/:user_id -->
<g id="edge37" class="edge"><title>AccountFactory.update&#45;&gt;PUT /api/v1/users/:user_id</title>
<path fill="none" stroke="black" d="M124.004,-413.652C120.508,-398.586 115.375,-376.468 111.327,-359.02"/>
<polygon fill="black" stroke="black" points="114.64,-357.815 108.97,-348.865 107.821,-359.397 114.64,-357.815"/>
</g>
<!-- DatabaseFactory.saveNewsDetail&#45;&gt;記事詳細 -->
<g id="edge36" class="edge"><title>DatabaseFactory.saveNewsDetail&#45;&gt;記事詳細</title>
<path fill="none" stroke="black" d="M730.068,-212.962C679.085,-196.248 597.918,-169.639 539.621,-150.528"/>
<polygon fill="black" stroke="black" points="540.699,-147.198 530.106,-147.408 538.518,-153.849 540.699,-147.198"/>
<text text-anchor="middle" x="745.01" y="-179.972" font-family="Times,serif" font-size="14.00">保存失敗時はアラート表示</text>
</g>
<!-- DatabaseFactory.saveNews&#45;&gt;記事一覧 -->
<g id="edge35" class="edge"><title>DatabaseFactory.saveNews&#45;&gt;記事一覧</title>
<path fill="none" stroke="black" d="M779.254,-348.955C791.368,-380.612 811.559,-449.008 781.01,-493.243 772.68,-505.304 760.479,-513.97 747.14,-520.194"/>
<polygon fill="black" stroke="black" points="745.629,-517.033 737.758,-524.125 748.334,-523.489 745.629,-517.033"/>
<text text-anchor="middle" x="882.01" y="-431.217" font-family="Times,serif" font-size="14.00">保存失敗時はアラート表示</text>
</g>
</g>
</svg>
