<?xml version="1.0" encoding="UTF-8" standalone="no"?>
<!DOCTYPE svg PUBLIC "-//W3C//DTD SVG 1.1//EN"
 "http://www.w3.org/Graphics/SVG/1.1/DTD/svg11.dtd">
<!-- Generated by graphviz version 2.38.0 (20140413.2041)
 -->
<!-- Title: sample Pages: 1 -->
<svg width="2587pt" height="1170pt"
 viewBox="0.00 0.00 2586.55 1170.00" xmlns="http://www.w3.org/2000/svg" xmlns:xlink="http://www.w3.org/1999/xlink">
<g id="graph0" class="graph" transform="scale(1 1) rotate(0) translate(4 1166)">
<title>sample</title>
<polygon fill="white" stroke="none" points="-4,4 -4,-1166 2582.55,-1166 2582.55,4 -4,4"/>
<text text-anchor="middle" x="1289.28" y="-1143.6" font-family="Times,serif" font-size="18.00">スマホアプリの画面遷移図の例</text>
<!-- 記事一覧 -->
<g id="node1" class="node"><title>記事一覧</title>
<ellipse fill="none" stroke="black" cx="1528.94" cy="-882.802" rx="76.4652" ry="21.6196"/>
<ellipse fill="none" stroke="black" cx="1528.94" cy="-882.802" rx="80.4643" ry="25.5878"/>
<text text-anchor="middle" x="1528.94" y="-883.012" font-family="Times,serif" font-size="14.00">記事一覧 /news</text>
</g>
<!-- 記事詳細 -->
<g id="node2" class="node"><title>記事詳細</title>
<ellipse fill="none" stroke="black" cx="640.935" cy="-472.798" rx="101.435" ry="21.6196"/>
<ellipse fill="none" stroke="black" cx="640.935" cy="-472.798" rx="105.443" ry="25.5878"/>
<text text-anchor="middle" x="640.935" y="-473.008" font-family="Times,serif" font-size="14.00">記事詳細 /news/detail</text>
</g>
<!-- 記事一覧&#45;&gt;記事詳細 -->
<g id="edge2" class="edge"><title>記事一覧&#45;&gt;記事詳細</title>
<path fill="none" stroke="black" stroke-dasharray="5,2" d="M1448.37,-881.238C1346.74,-879.181 1167.43,-870.882 1017.94,-839.009 951.061,-824.751 877.935,-843.594 877.935,-775.216 877.935,-775.216 877.935,-775.216 877.935,-572.591 877.935,-538.32 794.683,-510.489 726.813,-493.203"/>
<polygon fill="black" stroke="black" points="727.473,-489.76 716.923,-490.73 725.775,-496.551 727.473,-489.76"/>
</g>
<!-- サイドメニュー -->
<g id="node5" class="node"><title>サイドメニュー</title>
<ellipse fill="none" stroke="black" cx="1390.94" cy="-774.216" rx="106.092" ry="21.6196"/>
<ellipse fill="none" stroke="black" cx="1390.94" cy="-774.216" rx="110.094" ry="25.5878"/>
<text text-anchor="middle" x="1390.94" y="-774.426" font-family="Times,serif" font-size="14.00">サイドメニュー /menu</text>
</g>
<!-- 記事一覧&#45;&gt;サイドメニュー -->
<g id="edge1" class="edge"><title>記事一覧&#45;&gt;サイドメニュー</title>
<path fill="none" stroke="black" stroke-dasharray="5,2" d="M1498.99,-858.675C1478.75,-843.039 1451.82,-822.238 1429.9,-805.314"/>
<polygon fill="black" stroke="black" points="1431.83,-802.379 1421.78,-799.037 1427.55,-807.919 1431.83,-802.379"/>
</g>
<!-- NewsController.getLatest -->
<g id="node15" class="node"><title>NewsController.getLatest</title>
<ellipse fill="none" stroke="black" cx="1695.94" cy="-774.216" rx="100.971" ry="18"/>
<text text-anchor="middle" x="1695.94" y="-770.016" font-family="Times,serif" font-size="14.00">NewsController.getLatest</text>
</g>
<!-- 記事一覧&#45;&gt;NewsController.getLatest -->
<g id="edge7" class="edge"><title>記事一覧&#45;&gt;NewsController.getLatest</title>
<path fill="none" stroke="black" d="M1563.94,-859.458C1592.63,-841.147 1633.01,-815.376 1661.54,-797.171"/>
<polygon fill="black" stroke="black" points="1663.43,-800.112 1669.98,-791.781 1659.67,-794.211 1663.43,-800.112"/>
<text text-anchor="middle" x="1683.17" y="-827.809" font-family="Times,serif" font-size="14.00">プルリフレッシュ</text>
</g>
<!-- NewsController.getPast -->
<g id="node16" class="node"><title>NewsController.getPast</title>
<ellipse fill="none" stroke="black" cx="1908.94" cy="-774.216" rx="93.7388" ry="18"/>
<text text-anchor="middle" x="1908.94" y="-770.016" font-family="Times,serif" font-size="14.00">NewsController.getPast</text>
</g>
<!-- 記事一覧&#45;&gt;NewsController.getPast -->
<g id="edge8" class="edge"><title>記事一覧&#45;&gt;NewsController.getPast</title>
<path fill="none" stroke="black" d="M1600.16,-870.553C1641.89,-863.206 1695.38,-852.477 1741.94,-839.009 1784,-826.843 1830.41,-808.713 1863.61,-794.887"/>
<polygon fill="black" stroke="black" points="1865.18,-798.026 1873.04,-790.928 1862.47,-791.572 1865.18,-798.026"/>
<text text-anchor="middle" x="1851.66" y="-827.809" font-family="Times,serif" font-size="14.00">画面スクロール</text>
</g>
<!-- NewsDetailController.init -->
<g id="node17" class="node"><title>NewsDetailController.init</title>
<ellipse fill="none" stroke="black" cx="1025.94" cy="-774.216" rx="101.948" ry="18"/>
<text text-anchor="middle" x="1025.94" y="-770.016" font-family="Times,serif" font-size="14.00">NewsDetailController.init</text>
</g>
<!-- 記事一覧&#45;&gt;NewsDetailController.init -->
<g id="edge9" class="edge"><title>記事一覧&#45;&gt;NewsDetailController.init</title>
<path fill="none" stroke="black" d="M1448.86,-879.646C1319.13,-875.434 1074.36,-864.221 1043.94,-839.009 1033.24,-830.146 1028.63,-815.455 1026.74,-802.404"/>
<polygon fill="black" stroke="black" points="1030.22,-802.036 1025.75,-792.432 1023.26,-802.729 1030.22,-802.036"/>
<text text-anchor="middle" x="1092.94" y="-827.809" font-family="Times,serif" font-size="14.00">記事をクリック</text>
</g>
<!-- 記事詳細&#45;&gt;記事一覧 -->
<g id="edge3" class="edge"><title>記事詳細&#45;&gt;記事一覧</title>
<path fill="none" stroke="black" stroke-dasharray="5,2" d="M723.145,-488.975C797.728,-505.744 895.935,-535.369 895.935,-572.591 895.935,-775.216 895.935,-775.216 895.935,-775.216 895.935,-843.594 969.061,-824.751 1035.94,-839.009 1174.47,-868.545 1338.61,-877.837 1438.25,-880.678"/>
<polygon fill="black" stroke="black" points="1438.19,-884.178 1448.29,-880.949 1438.38,-877.181 1438.19,-884.178"/>
</g>
<!-- NewsDetailController.saveFavorite -->
<g id="node18" class="node"><title>NewsDetailController.saveFavorite</title>
<ellipse fill="none" stroke="black" cx="640.935" cy="-368.212" rx="135.232" ry="18"/>
<text text-anchor="middle" x="640.935" y="-364.012" font-family="Times,serif" font-size="14.00">NewsDetailController.saveFavorite</text>
</g>
<!-- 記事詳細&#45;&gt;NewsDetailController.saveFavorite -->
<g id="edge10" class="edge"><title>記事詳細&#45;&gt;NewsDetailController.saveFavorite</title>
<path fill="none" stroke="black" d="M640.935,-446.964C640.935,-431.74 640.935,-412.232 640.935,-396.565"/>
<polygon fill="black" stroke="black" points="644.435,-396.433 640.935,-386.433 637.435,-396.433 644.435,-396.433"/>
<text text-anchor="middle" x="731.725" y="-417.805" font-family="Times,serif" font-size="14.00">お気に入りボタンをクリック</text>
</g>
<!-- Webブラウザを起動 -->
<g id="node19" class="node"><title>Webブラウザを起動</title>
<ellipse fill="none" stroke="black" cx="892.935" cy="-368.212" rx="98.519" ry="21.5881"/>
<text text-anchor="middle" x="892.935" y="-368.422" font-family="Times,serif" font-size="14.00">Webブラウザを起動</text>
</g>
<!-- 記事詳細&#45;&gt;Webブラウザを起動 -->
<g id="edge11" class="edge"><title>記事詳細&#45;&gt;Webブラウザを起動</title>
<path fill="none" stroke="black" d="M733.136,-460.189C764.145,-453.825 798.149,-444.032 826.935,-429.005 842.226,-421.022 856.724,-408.642 868.216,-397.212"/>
<polygon fill="black" stroke="black" points="870.863,-399.51 875.312,-389.895 865.838,-394.637 870.863,-399.51"/>
<text text-anchor="middle" x="926.585" y="-417.805" font-family="Times,serif" font-size="14.00">外部リンクをクリック</text>
</g>
<!-- ログイン -->
<g id="node3" class="node"><title>ログイン</title>
<ellipse fill="none" stroke="black" cx="1939.94" cy="-1006.39" rx="54.52" ry="21.6196"/>
<ellipse fill="none" stroke="black" cx="1939.94" cy="-1006.39" rx="58.5031" ry="25.5878"/>
<text text-anchor="middle" x="1939.94" y="-1006.6" font-family="Times,serif" font-size="14.00">ログイン /</text>
</g>
<!-- ログイン&#45;&gt;記事一覧 -->
<g id="edge4" class="edge"><title>ログイン&#45;&gt;記事一覧</title>
<path fill="none" stroke="black" stroke-dasharray="5,2" d="M1891.98,-991.203C1818.96,-969.601 1679.61,-928.377 1596.41,-903.762"/>
<polygon fill="black" stroke="black" points="1597.38,-900.399 1586.79,-900.919 1595.39,-907.112 1597.38,-900.399"/>
</g>
<!-- LoginController.login -->
<g id="node20" class="node"><title>LoginController.login</title>
<ellipse fill="none" stroke="black" cx="2241.94" cy="-1109" rx="87.4743" ry="18"/>
<text text-anchor="middle" x="2241.94" y="-1104.8" font-family="Times,serif" font-size="14.00">LoginController.login</text>
</g>
<!-- ログイン&#45;&gt;LoginController.login -->
<g id="edge12" class="edge"><title>ログイン&#45;&gt;LoginController.login</title>
<path fill="none" stroke="black" d="M1983.22,-1024.2C1998.88,-1031.18 2016.3,-1040.03 2030.94,-1050.18 2042.87,-1058.46 2041.43,-1066.31 2054.32,-1073 2083.24,-1088.02 2117.63,-1096.66 2149.02,-1101.61"/>
<polygon fill="black" stroke="black" points="2148.7,-1105.1 2159.1,-1103.09 2149.71,-1098.18 2148.7,-1105.1"/>
<text text-anchor="middle" x="2137.75" y="-1060.89" font-family="Times,serif" font-size="14.00">ログインボタンをクリック</text>
</g>
<!-- アカウント情報 -->
<g id="node4" class="node"><title>アカウント情報</title>
<ellipse fill="none" stroke="black" cx="1350.94" cy="-472.798" rx="116.73" ry="21.6196"/>
<ellipse fill="none" stroke="black" cx="1350.94" cy="-472.798" rx="120.733" ry="25.5878"/>
<text text-anchor="middle" x="1350.94" y="-473.008" font-family="Times,serif" font-size="14.00">アカウント情報 /account</text>
</g>
<!-- アカウント情報&#45;&gt;記事一覧 -->
<g id="edge5" class="edge"><title>アカウント情報&#45;&gt;記事一覧</title>
<path fill="none" stroke="black" stroke-dasharray="5,2" d="M1461.37,-483.313C1557.74,-494.177 1687.04,-515.833 1718.94,-555.591 1767.73,-616.426 1757.86,-674.084 1703.94,-730.423 1667.25,-768.747 1627.87,-715.932 1585.94,-748.423 1569.67,-761.021 1550.95,-811.861 1539.54,-847.002"/>
<polygon fill="black" stroke="black" points="1536.08,-846.307 1536.38,-856.897 1542.75,-848.435 1536.08,-846.307"/>
</g>
<!-- アカウント情報&#45;&gt;記事一覧 -->
<g id="edge14" class="edge"><title>アカウント情報&#45;&gt;記事一覧</title>
<path fill="none" stroke="black" d="M1293.59,-495.599C1212.34,-530.14 1078.31,-602.709 1123.36,-691.423 1183.36,-809.604 1343.18,-854.805 1443.35,-871.82"/>
<polygon fill="black" stroke="black" points="1443.01,-875.313 1453.45,-873.475 1444.15,-868.405 1443.01,-875.313"/>
<text text-anchor="middle" x="1193.73" y="-670.217" font-family="Times,serif" font-size="14.00">戻るボタンをクリック</text>
</g>
<!-- AccountController.save -->
<g id="node21" class="node"><title>AccountController.save</title>
<ellipse fill="none" stroke="black" cx="1481.94" cy="-368.212" rx="93.7129" ry="18"/>
<text text-anchor="middle" x="1481.94" y="-364.012" font-family="Times,serif" font-size="14.00">AccountController.save</text>
</g>
<!-- アカウント情報&#45;&gt;AccountController.save -->
<g id="edge13" class="edge"><title>アカウント情報&#45;&gt;AccountController.save</title>
<path fill="none" stroke="black" d="M1381.65,-447.746C1403.15,-430.911 1431.69,-408.561 1452.82,-392.01"/>
<polygon fill="black" stroke="black" points="1455.1,-394.673 1460.81,-385.752 1450.78,-389.162 1455.1,-394.673"/>
<text text-anchor="middle" x="1502.73" y="-417.805" font-family="Times,serif" font-size="14.00">保存ボタンをクリック</text>
</g>
<!-- サイドメニュー&#45;&gt;アカウント情報 -->
<g id="edge6" class="edge"><title>サイドメニュー&#45;&gt;アカウント情報</title>
<path fill="none" stroke="black" stroke-dasharray="5,2" d="M1445.34,-751.629C1453.57,-745.968 1460.97,-738.979 1465.94,-730.423 1472.93,-718.374 1514.17,-601.036 1453.94,-516.591 1448.8,-509.396 1442.23,-503.406 1434.89,-498.421"/>
<polygon fill="black" stroke="black" points="1436.32,-495.2 1425.95,-493.017 1432.7,-501.189 1436.32,-495.2"/>
</g>
<!-- AccountController.init -->
<g id="node22" class="node"><title>AccountController.init</title>
<ellipse fill="none" stroke="black" cx="1361.94" cy="-670.917" rx="89.8711" ry="18"/>
<text text-anchor="middle" x="1361.94" y="-666.717" font-family="Times,serif" font-size="14.00">AccountController.init</text>
</g>
<!-- サイドメニュー&#45;&gt;AccountController.init -->
<g id="edge15" class="edge"><title>サイドメニュー&#45;&gt;AccountController.init</title>
<path fill="none" stroke="black" d="M1323.28,-753.543C1313.23,-747.697 1304.17,-740.151 1297.94,-730.423 1288.75,-716.091 1300.17,-703.007 1315.77,-692.864"/>
<polygon fill="black" stroke="black" points="1317.94,-695.645 1324.77,-687.542 1314.38,-689.62 1317.94,-695.645"/>
<text text-anchor="middle" x="1381.94" y="-719.223" font-family="Times,serif" font-size="14.00">アカウント情報をクリック</text>
</g>
<!-- 証跡保存 -->
<g id="node6" class="node"><title>証跡保存</title>
<ellipse fill="lightgrey" stroke="black" cx="2377.94" cy="-670.917" rx="50.8235" ry="20.5123"/>
<text text-anchor="middle" x="2377.94" y="-670.217" font-family="Times,serif" font-size="14.00">証跡保存</text>
</g>
<!-- UserFactory.login -->
<g id="node23" class="node"><title>UserFactory.login</title>
<ellipse fill="none" stroke="black" cx="2355.94" cy="-1006.39" rx="73.7696" ry="18"/>
<text text-anchor="middle" x="2355.94" y="-1002.19" font-family="Times,serif" font-size="14.00">UserFactory.login</text>
</g>
<!-- 証跡保存&#45;&gt;UserFactory.login -->
<g id="edge16" class="edge"><title>証跡保存&#45;&gt;UserFactory.login</title>
<path fill="none" stroke="black" d="M2376.63,-691.678C2372.89,-748.397 2362.11,-911.84 2357.77,-977.546"/>
<polygon fill="black" stroke="black" points="2354.25,-977.72 2357.09,-987.929 2361.24,-978.181 2354.25,-977.72"/>
<text text-anchor="middle" x="2403.45" y="-827.809" font-family="Times,serif" font-size="14.00">レスポンス</text>
</g>
<!-- ニュース詳細取得 -->
<g id="node7" class="node"><title>ニュース詳細取得</title>
<ellipse fill="lightgrey" stroke="black" cx="241.935" cy="-472.798" rx="89.2476" ry="20.5123"/>
<text text-anchor="middle" x="241.935" y="-472.098" font-family="Times,serif" font-size="14.00">ニュース詳細取得</text>
</g>
<!-- NewsFactory.detail -->
<g id="node24" class="node"><title>NewsFactory.detail</title>
<ellipse fill="none" stroke="black" cx="469.935" cy="-670.917" rx="78.5801" ry="18"/>
<text text-anchor="middle" x="469.935" y="-666.717" font-family="Times,serif" font-size="14.00">NewsFactory.detail</text>
</g>
<!-- ニュース詳細取得&#45;&gt;NewsFactory.detail -->
<g id="edge17" class="edge"><title>ニュース詳細取得&#45;&gt;NewsFactory.detail</title>
<path fill="none" stroke="black" d="M239.935,-493.311C238.421,-518.844 239.701,-563.617 262.915,-591.591 294.855,-630.08 347.83,-649.678 392.195,-659.646"/>
<polygon fill="black" stroke="black" points="391.592,-663.096 402.1,-661.746 393.044,-656.248 391.592,-663.096"/>
<text text-anchor="middle" x="297.445" y="-572.891" font-family="Times,serif" font-size="14.00">レスポンス</text>
</g>
<!-- GET /api/v1/news/:news_id -->
<g id="node8" class="node"><title>GET /api/v1/news/:news_id</title>
<ellipse fill="lightgrey" stroke="black" cx="108.935" cy="-573.591" rx="108.87" ry="18"/>
<text text-anchor="middle" x="108.935" y="-569.391" font-family="Times,serif" font-size="14.00">GET /api/v1/news/:news_id</text>
</g>
<!-- GET /api/v1/news/:news_id&#45;&gt;ニュース詳細取得 -->
<g id="edge18" class="edge"><title>GET /api/v1/news/:news_id&#45;&gt;ニュース詳細取得</title>
<path fill="none" stroke="black" d="M131.497,-555.832C152.579,-540.172 184.325,-516.591 208.378,-498.724"/>
<polygon fill="black" stroke="black" points="210.594,-501.438 216.535,-492.665 206.42,-495.819 210.594,-501.438"/>
</g>
<!-- POST /api/v1/users/login -->
<g id="node9" class="node"><title>POST /api/v1/users/login</title>
<ellipse fill="lightgrey" stroke="black" cx="2478.94" cy="-882.802" rx="99.7335" ry="18"/>
<text text-anchor="middle" x="2478.94" y="-878.602" font-family="Times,serif" font-size="14.00">POST /api/v1/users/login</text>
</g>
<!-- 認証 -->
<g id="node12" class="node"><title>認証</title>
<ellipse fill="lightgrey" stroke="black" cx="2432.94" cy="-774.216" rx="31.2258" ry="20.5123"/>
<text text-anchor="middle" x="2432.94" y="-773.516" font-family="Times,serif" font-size="14.00">認証</text>
</g>
<!-- POST /api/v1/users/login&#45;&gt;認証 -->
<g id="edge19" class="edge"><title>POST /api/v1/users/login&#45;&gt;認証</title>
<path fill="none" stroke="black" d="M2471.54,-864.677C2464.42,-848.165 2453.51,-822.883 2445.1,-803.402"/>
<polygon fill="black" stroke="black" points="2448.26,-801.89 2441.08,-794.095 2441.83,-804.664 2448.26,-801.89"/>
</g>
<!-- GET /api/v1/news -->
<g id="node10" class="node"><title>GET /api/v1/news</title>
<ellipse fill="lightgrey" stroke="black" cx="1857.94" cy="-573.591" rx="74.5916" ry="18"/>
<text text-anchor="middle" x="1857.94" y="-569.391" font-family="Times,serif" font-size="14.00">GET /api/v1/news</text>
</g>
<!-- ニュース一覧取得 -->
<g id="node13" class="node"><title>ニュース一覧取得</title>
<ellipse fill="lightgrey" stroke="black" cx="1940.94" cy="-472.798" rx="89.2476" ry="20.5123"/>
<text text-anchor="middle" x="1940.94" y="-472.098" font-family="Times,serif" font-size="14.00">ニュース一覧取得</text>
</g>
<!-- GET /api/v1/news&#45;&gt;ニュース一覧取得 -->
<g id="edge20" class="edge"><title>GET /api/v1/news&#45;&gt;ニュース一覧取得</title>
<path fill="none" stroke="black" d="M1872.01,-555.832C1884.69,-540.746 1903.54,-518.309 1918.32,-500.712"/>
<polygon fill="black" stroke="black" points="1921.04,-502.919 1924.79,-493.011 1915.68,-498.416 1921.04,-502.919"/>
</g>
<!-- アカウント情報更新 -->
<g id="node11" class="node"><title>アカウント情報更新</title>
<ellipse fill="lightgrey" stroke="black" cx="1391.94" cy="-20.5061" rx="100.318" ry="20.5123"/>
<text text-anchor="middle" x="1391.94" y="-19.8061" font-family="Times,serif" font-size="14.00">アカウント情報更新</text>
</g>
<!-- AccountFactory.update -->
<g id="node25" class="node"><title>AccountFactory.update</title>
<ellipse fill="none" stroke="black" cx="1349.94" cy="-169.012" rx="92.0782" ry="18"/>
<text text-anchor="middle" x="1349.94" y="-164.812" font-family="Times,serif" font-size="14.00">AccountFactory.update</text>
</g>
<!-- アカウント情報更新&#45;&gt;AccountFactory.update -->
<g id="edge21" class="edge"><title>アカウント情報更新&#45;&gt;AccountFactory.update</title>
<path fill="none" stroke="black" d="M1371.29,-40.6285C1361.92,-50.722 1351.84,-63.9225 1346.92,-78.0123 1339.84,-98.2441 1341.21,-122.617 1344.01,-140.894"/>
<polygon fill="black" stroke="black" points="1340.58,-141.633 1345.77,-150.873 1347.48,-140.418 1340.58,-141.633"/>
<text text-anchor="middle" x="1381.45" y="-95.3123" font-family="Times,serif" font-size="14.00">レスポンス</text>
</g>
<!-- 認証&#45;&gt;証跡保存 -->
<g id="edge22" class="edge"><title>認証&#45;&gt;証跡保存</title>
<path fill="none" stroke="black" d="M2422.85,-754.636C2414.58,-739.407 2402.74,-717.607 2393.3,-700.21"/>
<polygon fill="black" stroke="black" points="2396.18,-698.185 2388.33,-691.067 2390.03,-701.526 2396.18,-698.185"/>
</g>
<!-- NewsFactory.list -->
<g id="node26" class="node"><title>NewsFactory.list</title>
<ellipse fill="none" stroke="black" cx="1908.94" cy="-670.917" rx="69.9197" ry="18"/>
<text text-anchor="middle" x="1908.94" y="-666.717" font-family="Times,serif" font-size="14.00">NewsFactory.list</text>
</g>
<!-- ニュース一覧取得&#45;&gt;NewsFactory.list -->
<g id="edge23" class="edge"><title>ニュース一覧取得&#45;&gt;NewsFactory.list</title>
<path fill="none" stroke="black" d="M1943.57,-493.626C1946.15,-517.23 1948.78,-557.713 1941.94,-591.591 1938.27,-609.744 1930.26,-628.924 1923.06,-643.76"/>
<polygon fill="black" stroke="black" points="1919.86,-642.323 1918.49,-652.828 1926.12,-645.471 1919.86,-642.323"/>
<text text-anchor="middle" x="1981.45" y="-572.891" font-family="Times,serif" font-size="14.00">レスポンス</text>
</g>
<!-- PUT /api/v1/users/:user_id -->
<g id="node14" class="node"><title>PUT /api/v1/users/:user_id</title>
<ellipse fill="lightgrey" stroke="black" cx="1529.94" cy="-96.0123" rx="105.02" ry="18"/>
<text text-anchor="middle" x="1529.94" y="-91.8123" font-family="Times,serif" font-size="14.00">PUT /api/v1/users/:user_id</text>
</g>
<!-- PUT /api/v1/users/:user_id&#45;&gt;アカウント情報更新 -->
<g id="edge24" class="edge"><title>PUT /api/v1/users/:user_id&#45;&gt;アカウント情報更新</title>
<path fill="none" stroke="black" d="M1499.31,-78.6989C1480.49,-68.6774 1456.1,-55.6831 1435.32,-44.6135"/>
<polygon fill="black" stroke="black" points="1436.83,-41.4537 1426.36,-39.8416 1433.54,-47.6319 1436.83,-41.4537"/>
</g>
<!-- NewsController.getLatest&#45;&gt;NewsFactory.list -->
<g id="edge28" class="edge"><title>NewsController.getLatest&#45;&gt;NewsFactory.list</title>
<path fill="none" stroke="black" d="M1729.69,-757.165C1767.15,-739.347 1827.63,-710.585 1867.83,-691.467"/>
<polygon fill="black" stroke="black" points="1869.55,-694.521 1877.08,-687.066 1866.55,-688.2 1869.55,-694.521"/>
</g>
<!-- NewsController.getPast&#45;&gt;NewsFactory.list -->
<g id="edge53" class="edge"><title>NewsController.getPast&#45;&gt;NewsFactory.list</title>
<path fill="none" stroke="black" d="M1908.94,-756.032C1908.94,-740.533 1908.94,-717.467 1908.94,-699.407"/>
<polygon fill="black" stroke="black" points="1912.44,-699.185 1908.94,-689.185 1905.44,-699.185 1912.44,-699.185"/>
</g>
<!-- NewsDetailController.init&#45;&gt;NewsFactory.detail -->
<g id="edge43" class="edge"><title>NewsDetailController.init&#45;&gt;NewsFactory.detail</title>
<path fill="none" stroke="black" d="M957.759,-760.795C851.292,-741.397 646.664,-704.116 539.407,-684.574"/>
<polygon fill="black" stroke="black" points="539.803,-681.089 529.338,-682.74 538.549,-687.976 539.803,-681.089"/>
</g>
<!-- Google Analyticsへアクセスログを送信 -->
<g id="node32" class="node"><title>Google Analyticsへアクセスログを送信</title>
<ellipse fill="none" stroke="black" cx="823.935" cy="-265.805" rx="178.962" ry="21.5881"/>
<text text-anchor="middle" x="823.935" y="-266.015" font-family="Times,serif" font-size="14.00">Google Analyticsへアクセスログを送信</text>
</g>
<!-- NewsDetailController.init&#45;&gt;Google Analyticsへアクセスログを送信 -->
<g id="edge42" class="edge"><title>NewsDetailController.init&#45;&gt;Google Analyticsへアクセスログを送信</title>
<path fill="none" stroke="black" d="M1025.94,-756.009C1025.94,-735.855 1025.94,-701.463 1025.94,-671.917 1025.94,-671.917 1025.94,-671.917 1025.94,-367.212 1025.94,-324.431 989.154,-299.878 946.982,-285.786"/>
<polygon fill="black" stroke="black" points="947.924,-282.414 937.335,-282.765 945.832,-289.094 947.924,-282.414"/>
</g>
<!-- DatabaseFactory.saveFavorite -->
<g id="node27" class="node"><title>DatabaseFactory.saveFavorite</title>
<ellipse fill="none" stroke="black" cx="379.935" cy="-265.805" rx="116.199" ry="18"/>
<text text-anchor="middle" x="379.935" y="-261.605" font-family="Times,serif" font-size="14.00">DatabaseFactory.saveFavorite</text>
</g>
<!-- NewsDetailController.saveFavorite&#45;&gt;DatabaseFactory.saveFavorite -->
<g id="edge49" class="edge"><title>NewsDetailController.saveFavorite&#45;&gt;DatabaseFactory.saveFavorite</title>
<path fill="none" stroke="black" d="M599.001,-351.08C553.205,-333.462 479.856,-305.245 430.805,-286.375"/>
<polygon fill="black" stroke="black" points="431.924,-283.055 421.334,-282.731 429.411,-289.589 431.924,-283.055"/>
</g>
<!-- NewsDetailController.saveFavorite&#45;&gt;Google Analyticsへアクセスログを送信 -->
<g id="edge48" class="edge"><title>NewsDetailController.saveFavorite&#45;&gt;Google Analyticsへアクセスログを送信</title>
<path fill="none" stroke="black" d="M671.154,-350.631C700.105,-334.747 744.206,-310.55 777.597,-292.23"/>
<polygon fill="black" stroke="black" points="779.626,-295.109 786.709,-287.23 776.259,-288.972 779.626,-295.109"/>
</g>
<!-- LoginController.login&#45;&gt;ログイン -->
<g id="edge31" class="edge"><title>LoginController.login&#45;&gt;ログイン</title>
<path fill="none" stroke="black" d="M2157.59,-1104.02C2072.32,-1099.1 1951.06,-1089.33 1936.5,-1073 1929.05,-1064.66 1927.81,-1053.09 1929.12,-1041.98"/>
<polygon fill="black" stroke="black" points="1932.58,-1042.49 1930.93,-1032.02 1925.7,-1041.24 1932.58,-1042.49"/>
<text text-anchor="middle" x="1982.15" y="-1061.8" font-family="Times,serif" font-size="14.00">{401}認証失敗</text>
</g>
<!-- LoginController.login&#45;&gt;UserFactory.login -->
<g id="edge29" class="edge"><title>LoginController.login&#45;&gt;UserFactory.login</title>
<path fill="none" stroke="black" d="M2291.58,-1094.12C2303.32,-1089.07 2314.98,-1082.23 2323.94,-1073 2334.18,-1062.44 2339.89,-1047.06 2344.02,-1033.84"/>
<polygon fill="black" stroke="black" points="2347.37,-1034.85 2346.93,-1024.27 2340.67,-1032.82 2347.37,-1034.85"/>
</g>
<!-- NewsController.init -->
<g id="node29" class="node"><title>NewsController.init</title>
<ellipse fill="none" stroke="black" cx="2250.94" cy="-944.595" rx="80.2325" ry="18"/>
<text text-anchor="middle" x="2250.94" y="-940.395" font-family="Times,serif" font-size="14.00">NewsController.init</text>
</g>
<!-- LoginController.login&#45;&gt;NewsController.init -->
<g id="edge30" class="edge"><title>LoginController.login&#45;&gt;NewsController.init</title>
<path fill="none" stroke="black" d="M2239.92,-1090.94C2239.34,-1085.24 2238.78,-1078.86 2238.5,-1073 2236.8,-1038.43 2241.77,-998.765 2245.93,-973.002"/>
<polygon fill="black" stroke="black" points="2249.42,-973.309 2247.64,-962.867 2242.52,-972.146 2249.42,-973.309"/>
<text text-anchor="middle" x="2284.15" y="-1061.8" font-family="Times,serif" font-size="14.00">{200}認証成功</text>
</g>
<!-- DatabaseFactory.saveAccount -->
<g id="node28" class="node"><title>DatabaseFactory.saveAccount</title>
<ellipse fill="none" stroke="black" cx="1349.94" cy="-265.805" rx="116.675" ry="18"/>
<text text-anchor="middle" x="1349.94" y="-261.605" font-family="Times,serif" font-size="14.00">DatabaseFactory.saveAccount</text>
</g>
<!-- AccountController.save&#45;&gt;DatabaseFactory.saveAccount -->
<g id="edge36" class="edge"><title>AccountController.save&#45;&gt;DatabaseFactory.saveAccount</title>
<path fill="none" stroke="black" d="M1460.14,-350.631C1438.39,-334.09 1404.79,-308.534 1380.41,-289.987"/>
<polygon fill="black" stroke="black" points="1382.28,-287.014 1372.21,-283.746 1378.05,-292.585 1382.28,-287.014"/>
</g>
<!-- DatabaseFactory.getAccount -->
<g id="node30" class="node"><title>DatabaseFactory.getAccount</title>
<ellipse fill="none" stroke="black" cx="1306.94" cy="-573.591" rx="111.855" ry="18"/>
<text text-anchor="middle" x="1306.94" y="-569.391" font-family="Times,serif" font-size="14.00">DatabaseFactory.getAccount</text>
</g>
<!-- AccountController.init&#45;&gt;DatabaseFactory.getAccount -->
<g id="edge32" class="edge"><title>AccountController.init&#45;&gt;DatabaseFactory.getAccount</title>
<path fill="none" stroke="black" d="M1352.1,-652.875C1343.71,-638.325 1331.5,-617.173 1321.9,-600.523"/>
<polygon fill="black" stroke="black" points="1324.9,-598.72 1316.87,-591.807 1318.83,-602.218 1324.9,-598.72"/>
</g>
<!-- UserFactory.login&#45;&gt;POST /api/v1/users/login -->
<g id="edge34" class="edge"><title>UserFactory.login&#45;&gt;POST /api/v1/users/login</title>
<path fill="none" stroke="black" d="M2372.78,-988.737C2393.92,-967.845 2430.32,-931.862 2454.51,-907.948"/>
<polygon fill="black" stroke="black" points="2457.25,-910.162 2461.9,-900.642 2452.33,-905.183 2457.25,-910.162"/>
</g>
<!-- UserFactory.login&#45;&gt;LoginController.login -->
<g id="edge35" class="edge"><title>UserFactory.login&#45;&gt;LoginController.login</title>
<path fill="none" stroke="black" d="M2361.07,-1024.56C2360.43,-1039.17 2354.71,-1059.83 2341.94,-1073 2334,-1081.18 2323.95,-1087.47 2313.28,-1092.31"/>
<polygon fill="black" stroke="black" points="2311.72,-1089.17 2303.79,-1096.2 2314.37,-1095.65 2311.72,-1089.17"/>
</g>
<!-- NewsFactory.detail&#45;&gt;記事詳細 -->
<g id="edge52" class="edge"><title>NewsFactory.detail&#45;&gt;記事詳細</title>
<path fill="none" stroke="black" d="M517.222,-656.397C548.735,-644.704 587.913,-624.393 607.935,-591.591 623.426,-566.212 631.843,-533.363 636.29,-508.804"/>
<polygon fill="black" stroke="black" points="639.76,-509.273 637.962,-498.832 632.857,-508.115 639.76,-509.273"/>
<text text-anchor="middle" x="732.595" y="-573.801" font-family="Times,serif" font-size="14.00">{500}サーバエラーのアラート表示</text>
</g>
<!-- NewsFactory.detail&#45;&gt;GET /api/v1/news/:news_id -->
<g id="edge50" class="edge"><title>NewsFactory.detail&#45;&gt;GET /api/v1/news/:news_id</title>
<path fill="none" stroke="black" d="M399.195,-663.09C353.165,-657.503 292.197,-647.93 239.935,-632.411 208.31,-623.02 174.271,-607.828 148.819,-595.373"/>
<polygon fill="black" stroke="black" points="150.364,-592.233 139.851,-590.924 147.254,-598.503 150.364,-592.233"/>
</g>
<!-- DatabaseFactory.saveNewsDetail -->
<g id="node33" class="node"><title>DatabaseFactory.saveNewsDetail</title>
<ellipse fill="none" stroke="black" cx="469.935" cy="-573.591" rx="128.751" ry="18"/>
<text text-anchor="middle" x="469.935" y="-569.391" font-family="Times,serif" font-size="14.00">DatabaseFactory.saveNewsDetail</text>
</g>
<!-- NewsFactory.detail&#45;&gt;DatabaseFactory.saveNewsDetail -->
<g id="edge51" class="edge"><title>NewsFactory.detail&#45;&gt;DatabaseFactory.saveNewsDetail</title>
<path fill="none" stroke="black" d="M469.935,-652.875C469.935,-638.729 469.935,-618.343 469.935,-601.921"/>
<polygon fill="black" stroke="black" points="473.435,-601.807 469.935,-591.807 466.435,-601.807 473.435,-601.807"/>
<text text-anchor="middle" x="515.155" y="-621.211" font-family="Times,serif" font-size="14.00">{200}取得成功</text>
</g>
<!-- AccountFactory.update&#45;&gt;アカウント情報 -->
<g id="edge46" class="edge"><title>AccountFactory.update&#45;&gt;アカウント情報</title>
<path fill="none" stroke="black" d="M1293.77,-183.309C1219.57,-204.132 1101.56,-250.343 1131.5,-328.418 1153.02,-384.551 1171.63,-396.089 1221.94,-429.005 1234.57,-437.271 1248.95,-444.078 1263.41,-449.639"/>
<polygon fill="black" stroke="black" points="1262.31,-452.965 1272.9,-453.117 1264.72,-446.392 1262.31,-452.965"/>
<text text-anchor="middle" x="1177.15" y="-317.218" font-family="Times,serif" font-size="14.00">{200}保存成功</text>
</g>
<!-- AccountFactory.update&#45;&gt;アカウント情報 -->
<g id="edge47" class="edge"><title>AccountFactory.update&#45;&gt;アカウント情報</title>
<path fill="none" stroke="black" d="M1413.66,-182.122C1431.51,-187.352 1450.3,-194.719 1465.94,-205.012 1547.59,-258.762 1594.81,-292.744 1584.94,-390.005 1583.15,-407.608 1589.54,-416.588 1576.94,-429.005 1561.2,-444.505 1516.85,-454.6 1471.57,-461.067"/>
<polygon fill="black" stroke="black" points="1471.03,-457.609 1461.6,-462.433 1471.98,-464.544 1471.03,-457.609"/>
<text text-anchor="middle" x="1689.59" y="-317.218" font-family="Times,serif" font-size="14.00">{500}サーバエラーのアラート表示</text>
</g>
<!-- AccountFactory.update&#45;&gt;PUT /api/v1/users/:user_id -->
<g id="edge45" class="edge"><title>AccountFactory.update&#45;&gt;PUT /api/v1/users/:user_id</title>
<path fill="none" stroke="black" d="M1388.99,-152.606C1415.84,-142.017 1451.7,-127.87 1480.54,-116.498"/>
<polygon fill="black" stroke="black" points="1482,-119.682 1490.02,-112.756 1479.43,-113.17 1482,-119.682"/>
</g>
<!-- NewsFactory.list&#45;&gt;記事一覧 -->
<g id="edge41" class="edge"><title>NewsFactory.list&#45;&gt;記事一覧</title>
<path fill="none" stroke="black" d="M1942.81,-686.711C1966.95,-699.285 1997.57,-719.866 2011.94,-748.423 2022.24,-768.906 2025.11,-781.245 2011.94,-800.009 1967.92,-862.697 1746.73,-877.662 1619.48,-881.027"/>
<polygon fill="black" stroke="black" points="1619.26,-877.531 1609.35,-881.275 1619.44,-884.529 1619.26,-877.531"/>
<text text-anchor="middle" x="2128.59" y="-774.426" font-family="Times,serif" font-size="14.00">{500}サーバエラーのアラート表示</text>
</g>
<!-- NewsFactory.list&#45;&gt;GET /api/v1/news -->
<g id="edge39" class="edge"><title>NewsFactory.list&#45;&gt;GET /api/v1/news</title>
<path fill="none" stroke="black" d="M1899.82,-652.875C1892.06,-638.37 1880.79,-617.305 1871.89,-600.679"/>
<polygon fill="black" stroke="black" points="1874.78,-598.652 1866.97,-591.486 1868.61,-601.954 1874.78,-598.652"/>
</g>
<!-- DatabaseFactory.saveNews -->
<g id="node31" class="node"><title>DatabaseFactory.saveNews</title>
<ellipse fill="none" stroke="black" cx="1602.94" cy="-573.591" rx="107.036" ry="18"/>
<text text-anchor="middle" x="1602.94" y="-569.391" font-family="Times,serif" font-size="14.00">DatabaseFactory.saveNews</text>
</g>
<!-- NewsFactory.list&#45;&gt;DatabaseFactory.saveNews -->
<g id="edge40" class="edge"><title>NewsFactory.list&#45;&gt;DatabaseFactory.saveNews</title>
<path fill="none" stroke="black" d="M1864.75,-656.933C1840.69,-649.806 1810.42,-640.746 1783.5,-632.411 1741.82,-619.509 1694.9,-604.468 1659.34,-592.962"/>
<polygon fill="black" stroke="black" points="1660.21,-589.566 1649.62,-589.815 1658.06,-596.226 1660.21,-589.566"/>
<text text-anchor="middle" x="1829.15" y="-621.211" font-family="Times,serif" font-size="14.00">{200}取得成功</text>
</g>
<!-- DatabaseFactory.saveFavorite&#45;&gt;記事詳細 -->
<g id="edge25" class="edge"><title>DatabaseFactory.saveFavorite&#45;&gt;記事詳細</title>
<path fill="none" stroke="black" d="M362.777,-283.791C339.432,-308.981 303.338,-356.832 328.935,-390.005 354.688,-423.379 458.068,-445.788 538.858,-458.586"/>
<polygon fill="black" stroke="black" points="538.673,-462.099 549.092,-460.176 539.747,-455.182 538.673,-462.099"/>
<text text-anchor="middle" x="412.935" y="-367.512" font-family="Times,serif" font-size="14.00">保存失敗時はアラート表示</text>
</g>
<!-- DatabaseFactory.saveAccount&#45;&gt;アカウント情報 -->
<g id="edge27" class="edge"><title>DatabaseFactory.saveAccount&#45;&gt;アカウント情報</title>
<path fill="none" stroke="black" d="M1297.7,-281.983C1266.55,-294.028 1229.55,-314.298 1210.94,-346.418 1201.22,-363.178 1201.29,-373.203 1210.94,-390.005 1225.6,-415.557 1251.67,-433.887 1277.38,-446.63"/>
<polygon fill="black" stroke="black" points="1275.9,-449.801 1286.43,-450.906 1278.89,-443.471 1275.9,-449.801"/>
<text text-anchor="middle" x="1294.94" y="-367.512" font-family="Times,serif" font-size="14.00">保存失敗時はアラート表示</text>
</g>
<!-- DatabaseFactory.saveAccount&#45;&gt;AccountFactory.update -->
<g id="edge26" class="edge"><title>DatabaseFactory.saveAccount&#45;&gt;AccountFactory.update</title>
<path fill="none" stroke="black" d="M1349.94,-247.419C1349.94,-233.522 1349.94,-213.778 1349.94,-197.709"/>
<polygon fill="black" stroke="black" points="1353.44,-197.289 1349.94,-187.289 1346.44,-197.289 1353.44,-197.289"/>
<text text-anchor="middle" x="1405.94" y="-214.812" font-family="Times,serif" font-size="14.00">成功かつ通信可能</text>
</g>
<!-- NewsController.init&#45;&gt;NewsFactory.list -->
<g id="edge38" class="edge"><title>NewsController.init&#45;&gt;NewsFactory.list</title>
<path fill="none" stroke="black" d="M2256.01,-926.559C2265.96,-889.361 2283.44,-800.079 2239.94,-748.423 2207.5,-709.911 2071.09,-688.739 1983.83,-678.907"/>
<polygon fill="black" stroke="black" points="1984.03,-675.408 1973.71,-677.793 1983.26,-682.366 1984.03,-675.408"/>
</g>
<!-- DatabaseFactory.getAccount&#45;&gt;アカウント情報 -->
<g id="edge33" class="edge"><title>DatabaseFactory.getAccount&#45;&gt;アカウント情報</title>
<path fill="none" stroke="black" d="M1293,-555.407C1285.58,-544.05 1279.24,-529.022 1285.94,-516.591 1288.58,-511.685 1292.06,-507.248 1296.04,-503.258"/>
<polygon fill="black" stroke="black" points="1298.46,-505.785 1303.66,-496.552 1293.84,-500.529 1298.46,-505.785"/>
<text text-anchor="middle" x="1369.94" y="-526.391" font-family="Times,serif" font-size="14.00">取得失敗時はアラート表示</text>
</g>
<!-- DatabaseFactory.saveNews&#45;&gt;記事一覧 -->
<g id="edge37" class="edge"><title>DatabaseFactory.saveNews&#45;&gt;記事一覧</title>
<path fill="none" stroke="black" d="M1591.55,-591.546C1575.68,-616.237 1547.55,-664.099 1535.94,-709.423 1524.08,-755.7 1524.28,-811.227 1526.11,-846.514"/>
<polygon fill="black" stroke="black" points="1522.64,-847.008 1526.72,-856.782 1529.62,-846.592 1522.64,-847.008"/>
<text text-anchor="middle" x="1619.94" y="-719.223" font-family="Times,serif" font-size="14.00">保存失敗時はアラート表示</text>
</g>
<!-- DatabaseFactory.saveNewsDetail&#45;&gt;記事詳細 -->
<g id="edge44" class="edge"><title>DatabaseFactory.saveNewsDetail&#45;&gt;記事詳細</title>
<path fill="none" stroke="black" d="M457.316,-555.621C450.064,-543.64 444,-527.789 452.935,-516.591 464.219,-502.45 499.49,-492.621 536.481,-485.985"/>
<polygon fill="black" stroke="black" points="537.158,-489.42 546.423,-484.281 535.975,-482.52 537.158,-489.42"/>
<text text-anchor="middle" x="536.935" y="-526.391" font-family="Times,serif" font-size="14.00">保存失敗時はアラート表示</text>
</g>
</g>
</svg>
