<?xml version="1.0" encoding="UTF-8" standalone="no"?>
<!DOCTYPE svg PUBLIC "-//W3C//DTD SVG 1.1//EN"
 "http://www.w3.org/Graphics/SVG/1.1/DTD/svg11.dtd">
<!-- Generated by graphviz version 2.38.0 (20140413.2041)
 -->
<!-- Title: sample Pages: 1 -->
<svg width="734pt" height="1398pt"
 viewBox="0.00 0.00 734.34 1398.00" xmlns="http://www.w3.org/2000/svg" xmlns:xlink="http://www.w3.org/1999/xlink">
<g id="graph0" class="graph" transform="scale(1 1) rotate(0) translate(4 1394)">
<title>sample</title>
<polygon fill="white" stroke="none" points="-4,4 -4,-1394 730.342,-1394 730.342,4 -4,4"/>
<text text-anchor="middle" x="363.171" y="-1371.6" font-family="Times,serif" font-size="18.00">User Registration</text>
<!-- User Activated -->
<g id="node1" class="node"><title>User Activated</title>
<ellipse fill="none" stroke="black" cx="160" cy="-22" rx="116.858" ry="18"/>
<ellipse fill="none" stroke="black" cx="160" cy="-22" rx="120.864" ry="22"/>
<text text-anchor="middle" x="160" y="-17.8" font-family="Times,serif" font-size="14.00">User Activated /user/activated</text>
</g>
<!-- Confirm User -->
<g id="node2" class="node"><title>Confirm User</title>
<ellipse fill="none" stroke="black" cx="405" cy="-849" rx="107.742" ry="18"/>
<ellipse fill="none" stroke="black" cx="405" cy="-849" rx="111.737" ry="22"/>
<text text-anchor="middle" x="405" y="-844.8" font-family="Times,serif" font-size="14.00">Confirm User /user/confirm</text>
</g>
<!-- Sent Activation Email -->
<g id="node7" class="node"><title>Sent Activation Email</title>
<ellipse fill="none" stroke="black" cx="389" cy="-450" rx="187.848" ry="18"/>
<ellipse fill="none" stroke="black" cx="389" cy="-450" rx="191.852" ry="22"/>
<text text-anchor="middle" x="389" y="-445.8" font-family="Times,serif" font-size="14.00">Sent Activation Email /user/sent_activation_email</text>
</g>
<!-- Confirm User&#45;&gt;Sent Activation Email -->
<g id="edge1" class="edge"><title>Confirm User&#45;&gt;Sent Activation Email</title>
<path fill="none" stroke="black" stroke-dasharray="5,2" d="M398.951,-826.857C394.42,-809.152 389,-783.137 389,-760 389,-760 389,-760 389,-539 389,-520.326 389,-499.424 389,-482.678"/>
<polygon fill="black" stroke="black" points="392.5,-482.339 389,-472.339 385.5,-482.339 392.5,-482.339"/>
</g>
<!-- GET /user/sent_activation_email -->
<g id="node9" class="node"><title>GET /user/sent_activation_email</title>
<ellipse fill="lightgrey" stroke="black" cx="548" cy="-759" rx="126.701" ry="18"/>
<text text-anchor="middle" x="548" y="-754.8" font-family="Times,serif" font-size="14.00">GET /user/sent_activation_email</text>
</g>
<!-- Confirm User&#45;&gt;GET /user/sent_activation_email -->
<g id="edge6" class="edge"><title>Confirm User&#45;&gt;GET /user/sent_activation_email</title>
<path fill="none" stroke="black" d="M437.807,-827.811C459.937,-814.193 489.143,-796.22 511.927,-782.199"/>
<polygon fill="black" stroke="black" points="513.947,-785.065 520.629,-776.844 510.278,-779.104 513.947,-785.065"/>
<text text-anchor="middle" x="545.614" y="-797.8" font-family="Times,serif" font-size="14.00">Click submit button</text>
</g>
<!-- Top -->
<g id="node3" class="node"><title>Top</title>
<ellipse fill="none" stroke="black" cx="486" cy="-1342" rx="28.3175" ry="18"/>
<ellipse fill="none" stroke="black" cx="486" cy="-1342" rx="32.3055" ry="22"/>
<text text-anchor="middle" x="486" y="-1337.8" font-family="Times,serif" font-size="14.00">Top /</text>
</g>
<!-- Register User -->
<g id="node6" class="node"><title>Register User</title>
<ellipse fill="none" stroke="black" cx="464" cy="-1175" rx="106.73" ry="18"/>
<ellipse fill="none" stroke="black" cx="464" cy="-1175" rx="110.725" ry="22"/>
<text text-anchor="middle" x="464" y="-1170.8" font-family="Times,serif" font-size="14.00">Register User /user/register</text>
</g>
<!-- Top&#45;&gt;Register User -->
<g id="edge2" class="edge"><title>Top&#45;&gt;Register User</title>
<path fill="none" stroke="black" stroke-dasharray="5,2" d="M480.792,-1320.01C477.495,-1305.94 473.412,-1286.96 471,-1270 468.053,-1249.28 466.303,-1225.8 465.29,-1207.49"/>
<polygon fill="black" stroke="black" points="468.779,-1207.18 464.776,-1197.37 461.788,-1207.53 468.779,-1207.18"/>
</g>
<!-- GET /user/register -->
<g id="node12" class="node"><title>GET /user/register</title>
<ellipse fill="lightgrey" stroke="black" cx="556" cy="-1252" rx="75.5348" ry="18"/>
<text text-anchor="middle" x="556" y="-1247.8" font-family="Times,serif" font-size="14.00">GET /user/register</text>
</g>
<!-- Top&#45;&gt;GET /user/register -->
<g id="edge7" class="edge"><title>Top&#45;&gt;GET /user/register</title>
<path fill="none" stroke="black" d="M500.845,-1322.34C511.178,-1309.35 525.066,-1291.89 536.321,-1277.74"/>
<polygon fill="black" stroke="black" points="539.11,-1279.86 542.596,-1269.85 533.632,-1275.5 539.11,-1279.86"/>
<text text-anchor="middle" x="598.957" y="-1290.8" font-family="Times,serif" font-size="14.00">Click register user button</text>
</g>
<!-- Receive Activation Email on Your Email App -->
<g id="node4" class="node"><title>Receive Activation Email on Your Email App</title>
<ellipse fill="none" stroke="black" cx="277" cy="-369" rx="173.909" ry="18"/>
<ellipse fill="none" stroke="black" cx="277" cy="-369" rx="177.913" ry="22"/>
<text text-anchor="middle" x="277" y="-364.8" font-family="Times,serif" font-size="14.00">Receive Activation Email on Your Email App </text>
</g>
<!-- Receive Activation Email on Your Email App&#45;&gt;User Activated -->
<g id="edge3" class="edge"><title>Receive Activation Email on Your Email App&#45;&gt;User Activated</title>
<path fill="none" stroke="black" stroke-dasharray="5,2" d="M160.33,-352.36C84.6277,-338.82 0,-315.7 0,-280 0,-280 0,-280 0,-115 0,-77.6443 33.1821,-55.2324 69.324,-41.9006"/>
<polygon fill="black" stroke="black" points="70.7513,-45.1107 79.0625,-38.5399 68.4678,-38.4936 70.7513,-45.1107"/>
</g>
<!-- GET /user/activated -->
<g id="node17" class="node"><title>GET /user/activated</title>
<ellipse fill="lightgrey" stroke="black" cx="277" cy="-279" rx="80.8301" ry="18"/>
<text text-anchor="middle" x="277" y="-274.8" font-family="Times,serif" font-size="14.00">GET /user/activated</text>
</g>
<!-- Receive Activation Email on Your Email App&#45;&gt;GET /user/activated -->
<g id="edge8" class="edge"><title>Receive Activation Email on Your Email App&#45;&gt;GET /user/activated</title>
<path fill="none" stroke="black" d="M277,-346.698C277,-334.855 277,-319.992 277,-307.304"/>
<polygon fill="black" stroke="black" points="280.5,-307.271 277,-297.271 273.5,-307.271 280.5,-307.271"/>
<text text-anchor="middle" x="334.155" y="-317.8" font-family="Times,serif" font-size="14.00">Click activation link</text>
</g>
<!-- Server Error -->
<g id="node5" class="node"><title>Server Error</title>
<ellipse fill="none" stroke="black" cx="592" cy="-22" rx="128.909" ry="18"/>
<ellipse fill="none" stroke="black" cx="592" cy="-22" rx="132.908" ry="22"/>
<text text-anchor="middle" x="592" y="-17.8" font-family="Times,serif" font-size="14.00">Server Error /system/server_error</text>
</g>
<!-- Register User&#45;&gt;Confirm User -->
<g id="edge4" class="edge"><title>Register User&#45;&gt;Confirm User</title>
<path fill="none" stroke="black" stroke-dasharray="5,2" d="M418.681,-1154.85C392.223,-1140.32 364,-1117.45 364,-1086 364,-1086 364,-1086 364,-925 364,-908.566 371.672,-892.316 380.379,-879.165"/>
<polygon fill="black" stroke="black" points="383.242,-881.18 386.18,-871 377.535,-877.125 383.242,-881.18"/>
</g>
<!-- POST /user/confirm -->
<g id="node14" class="node"><title>POST /user/confirm</title>
<ellipse fill="lightgrey" stroke="black" cx="473" cy="-1085" rx="80.8905" ry="18"/>
<text text-anchor="middle" x="473" y="-1080.8" font-family="Times,serif" font-size="14.00">POST /user/confirm</text>
</g>
<!-- Register User&#45;&gt;POST /user/confirm -->
<g id="edge9" class="edge"><title>Register User&#45;&gt;POST /user/confirm</title>
<path fill="none" stroke="black" d="M463.264,-1152.78C463.195,-1143.06 463.488,-1131.41 464.772,-1121 465.087,-1118.45 465.512,-1115.82 466.005,-1113.2"/>
<polygon fill="black" stroke="black" points="469.45,-1113.83 468.149,-1103.31 462.609,-1112.34 469.45,-1113.83"/>
<text text-anchor="middle" x="520.614" y="-1123.8" font-family="Times,serif" font-size="14.00">Click submit button</text>
</g>
<!-- Sent Activation Email&#45;&gt;Receive Activation Email on Your Email App -->
<g id="edge5" class="edge"><title>Sent Activation Email&#45;&gt;Receive Activation Email on Your Email App</title>
<path fill="none" stroke="black" stroke-dasharray="5,2" d="M359.573,-428.244C345.92,-418.613 329.524,-407.048 314.953,-396.77"/>
<polygon fill="black" stroke="black" points="316.808,-393.796 306.619,-390.892 312.773,-399.516 316.808,-393.796"/>
</g>
<!-- Activation Code Expired -->
<g id="node8" class="node"><title>Activation Code Expired</title>
<ellipse fill="none" stroke="black" cx="239" cy="-116" rx="207.107" ry="18"/>
<ellipse fill="none" stroke="black" cx="239" cy="-116" rx="211.103" ry="22"/>
<text text-anchor="middle" x="239" y="-111.8" font-family="Times,serif" font-size="14.00">Activation Code Expired /user/activation_code_expired</text>
</g>
<!-- Restore Inputted User from Session -->
<g id="node16" class="node"><title>Restore Inputted User from Session</title>
<ellipse fill="lightgrey" stroke="black" cx="553" cy="-686" rx="136.202" ry="18"/>
<text text-anchor="middle" x="553" y="-681.8" font-family="Times,serif" font-size="14.00">Restore Inputted User from Session</text>
</g>
<!-- GET /user/sent_activation_email&#45;&gt;Restore Inputted User from Session -->
<g id="edge10" class="edge"><title>GET /user/sent_activation_email&#45;&gt;Restore Inputted User from Session</title>
<path fill="none" stroke="black" d="M549.21,-740.813C549.775,-732.789 550.461,-723.047 551.094,-714.069"/>
<polygon fill="black" stroke="black" points="554.59,-714.25 551.801,-704.029 547.607,-713.758 554.59,-714.25"/>
</g>
<!-- Set Inputted User on Session -->
<g id="node10" class="node"><title>Set Inputted User on Session</title>
<ellipse fill="lightgrey" stroke="black" cx="504" cy="-926" rx="112.081" ry="18"/>
<text text-anchor="middle" x="504" y="-921.8" font-family="Times,serif" font-size="14.00">Set Inputted User on Session</text>
</g>
<!-- Set Inputted User on Session&#45;&gt;Confirm User -->
<g id="edge11" class="edge"><title>Set Inputted User on Session&#45;&gt;Confirm User</title>
<path fill="none" stroke="black" d="M481.535,-907.981C469.346,-898.747 454.003,-887.123 440.26,-876.712"/>
<polygon fill="black" stroke="black" points="442.037,-873.667 431.952,-870.418 437.809,-879.247 442.037,-873.667"/>
</g>
<!-- Save as Activated -->
<g id="node11" class="node"><title>Save as Activated</title>
<ellipse fill="lightgrey" stroke="black" cx="541" cy="-116" rx="72.9567" ry="18"/>
<text text-anchor="middle" x="541" y="-111.8" font-family="Times,serif" font-size="14.00">Save as Activated</text>
</g>
<!-- Save as Activated&#45;&gt;User Activated -->
<g id="edge12" class="edge"><title>Save as Activated&#45;&gt;User Activated</title>
<path fill="none" stroke="black" d="M492.472,-102.422C481.476,-99.6135 469.843,-96.6757 459,-94 385.644,-75.8987 301.948,-56.0971 241.8,-42.0156"/>
<polygon fill="black" stroke="black" points="242.514,-38.5882 231.98,-39.7183 240.92,-45.4041 242.514,-38.5882"/>
<text text-anchor="middle" x="399.162" y="-64.8" font-family="Times,serif" font-size="14.00">Success</text>
</g>
<!-- Save as Activated&#45;&gt;Server Error -->
<g id="edge13" class="edge"><title>Save as Activated&#45;&gt;Server Error</title>
<path fill="none" stroke="black" d="M538.419,-97.8573C537.59,-87.0066 538.056,-73.001 543.658,-62 545.752,-57.8891 548.496,-54.0631 551.614,-50.5414"/>
<polygon fill="black" stroke="black" points="554.269,-52.8392 558.932,-43.3258 549.354,-47.8548 554.269,-52.8392"/>
<text text-anchor="middle" x="586.171" y="-64.8" font-family="Times,serif" font-size="14.00">Database Error</text>
</g>
<!-- GET /user/register&#45;&gt;Register User -->
<g id="edge14" class="edge"><title>GET /user/register&#45;&gt;Register User</title>
<path fill="none" stroke="black" d="M535.582,-1234.36C524.272,-1225.13 509.936,-1213.45 497.069,-1202.96"/>
<polygon fill="black" stroke="black" points="499.25,-1200.22 489.288,-1196.61 494.827,-1205.65 499.25,-1200.22"/>
</g>
<!-- Generate Activation Code -->
<g id="node13" class="node"><title>Generate Activation Code</title>
<ellipse fill="lightgrey" stroke="black" cx="553" cy="-613" rx="101.906" ry="18"/>
<text text-anchor="middle" x="553" y="-608.8" font-family="Times,serif" font-size="14.00">Generate Activation Code</text>
</g>
<!-- Save User -->
<g id="node15" class="node"><title>Save User</title>
<ellipse fill="lightgrey" stroke="black" cx="553" cy="-540" rx="46.4132" ry="18"/>
<text text-anchor="middle" x="553" y="-535.8" font-family="Times,serif" font-size="14.00">Save User</text>
</g>
<!-- Generate Activation Code&#45;&gt;Save User -->
<g id="edge15" class="edge"><title>Generate Activation Code&#45;&gt;Save User</title>
<path fill="none" stroke="black" d="M553,-594.813C553,-586.789 553,-577.047 553,-568.069"/>
<polygon fill="black" stroke="black" points="556.5,-568.029 553,-558.029 549.5,-568.029 556.5,-568.029"/>
</g>
<!-- Validate Inputted User -->
<g id="node19" class="node"><title>Validate Inputted User</title>
<ellipse fill="lightgrey" stroke="black" cx="504" cy="-1012" rx="89.8445" ry="18"/>
<text text-anchor="middle" x="504" y="-1007.8" font-family="Times,serif" font-size="14.00">Validate Inputted User</text>
</g>
<!-- POST /user/confirm&#45;&gt;Validate Inputted User -->
<g id="edge16" class="edge"><title>POST /user/confirm&#45;&gt;Validate Inputted User</title>
<path fill="none" stroke="black" d="M480.504,-1066.81C484.084,-1058.62 488.446,-1048.62 492.436,-1039.48"/>
<polygon fill="black" stroke="black" points="495.771,-1040.59 496.565,-1030.03 489.356,-1037.79 495.771,-1040.59"/>
</g>
<!-- Save User&#45;&gt;Server Error -->
<g id="edge18" class="edge"><title>Save User&#45;&gt;Server Error</title>
<path fill="none" stroke="black" d="M581.65,-525.553C607.668,-511.129 642,-485.549 642,-451 642,-451 642,-451 642,-115 642,-90.6365 639.72,-83.3595 628,-62 626.061,-58.4657 623.733,-55.0004 621.206,-51.6837"/>
<polygon fill="black" stroke="black" points="623.715,-49.2281 614.622,-43.7907 618.34,-53.7119 623.715,-49.2281"/>
<text text-anchor="middle" x="684.171" y="-274.8" font-family="Times,serif" font-size="14.00">Database Error</text>
</g>
<!-- Save User&#45;&gt;Sent Activation Email -->
<g id="edge17" class="edge"><title>Save User&#45;&gt;Sent Activation Email</title>
<path fill="none" stroke="black" d="M527.014,-525.056C502.704,-512.012 465.812,-492.216 436.285,-476.373"/>
<polygon fill="black" stroke="black" points="437.847,-473.238 427.38,-471.594 434.537,-479.407 437.847,-473.238"/>
<text text-anchor="middle" x="508.162" y="-492.8" font-family="Times,serif" font-size="14.00">Success</text>
</g>
<!-- Restore Inputted User from Session&#45;&gt;Generate Activation Code -->
<g id="edge19" class="edge"><title>Restore Inputted User from Session&#45;&gt;Generate Activation Code</title>
<path fill="none" stroke="black" d="M553,-667.813C553,-659.789 553,-650.047 553,-641.069"/>
<polygon fill="black" stroke="black" points="556.5,-641.029 553,-631.029 549.5,-641.029 556.5,-641.029"/>
</g>
<!-- Validate Activation Code -->
<g id="node18" class="node"><title>Validate Activation Code</title>
<ellipse fill="lightgrey" stroke="black" cx="277" cy="-206" rx="99.0329" ry="18"/>
<text text-anchor="middle" x="277" y="-201.8" font-family="Times,serif" font-size="14.00">Validate Activation Code</text>
</g>
<!-- GET /user/activated&#45;&gt;Validate Activation Code -->
<g id="edge20" class="edge"><title>GET /user/activated&#45;&gt;Validate Activation Code</title>
<path fill="none" stroke="black" d="M277,-260.813C277,-252.789 277,-243.047 277,-234.069"/>
<polygon fill="black" stroke="black" points="280.5,-234.029 277,-224.029 273.5,-234.029 280.5,-234.029"/>
</g>
<!-- Validate Activation Code&#45;&gt;Activation Code Expired -->
<g id="edge22" class="edge"><title>Validate Activation Code&#45;&gt;Activation Code Expired</title>
<path fill="none" stroke="black" d="M269.673,-188.033C264.744,-176.619 258.105,-161.242 252.263,-147.715"/>
<polygon fill="black" stroke="black" points="255.364,-146.067 248.187,-138.274 248.938,-148.842 255.364,-146.067"/>
<text text-anchor="middle" x="281.828" y="-158.8" font-family="Times,serif" font-size="14.00">Invalid</text>
</g>
<!-- Validate Activation Code&#45;&gt;Save as Activated -->
<g id="edge21" class="edge"><title>Validate Activation Code&#45;&gt;Save as Activated</title>
<path fill="none" stroke="black" d="M322.083,-189.972C368.514,-174.495 440.772,-150.409 489.444,-134.185"/>
<polygon fill="black" stroke="black" points="490.772,-137.432 499.152,-130.949 488.558,-130.791 490.772,-137.432"/>
<text text-anchor="middle" x="431.776" y="-158.8" font-family="Times,serif" font-size="14.00">Valid</text>
</g>
<!-- Validate Inputted User&#45;&gt;Register User -->
<g id="edge24" class="edge"><title>Validate Inputted User&#45;&gt;Register User</title>
<path fill="none" stroke="black" d="M526.544,-1029.73C556.14,-1053.77 601.502,-1099.12 576,-1135 570.096,-1143.31 562.288,-1149.86 553.532,-1155.03"/>
<polygon fill="black" stroke="black" points="551.741,-1152.01 544.497,-1159.74 554.981,-1158.22 551.741,-1152.01"/>
<text text-anchor="middle" x="602.828" y="-1080.8" font-family="Times,serif" font-size="14.00">Invalid</text>
</g>
<!-- Validate Inputted User&#45;&gt;Set Inputted User on Session -->
<g id="edge23" class="edge"><title>Validate Inputted User&#45;&gt;Set Inputted User on Session</title>
<path fill="none" stroke="black" d="M504,-993.595C504,-982.257 504,-967.227 504,-954.315"/>
<polygon fill="black" stroke="black" points="507.5,-954.095 504,-944.095 500.5,-954.095 507.5,-954.095"/>
<text text-anchor="middle" x="518.776" y="-964.8" font-family="Times,serif" font-size="14.00">Valid</text>
</g>
</g>
</svg>
