<?xml version="1.0" encoding="UTF-8" standalone="no"?>
<!DOCTYPE svg PUBLIC "-//W3C//DTD SVG 1.1//EN"
 "http://www.w3.org/Graphics/SVG/1.1/DTD/svg11.dtd">
<!-- Generated by graphviz version 2.38.0 (20140413.2041)
 -->
<!-- Title: sample Pages: 1 -->
<svg width="734pt" height="1484pt"
 viewBox="0.00 0.00 734.34 1484.00" xmlns="http://www.w3.org/2000/svg" xmlns:xlink="http://www.w3.org/1999/xlink">
<g id="graph0" class="graph" transform="scale(1 1) rotate(0) translate(4 1480)">
<title>sample</title>
<polygon fill="white" stroke="none" points="-4,4 -4,-1480 730.342,-1480 730.342,4 -4,4"/>
<text text-anchor="middle" x="363.171" y="-1457.6" font-family="Times,serif" font-size="18.00">User Registration</text>
<!-- Activation Code Expired -->
<g id="node1" class="node"><title>Activation Code Expired</title>
<ellipse fill="none" stroke="black" cx="239" cy="-116" rx="207.107" ry="18"/>
<ellipse fill="none" stroke="black" cx="239" cy="-116" rx="211.103" ry="22"/>
<text text-anchor="middle" x="239" y="-111.8" font-family="Times,serif" font-size="14.00">Activation Code Expired /user/activation_code_expired</text>
</g>
<!-- Receive Activation Email on Your Email App -->
<g id="node2" class="node"><title>Receive Activation Email on Your Email App</title>
<ellipse fill="none" stroke="black" cx="246" cy="-369" rx="173.909" ry="18"/>
<ellipse fill="none" stroke="black" cx="246" cy="-369" rx="177.913" ry="22"/>
<text text-anchor="middle" x="246" y="-364.8" font-family="Times,serif" font-size="14.00">Receive Activation Email on Your Email App </text>
</g>
<!-- User Activated -->
<g id="node6" class="node"><title>User Activated</title>
<ellipse fill="none" stroke="black" cx="160" cy="-22" rx="116.858" ry="18"/>
<ellipse fill="none" stroke="black" cx="160" cy="-22" rx="120.864" ry="22"/>
<text text-anchor="middle" x="160" y="-17.8" font-family="Times,serif" font-size="14.00">User Activated /user/activated</text>
</g>
<!-- Receive Activation Email on Your Email App&#45;&gt;User Activated -->
<g id="edge1" class="edge"><title>Receive Activation Email on Your Email App&#45;&gt;User Activated</title>
<path fill="none" stroke="black" stroke-dasharray="5,2" d="M145.233,-350.808C77.2963,-336.255 0,-312.545 0,-280 0,-280 0,-280 0,-115 0,-77.6443 33.1821,-55.2324 69.324,-41.9006"/>
<polygon fill="black" stroke="black" points="70.7513,-45.1107 79.0625,-38.5399 68.4678,-38.4936 70.7513,-45.1107"/>
</g>
<!-- GET /user/activated -->
<g id="node13" class="node"><title>GET /user/activated</title>
<ellipse fill="lightgrey" stroke="black" cx="246" cy="-279" rx="80.8301" ry="18"/>
<text text-anchor="middle" x="246" y="-274.8" font-family="Times,serif" font-size="14.00">GET /user/activated</text>
</g>
<!-- Receive Activation Email on Your Email App&#45;&gt;GET /user/activated -->
<g id="edge6" class="edge"><title>Receive Activation Email on Your Email App&#45;&gt;GET /user/activated</title>
<path fill="none" stroke="black" d="M246,-346.698C246,-334.855 246,-319.992 246,-307.304"/>
<polygon fill="black" stroke="black" points="249.5,-307.271 246,-297.271 242.5,-307.271 249.5,-307.271"/>
<text text-anchor="middle" x="303.155" y="-317.8" font-family="Times,serif" font-size="14.00">Click activation link</text>
</g>
<!-- Server Error -->
<g id="node3" class="node"><title>Server Error</title>
<ellipse fill="none" stroke="black" cx="592" cy="-22" rx="128.909" ry="18"/>
<ellipse fill="none" stroke="black" cx="592" cy="-22" rx="132.908" ry="22"/>
<text text-anchor="middle" x="592" y="-17.8" font-family="Times,serif" font-size="14.00">Server Error /system/server_error</text>
</g>
<!-- Register User -->
<g id="node4" class="node"><title>Register User</title>
<ellipse fill="none" stroke="black" cx="288" cy="-1261" rx="106.73" ry="18"/>
<ellipse fill="none" stroke="black" cx="288" cy="-1261" rx="110.725" ry="22"/>
<text text-anchor="middle" x="288" y="-1256.8" font-family="Times,serif" font-size="14.00">Register User /user/register</text>
</g>
<!-- Confirm User -->
<g id="node5" class="node"><title>Confirm User</title>
<ellipse fill="none" stroke="black" cx="283" cy="-935" rx="107.742" ry="18"/>
<ellipse fill="none" stroke="black" cx="283" cy="-935" rx="111.737" ry="22"/>
<text text-anchor="middle" x="283" y="-930.8" font-family="Times,serif" font-size="14.00">Confirm User /user/confirm</text>
</g>
<!-- Register User&#45;&gt;Confirm User -->
<g id="edge2" class="edge"><title>Register User&#45;&gt;Confirm User</title>
<path fill="none" stroke="black" stroke-dasharray="5,2" d="M269.82,-1239.16C256.962,-1222.25 242,-1197.17 242,-1172 242,-1172 242,-1172 242,-1011 242,-994.566 249.672,-978.316 258.379,-965.165"/>
<polygon fill="black" stroke="black" points="261.242,-967.18 264.18,-957 255.535,-963.125 261.242,-967.18"/>
</g>
<!-- POST /user/confirm -->
<g id="node16" class="node"><title>POST /user/confirm</title>
<ellipse fill="lightgrey" stroke="black" cx="427" cy="-1171" rx="80.8905" ry="18"/>
<text text-anchor="middle" x="427" y="-1166.8" font-family="Times,serif" font-size="14.00">POST /user/confirm</text>
</g>
<!-- Register User&#45;&gt;POST /user/confirm -->
<g id="edge7" class="edge"><title>Register User&#45;&gt;POST /user/confirm</title>
<path fill="none" stroke="black" d="M319.889,-1239.81C341.683,-1226.01 370.538,-1207.75 392.807,-1193.65"/>
<polygon fill="black" stroke="black" points="394.718,-1196.58 401.295,-1188.27 390.974,-1190.67 394.718,-1196.58"/>
<text text-anchor="middle" x="425.614" y="-1209.8" font-family="Times,serif" font-size="14.00">Click submit button</text>
</g>
<!-- Sent Activation Email -->
<g id="node8" class="node"><title>Sent Activation Email</title>
<ellipse fill="none" stroke="black" cx="267" cy="-450" rx="187.848" ry="18"/>
<ellipse fill="none" stroke="black" cx="267" cy="-450" rx="191.852" ry="22"/>
<text text-anchor="middle" x="267" y="-445.8" font-family="Times,serif" font-size="14.00">Sent Activation Email /user/sent_activation_email</text>
</g>
<!-- Confirm User&#45;&gt;Sent Activation Email -->
<g id="edge3" class="edge"><title>Confirm User&#45;&gt;Sent Activation Email</title>
<path fill="none" stroke="black" stroke-dasharray="5,2" d="M276.951,-912.857C272.42,-895.152 267,-869.137 267,-846 267,-846 267,-846 267,-539 267,-520.326 267,-499.424 267,-482.678"/>
<polygon fill="black" stroke="black" points="270.5,-482.339 267,-472.339 263.5,-482.339 270.5,-482.339"/>
</g>
<!-- GET /user/sent_activation_email -->
<g id="node19" class="node"><title>GET /user/sent_activation_email</title>
<ellipse fill="lightgrey" stroke="black" cx="426" cy="-845" rx="126.701" ry="18"/>
<text text-anchor="middle" x="426" y="-840.8" font-family="Times,serif" font-size="14.00">GET /user/sent_activation_email</text>
</g>
<!-- Confirm User&#45;&gt;GET /user/sent_activation_email -->
<g id="edge8" class="edge"><title>Confirm User&#45;&gt;GET /user/sent_activation_email</title>
<path fill="none" stroke="black" d="M315.807,-913.811C337.937,-900.193 367.143,-882.22 389.927,-868.199"/>
<polygon fill="black" stroke="black" points="391.947,-871.065 398.629,-862.844 388.278,-865.104 391.947,-871.065"/>
<text text-anchor="middle" x="423.614" y="-883.8" font-family="Times,serif" font-size="14.00">Click submit button</text>
</g>
<!-- Top -->
<g id="node7" class="node"><title>Top</title>
<ellipse fill="none" stroke="black" cx="310" cy="-1428" rx="28.3175" ry="18"/>
<ellipse fill="none" stroke="black" cx="310" cy="-1428" rx="32.3055" ry="22"/>
<text text-anchor="middle" x="310" y="-1423.8" font-family="Times,serif" font-size="14.00">Top /</text>
</g>
<!-- Top&#45;&gt;Register User -->
<g id="edge4" class="edge"><title>Top&#45;&gt;Register User</title>
<path fill="none" stroke="black" stroke-dasharray="5,2" d="M304.792,-1406.01C301.495,-1391.94 297.412,-1372.96 295,-1356 292.053,-1335.28 290.303,-1311.8 289.29,-1293.49"/>
<polygon fill="black" stroke="black" points="292.779,-1293.18 288.776,-1283.37 285.788,-1293.53 292.779,-1293.18"/>
</g>
<!-- GET /user/register -->
<g id="node9" class="node"><title>GET /user/register</title>
<ellipse fill="lightgrey" stroke="black" cx="380" cy="-1338" rx="75.5348" ry="18"/>
<text text-anchor="middle" x="380" y="-1333.8" font-family="Times,serif" font-size="14.00">GET /user/register</text>
</g>
<!-- Top&#45;&gt;GET /user/register -->
<g id="edge9" class="edge"><title>Top&#45;&gt;GET /user/register</title>
<path fill="none" stroke="black" d="M324.845,-1408.34C335.178,-1395.35 349.066,-1377.89 360.321,-1363.74"/>
<polygon fill="black" stroke="black" points="363.11,-1365.86 366.596,-1355.85 357.632,-1361.5 363.11,-1365.86"/>
<text text-anchor="middle" x="422.957" y="-1376.8" font-family="Times,serif" font-size="14.00">Click register user button</text>
</g>
<!-- Sent Activation Email&#45;&gt;Receive Activation Email on Your Email App -->
<g id="edge5" class="edge"><title>Sent Activation Email&#45;&gt;Receive Activation Email on Your Email App</title>
<path fill="none" stroke="black" stroke-dasharray="5,2" d="M261.372,-427.829C259.183,-419.594 256.631,-409.993 254.242,-401.007"/>
<polygon fill="black" stroke="black" points="257.595,-399.994 251.643,-391.229 250.83,-401.793 257.595,-399.994"/>
</g>
<!-- GET /user/register&#45;&gt;Register User -->
<g id="edge10" class="edge"><title>GET /user/register&#45;&gt;Register User</title>
<path fill="none" stroke="black" d="M359.582,-1320.36C348.272,-1311.13 333.936,-1299.45 321.069,-1288.96"/>
<polygon fill="black" stroke="black" points="323.25,-1286.22 313.288,-1282.61 318.827,-1291.65 323.25,-1286.22"/>
</g>
<!-- Validate Activation Code -->
<g id="node10" class="node"><title>Validate Activation Code</title>
<ellipse fill="lightgrey" stroke="black" cx="246" cy="-206" rx="99.0329" ry="18"/>
<text text-anchor="middle" x="246" y="-201.8" font-family="Times,serif" font-size="14.00">Validate Activation Code</text>
</g>
<!-- Validate Activation Code&#45;&gt;Activation Code Expired -->
<g id="edge12" class="edge"><title>Validate Activation Code&#45;&gt;Activation Code Expired</title>
<path fill="none" stroke="black" d="M244.617,-187.614C243.724,-176.389 242.537,-161.463 241.484,-148.226"/>
<polygon fill="black" stroke="black" points="244.958,-147.766 240.676,-138.075 237.98,-148.321 244.958,-147.766"/>
<text text-anchor="middle" x="263.828" y="-158.8" font-family="Times,serif" font-size="14.00">Invalid</text>
</g>
<!-- Save as Activated -->
<g id="node14" class="node"><title>Save as Activated</title>
<ellipse fill="lightgrey" stroke="black" cx="541" cy="-116" rx="72.9567" ry="18"/>
<text text-anchor="middle" x="541" y="-111.8" font-family="Times,serif" font-size="14.00">Save as Activated</text>
</g>
<!-- Validate Activation Code&#45;&gt;Save as Activated -->
<g id="edge11" class="edge"><title>Validate Activation Code&#45;&gt;Save as Activated</title>
<path fill="none" stroke="black" d="M295.376,-190.271C348.185,-174.518 431.705,-149.603 486.429,-133.279"/>
<polygon fill="black" stroke="black" points="487.716,-136.547 496.299,-130.335 485.715,-129.839 487.716,-136.547"/>
<text text-anchor="middle" x="417.776" y="-158.8" font-family="Times,serif" font-size="14.00">Valid</text>
</g>
<!-- Generate Activation Code -->
<g id="node11" class="node"><title>Generate Activation Code</title>
<ellipse fill="lightgrey" stroke="black" cx="431" cy="-699" rx="101.906" ry="18"/>
<text text-anchor="middle" x="431" y="-694.8" font-family="Times,serif" font-size="14.00">Generate Activation Code</text>
</g>
<!-- Save User -->
<g id="node17" class="node"><title>Save User</title>
<ellipse fill="lightgrey" stroke="black" cx="431" cy="-626" rx="46.4132" ry="18"/>
<text text-anchor="middle" x="431" y="-621.8" font-family="Times,serif" font-size="14.00">Save User</text>
</g>
<!-- Generate Activation Code&#45;&gt;Save User -->
<g id="edge13" class="edge"><title>Generate Activation Code&#45;&gt;Save User</title>
<path fill="none" stroke="black" d="M431,-680.813C431,-672.789 431,-663.047 431,-654.069"/>
<polygon fill="black" stroke="black" points="434.5,-654.029 431,-644.029 427.5,-654.029 434.5,-654.029"/>
</g>
<!-- Validate Inputted User -->
<g id="node12" class="node"><title>Validate Inputted User</title>
<ellipse fill="lightgrey" stroke="black" cx="382" cy="-1098" rx="89.8445" ry="18"/>
<text text-anchor="middle" x="382" y="-1093.8" font-family="Times,serif" font-size="14.00">Validate Inputted User</text>
</g>
<!-- Validate Inputted User&#45;&gt;Register User -->
<g id="edge15" class="edge"><title>Validate Inputted User&#45;&gt;Register User</title>
<path fill="none" stroke="black" d="M343.144,-1114.27C326.193,-1123 307.829,-1135.71 297.345,-1153 283.657,-1175.57 282.251,-1205.91 283.728,-1228.51"/>
<polygon fill="black" stroke="black" points="280.253,-1228.95 284.61,-1238.61 287.227,-1228.34 280.253,-1228.95"/>
<text text-anchor="middle" x="317.828" y="-1166.8" font-family="Times,serif" font-size="14.00">Invalid</text>
</g>
<!-- Set Inputted User on Session -->
<g id="node15" class="node"><title>Set Inputted User on Session</title>
<ellipse fill="lightgrey" stroke="black" cx="382" cy="-1012" rx="112.081" ry="18"/>
<text text-anchor="middle" x="382" y="-1007.8" font-family="Times,serif" font-size="14.00">Set Inputted User on Session</text>
</g>
<!-- Validate Inputted User&#45;&gt;Set Inputted User on Session -->
<g id="edge14" class="edge"><title>Validate Inputted User&#45;&gt;Set Inputted User on Session</title>
<path fill="none" stroke="black" d="M382,-1079.6C382,-1068.26 382,-1053.23 382,-1040.32"/>
<polygon fill="black" stroke="black" points="385.5,-1040.1 382,-1030.1 378.5,-1040.1 385.5,-1040.1"/>
<text text-anchor="middle" x="396.776" y="-1050.8" font-family="Times,serif" font-size="14.00">Valid</text>
</g>
<!-- GET /user/activated&#45;&gt;Validate Activation Code -->
<g id="edge16" class="edge"><title>GET /user/activated&#45;&gt;Validate Activation Code</title>
<path fill="none" stroke="black" d="M246,-260.813C246,-252.789 246,-243.047 246,-234.069"/>
<polygon fill="black" stroke="black" points="249.5,-234.029 246,-224.029 242.5,-234.029 249.5,-234.029"/>
</g>
<!-- Save as Activated&#45;&gt;Server Error -->
<g id="edge18" class="edge"><title>Save as Activated&#45;&gt;Server Error</title>
<path fill="none" stroke="black" d="M538.419,-97.8573C537.59,-87.0066 538.056,-73.001 543.658,-62 545.752,-57.8891 548.496,-54.0631 551.614,-50.5414"/>
<polygon fill="black" stroke="black" points="554.269,-52.8392 558.932,-43.3258 549.354,-47.8548 554.269,-52.8392"/>
<text text-anchor="middle" x="585.171" y="-64.8" font-family="Times,serif" font-size="14.00">Database Error</text>
</g>
<!-- Save as Activated&#45;&gt;User Activated -->
<g id="edge17" class="edge"><title>Save as Activated&#45;&gt;User Activated</title>
<path fill="none" stroke="black" d="M492.472,-102.422C481.476,-99.6135 469.843,-96.6757 459,-94 385.644,-75.8987 301.948,-56.0971 241.8,-42.0156"/>
<polygon fill="black" stroke="black" points="242.514,-38.5882 231.98,-39.7183 240.92,-45.4041 242.514,-38.5882"/>
<text text-anchor="middle" x="399.162" y="-64.8" font-family="Times,serif" font-size="14.00">Success</text>
</g>
<!-- Set Inputted User on Session&#45;&gt;Confirm User -->
<g id="edge19" class="edge"><title>Set Inputted User on Session&#45;&gt;Confirm User</title>
<path fill="none" stroke="black" d="M359.535,-993.981C347.346,-984.747 332.003,-973.123 318.26,-962.712"/>
<polygon fill="black" stroke="black" points="320.037,-959.667 309.952,-956.418 315.809,-965.247 320.037,-959.667"/>
</g>
<!-- POST /user/confirm&#45;&gt;Validate Inputted User -->
<g id="edge20" class="edge"><title>POST /user/confirm&#45;&gt;Validate Inputted User</title>
<path fill="none" stroke="black" d="M416.107,-1152.81C410.745,-1144.35 404.173,-1133.98 398.233,-1124.61"/>
<polygon fill="black" stroke="black" points="401.103,-1122.6 392.793,-1116.03 395.19,-1126.35 401.103,-1122.6"/>
</g>
<!-- Save User&#45;&gt;Server Error -->
<g id="edge22" class="edge"><title>Save User&#45;&gt;Server Error</title>
<path fill="none" stroke="black" d="M471.683,-617.412C532.997,-604.799 642,-577.274 642,-541 642,-541 642,-541 642,-115 642,-90.6365 639.72,-83.3595 628,-62 626.061,-58.4657 623.733,-55.0004 621.206,-51.6837"/>
<polygon fill="black" stroke="black" points="623.715,-49.2281 614.622,-43.7907 618.34,-53.7119 623.715,-49.2281"/>
<text text-anchor="middle" x="684.171" y="-317.8" font-family="Times,serif" font-size="14.00">Database Error</text>
</g>
<!-- Send Activation Email -->
<g id="node20" class="node"><title>Send Activation Email</title>
<ellipse fill="lightgrey" stroke="black" cx="396" cy="-540" rx="90.3637" ry="18"/>
<text text-anchor="middle" x="396" y="-535.8" font-family="Times,serif" font-size="14.00">Send Activation Email</text>
</g>
<!-- Save User&#45;&gt;Send Activation Email -->
<g id="edge21" class="edge"><title>Save User&#45;&gt;Send Activation Email</title>
<path fill="none" stroke="black" d="M423.917,-608.001C419.078,-596.388 412.569,-580.765 407.053,-567.526"/>
<polygon fill="black" stroke="black" points="410.149,-565.858 403.072,-557.973 403.688,-568.55 410.149,-565.858"/>
<text text-anchor="middle" x="438.162" y="-578.8" font-family="Times,serif" font-size="14.00">Success</text>
</g>
<!-- Restore Inputted User from Session -->
<g id="node18" class="node"><title>Restore Inputted User from Session</title>
<ellipse fill="lightgrey" stroke="black" cx="431" cy="-772" rx="136.202" ry="18"/>
<text text-anchor="middle" x="431" y="-767.8" font-family="Times,serif" font-size="14.00">Restore Inputted User from Session</text>
</g>
<!-- Restore Inputted User from Session&#45;&gt;Generate Activation Code -->
<g id="edge23" class="edge"><title>Restore Inputted User from Session&#45;&gt;Generate Activation Code</title>
<path fill="none" stroke="black" d="M431,-753.813C431,-745.789 431,-736.047 431,-727.069"/>
<polygon fill="black" stroke="black" points="434.5,-727.029 431,-717.029 427.5,-727.029 434.5,-727.029"/>
</g>
<!-- GET /user/sent_activation_email&#45;&gt;Restore Inputted User from Session -->
<g id="edge24" class="edge"><title>GET /user/sent_activation_email&#45;&gt;Restore Inputted User from Session</title>
<path fill="none" stroke="black" d="M427.21,-826.813C427.775,-818.789 428.461,-809.047 429.094,-800.069"/>
<polygon fill="black" stroke="black" points="432.59,-800.25 429.801,-790.029 425.607,-799.758 432.59,-800.25"/>
</g>
<!-- Send Activation Email&#45;&gt;Sent Activation Email -->
<g id="edge25" class="edge"><title>Send Activation Email&#45;&gt;Sent Activation Email</title>
<path fill="none" stroke="black" d="M371.736,-522.448C353.18,-509.789 327.226,-492.084 305.797,-477.466"/>
<polygon fill="black" stroke="black" points="307.764,-474.571 297.53,-471.827 303.819,-480.354 307.764,-474.571"/>
<text text-anchor="middle" x="366.162" y="-492.8" font-family="Times,serif" font-size="14.00">Success</text>
</g>
<!-- Send Activation Email&#45;&gt;Send Activation Email -->
<g id="edge26" class="edge"><title>Send Activation Email&#45;&gt;Send Activation Email</title>
<path fill="none" stroke="black" d="M478.081,-547.471C493.396,-546.551 504.182,-544.061 504.182,-540 504.182,-536.923 497.988,-534.748 488.322,-533.474"/>
<polygon fill="black" stroke="black" points="488.36,-529.963 478.081,-532.529 487.717,-536.933 488.36,-529.963"/>
<text text-anchor="middle" x="545.771" y="-535.8" font-family="Times,serif" font-size="14.00">Error and retry</text>
</g>
</g>
</svg>
